<svg version="1.2" xmlns="http://www.w3.org/2000/svg" viewBox="0 0 2000 2000" width="250" height="250">
	<style>
		.s0 { fill: #002c11 } 
		.s1 { fill: #f4811f } 
		.s2 { fill: #7ab66e } 
		.s3 { fill: #166028 } 
		.s4 { fill: #fab16a } 
		.s5 { fill: #fefefe } 
	</style>
	<g id=" Слой 1">
		<g id="LOGO INTERMOUNTAIN">
			<g id="LOGO">
				<path id="&lt;Compound Path&gt;" fill-rule="evenodd" class="s0" d="m503.17 651.39c-7.53-0.78-13.29-0.2-16.47 0.14-5.54 0.59-9.83 1.61-12.06 2.19-1.59 0.41-6.11 1.65-11.77 4.06-3.03 1.29-6.36 2.71-10.39 5.28-4.51 2.88-7.44 5.63-10.41 8.43-2.61 2.46-5.65 5.34-9.01 9.77-1.44 1.9-4.41 6.01-7.22 11.82-0.76 1.56-3.08 6.52-4.91 13.42-0.74 2.78-1.97 7.51-2.35 13.87-0.36 5.81 0.15 10.24 0.46 12.81 0.35 2.92 1.06 7.39 2.62 12.68 0.82 2.78 2.12 7.08 4.8 12.3 0.61 1.19 3.27 6.25 8.08 12.08 2.11 2.55 5.34 6.42 10.6 10.41 4.46 3.38 8.48 5.41 10.78 6.46 0.9 0.42 4.77 2.16 10.17 3.55 4.95 1.28 8.83 1.65 10.16 1.77 0.02 0 5.43 0.47 10.18-0.05 1.17-0.13 1.76-0.2 2.11-0.3q0.4-0.11 0.7-0.22c0.51-0.17 0.85-0.29 1.03-0.11 0.06 0.05 0.18 0.22 0.02 0.97-0.23 1.07-0.7 1.78-0.7 1.78-1.08 1.64-2.17 3.81-2.62 5.34-0.13 0.46-0.24 0.84-0.31 1.38-0.05 0.41-0.04 0.67-0.04 0.89 0.01 0.29 0.01 0.5-0.1 0.84-0.07 0.22-0.29 0.93-0.93 1.34-0.4 0.26-0.8 0.3-0.94 0.31h-0.01c-1.19 0.12-3.64 1.39-5.75 2.49l-0.03 0.02c-7.31 3.8-10.96 5.7-14.18 8.37-4.29 3.55-7.17 7.28-9.87 10.79-1.02 1.33-1.57 2.12-2.05 2.82-0.57 0.82-1.05 1.52-2.14 2.86-1.07 1.3-3.98 4.73-9.32 9.24-2.39 2.02-3.97 3.16-10.18 7.54-8.53 6.02-12.79 9.03-14.06 9.87-3.98 2.61-9.09 5.97-16.15 9.78-4.13 2.23-9.42 5.07-16.62 7.92-2.94 1.17-4.27 1.57-6.56 2.27-2.05 0.62-4.87 1.48-10.3 3.33-13.44 4.56-17.15 6.44-19.19 7.53-10.86 5.83-20.28 11.48-29.02 20.07-12.53 12.3-20.92 29.15-20.05 57.31 0 4.76 0.11 9.46 0 14.31q-0.04 1.22-0.05 2.08v0.08c-0.18 6.62-0.27 9.94-0.82 12.67-0.87 4.34-2.19 7.54-3.26 10.08-1.1 2.62-2.83 6.67-6.12 11.24-3.1 4.3-6.11 7.05-8.74 9.44-1.48 1.35-5.97 5.43-9.65 8.04l-0.03 0.01c-0.36 0.26-1.91 1.37-3.74 3.05l-0.01 0.01c-1.16 1.07-1.74 1.61-2.2 2.29-0.92 1.33-1.22 2.58-1.79 5.82-0.49 2.76-0.73 4.14-0.82 4.89-0.5 4.64-2.14 11.86-4.19 20.86l-0.02 0.06c-2.5 10.97-3.81 16.73-6.41 24.23l-0.01 0.03c-0.82 2.36-1.9 5.48-3.63 9.55-0.39 0.92-0.57 1.33-1.18 2.68-0.59 1.3-1.58 3.47-3.52 7.8-1.2 2.68-1.71 3.84-1.96 4.41-0.23 0.5-0.23 0.52-0.33 0.72-0.24 0.5-1.09 2.43-2.79 6.23v0.01l-0.16 0.36c-0.67 1.52-1.2 2.76-0.81 4.16 0.07 0.23 0.18 0.55 1.16 1.9 0.75 1.02 1.33 1.72 1.8 2.3 0.8 0.97 1.28 1.56 1.69 2.63 0.31 0.8 0.44 1.51 0.43 2.22-0.01 0.84-0.22 1.49-0.3 1.72v0.02c-0.42 1.23-0.75 2.48-1.08 3.73q-0.35 1.39-0.75 2.76c-0.44 1.44-1.92 6.64-0.93 10.13v0.03c0.22 0.76 0.47 1.66 1.28 2.31 0.53 0.42 1 0.66 1.38 0.85q0.4 0.18 0.68 0.39 0.2 0.08 0.63 0.24h0.01c0.88 0.34 2.34 0.89 3.27 1.33l-43.83 15.44-124.37 121.31 594.81-257.28 156.19 122.93-156.19-152.71-85.9 30.26c0.3-0.48 0.77-1.31 1.1-1.9l0.11-0.19q0.07-0.12 0.13-0.22 0.11-0.16 0.31-0.46c0.66-0.96 2.04-2.98 4.43-6.18 1.33-1.78 1.99-2.67 2.6-3.18 0.77-0.65 1.29-0.9 1.89-1.2 0.53-0.26 1.11-0.56 1.99-1.17 0.69-0.49 2.33-1.66 3.69-3.57 0.97-1.36 1.47-2.64 2.02-4.43 1.12-3.64 1.58-6.59 1.82-8.07l0.02-0.19 0.02-0.12c0.63-3.96 1.73-7.19 3.93-13.65 1.16-3.42 2-5.91 3.53-9.27 1.45-3.19 2.84-5.67 5.09-9.67 0.86-1.53 1.52-2.68 2.06-3.6 1.33-2.3 1.84-3.18 2.46-5.02 1.18-3.52 1.39-6.42 1.44-7.73 0.06-1.68 0.15-4.69-1.03-8.31-0.44-1.36-1.1-3.32-2.7-5.4-1.17-1.52-2.33-2.43-3.73-3.51-1.52-1.18-2.56-1.79-3.88-2.56-0.51-0.3-1.04-0.61-1.67-1-3.3-2.01-5.64-3.82-7.65-5.36l-0.04-0.03c-1.32-1.02-3.57-2.77-6.27-5.29-1.02-0.94-1.5-1.44-2.02-1.98-0.56-0.58-1.17-1.2-2.54-2.48q-0.8-0.76-1.54-1.57c-0.64-0.67-1.27-1.33-1.96-1.93-0.27-0.23-0.49-0.53-0.71-0.82-0.21-0.28-0.43-0.57-0.69-0.8-0.06-0.05-0.25-0.22-0.26-0.44q0.01-0.12 0.04-0.18c0.52-0.88 1.25-2.14 2.1-3.67 1.19-2.16 2.87-5.18 4.39-8.56 1.07-2.37 2.37-5.26 3.41-9.09 1.4-5.18 1.56-9.32 1.66-12.47 0.19-5.93-0.48-10.44-0.87-13.02-0.68-4.45-1.65-8.04-2.16-9.93-0.55-2.03-1.07-3.73-1.48-4.99 0.24-0.92 0.55-2.19 0.84-3.72 0.35-1.89 0.73-4.46 0.87-8.48 0.18-4.73-0.07-8.38-0.26-10.95-0.48-6.78-1.4-11.85-1.66-13.23-0.74-3.97-1.52-6.98-2.5-10.74q-0.41-1.57-0.76-2.86c-0.84-3.09-1.42-5.26-1.83-8.39-0.2-1.48-0.18-1.81-0.13-2.58 0.05-0.75 0.13-1.92 0.07-4.99-0.02-0.48-0.04-1.42 0.43-2.47 0.15-0.33 0.71-1.5 1.95-2.27 1.15-0.72 2.48-0.66 5.14-0.56h0.02c1.4 0.06 2.26 0.1 3.38 0.47 1.09 0.36 1.8 0.82 2.4 1.22h0.01q0.09 0.06 0.18 0.12c0.02 0.01 2.65 1.7 6.09 2.82 0.84 0.28 3.3 1.01 6.52 0.9 3.37-0.11 5.83-1.07 7.05-1.57 3.52-1.42 5.68-3.35 6.94-4.49 1.58-1.44 1.99-2.2 2.18-2.59 0.27-0.56 0.35-0.96 0.48-1.51 0.09-0.44 0.21-0.97 0.46-1.75q0.09-0.27 0.2-0.59c0.57-1.64 0.93-2.09 1.1-2.3 0.4-0.46 0.71-0.64 1.09-0.85 0.29-0.17 0.63-0.35 1.07-0.72 0.27-0.23 1.43-1.22 2.07-2.74 0.47-1.12 0.45-2.04 0.4-3.67-0.03-1.13-0.15-1.83-0.32-2.8-0.09-0.54-0.2-1.17-0.31-2-0.14-0.97-0.29-2.26-0.39-3.82 0.39-0.73 1.05-2.25 0.91-4.19-0.04-0.54-0.19-1.67-1-3.23-0.92-1.79-2-2.76-3.75-4.29q-0.22-0.19-0.45-0.4-0.12-0.1-0.24-0.21l-0.09-0.08q-0.17-0.15-0.34-0.3-0.09-0.08-0.18-0.16-0.09-0.08-0.17-0.15c-1.29-1.17-2.88-2.68-5.63-5.29-0.99-0.95-1.48-1.43-1.97-1.91-0.54-0.54-1.1-1.08-2.37-2.3-2.37-2.25-3.59-3.4-5.19-4.75-0.22-0.19-0.45-0.38-0.77-0.64l-0.01-0.01c-0.47-0.39-1.13-0.94-2.22-1.85l-0.16-0.14h-0.01c-0.8-0.68-1.06-0.9-1.58-1.32l-0.12-0.11c-1.43-1.15-2.14-1.74-2.31-1.84q-0.02-0.01-0.77-0.6-0.23-0.19-0.53-0.43c-0.17-0.12-0.43-0.35-0.46-0.66-0.01-0.2 0.1-0.36 0.14-0.42v-0.01c0.35-0.53 0.41-2.5 0.12-4.44-0.19-1.24-0.41-2.73-1.32-4.41-0.53-0.97-1.24-2.29-2.06-2.76-0.05-0.03-0.44-0.24-0.73-0.69-0.27-0.41-0.25-0.7-0.24-0.78 0.03-0.2 0.12-0.34 0.14-0.38 0.3-0.51 1.39-4.28 1.92-6.36 1.55-6.13 1.96-11.19 1.96-11.19 0.43-5.41 0.02-9.47-0.08-10.37-0.18-1.65-0.5-4.54-1.57-8.2-0.74-2.51-1.8-6.04-4.39-9.99-0.86-1.31-2.46-3.72-5.28-6.18-3.46-3.01-6.79-4.39-8.68-5.14-0.81-0.33-3.88-1.53-8.12-2.14h-0.04c-4.08-0.59-7.25-0.35-8.91-0.21-1.35 0.11-2.89 0.24-4.89 0.7-1.66 0.37-4.36 1.14-7.38 2.73-1.62 0.86-2.93 1.8-5.53 3.67l-0.03 0.02c-0.82 0.59-1.88 1.43-4 3.11 0 0-0.11 0.09-1.3 1.12-0.55 0.48-1.19 1.05-1.51 1.67-0.19 0.35-0.27 0.6-0.27 0.61q-0.08 0.21-0.1 0.33c-0.03 0.11-0.05 0.19-0.12 0.31-0.08 0.15-0.22 0.4-0.5 0.54-0.04 0.01-0.39 0.17-0.74 0.04-0.33-0.14-0.49-0.46-0.54-0.55v-0.02c-0.2-0.39-2.43-3.27-11.6-8.29l-0.02-0.01c-4.23-2.32-8.06-4.41-13.75-6.4-7.68-2.68-14-3.5-16.73-3.78zm-145.1 366.54c2.58-2.63 4.67-4.93 6.17-6.63 0.15 0.14 0.38 0.38 0.56 0.73 0.36 0.7 0.32 1.38 0.3 1.67-0.11 1.9-0.16 2.9-0.18 3.49-0.03 0.79-0.04 0.86-0.13 1.33-0.19 1.04-0.55 2.97-1.28 5.05-2.28 6.46-7.36 12.12-8.58 13.44-4.82 5.23-7.26 7.38-7.26 7.38l-0.13 0.12c-1.09 0.95-2.53 2.22-3.53 4.38-0.36 0.81-1.15 2.6-0.89 4.86 0.18 1.54 0.76 2.57 1.79 4.35 1.5 2.61 3.06 4.37 3.64 5.01 1.88 2.07 3.38 3.32 4.9 4.59q0.29 0.23 0.57 0.47 0.31 0.26 0.63 0.53c2.72 2.33 5.03 4.88 9.62 9.97l0.05 0.05 0.04 0.05c3.29 3.63 4.93 5.46 6.49 7.53q0.8 1.06 1.43 1.89c2.71 3.56 3.48 4.56 4.84 8.75 0.78 2.39 1.09 3.14 1.91 5.12q0.15 0.37 0.33 0.8c0.18 0.42 0.56 1.34 1.48 2.02 0.71 0.52 1.46 0.64 2.95 0.89 0.61 0.1 0.99 0.13 1.69 0.2h0.01c0.48 0.04 1.11 0.09 2.07 0.19q0.23 0.03 0.44 0.04 0.62 0.07 1 0.11c0.99 0.12 3.7 4.16 4.71 6.22l-119.34 42.04c-0.23-0.32-0.28-1.23-0.31-1.85-0.02-0.29-0.03-0.51-0.06-0.59-0.69-1.97-1.81-3.74-2.94-5.51-0.68-1.07-1.35-2.12-1.94-3.23-0.83-1.59-1.36-2.52-1.73-3.14-0.54-0.94-0.7-1.22-0.91-2.03-0.69-2.66-0.31-4.9-0.08-6.21 2.27-12.55 2.84-14.67 2.84-14.68 2.68-9.92 4.02-14.87 4.47-16.2 2.37-6.95 4.7-11.97 6.37-15.53 3.27-6.98 5.45-11.65 9.63-17.32 1.97-2.69 4.24-5.72 7.96-8.98 3.33-2.9 5.95-4.34 11.29-7.29l0.64-0.36c9.38-5.18 14.07-7.77 18.56-10.44 6.63-3.95 10.78-6.42 16.11-10.64 6.2-4.89 11.02-9.79 13.79-12.62zm108.62-28.66c2.84-0.93 5.21-1.84 6.96-2.56 0.23 0.83 0.54 2.11 0.76 3.7 0.31 2.3 0.26 4.05 0.23 4.92v0.09c-0.09 3.29-0.2 7.06 0.26 10.63 0.21 1.61 0.94 4.26 2.39 9.53l0.03 0.11q0.2 0.71 0.37 1.32c0.54 1.93 0.9 3.23 1.26 5.23 0.27 1.42 0.53 3.23 0.73 6 0.51 6.91 0.09 12.76 0 13.9-0.33 4.41-0.47 5.72-2.05 11.62q-0.12 0.45-0.26 0.96c-0.65 2.37-1.6 5.8-2.16 10.58-0.15 1.31-0.24 2.39-0.28 3.11 0.59 0.2 1.39 0.51 2.3 0.99h0.01c0.97 0.53 2.27 1.23 3.45 2.63 1.05 1.24 1.44 4.55 1.66 6.48 0.07 0.62 0.13 1.09 0.19 1.31q0.17 0.68 0.24 1.3l-62.92 22.17q-0.55-0.64-1.29-1.32c-1.37-1.27-2.56-1.94-3.95-2.73q-0.64-0.35-1.35-0.77c-1.53-0.92-2.8-1.87-5.32-3.76l-0.03-0.03c-3.89-2.93-6.43-5.69-9.88-9.46-1.55-1.69-4.47-4.99-7.84-9.44-0.87-1.16-3.28-5.13-8.07-13.02-0.31-0.52-0.98-1.66-1.25-3.27-0.09-0.58-0.39-2.5 0.53-4.51 0.6-1.33 1.47-2.14 2.18-2.77 4.44-3.94 6.53-5.13 6.53-5.13 5.5-3.13 12.13-7.41 14.5-9.02 6.2-4.24 10.05-8.66 12.93-11.95 2.36-2.69 6.54-7.54 10.25-14.68 3-5.78 5.02-11.76 5.95-14.49v-0.01c0.33-1 0.6-1.84 0.78-2.42 2.62-0.12 6.13-0.33 10.26-0.76 3.63-0.38 6.36-0.66 10.04-1.37 1.25-0.24 5.89-1.16 11.86-3.11zm69.88-23.92c2.29-1.33 4.08-2.58 5.27-3.46 1.17 0.56 2.85 1.32 4.93 2.09 1.36 0.51 6.35 2.31 14.56 3.44 2.12 0.29 3.03 0.34 4.04 0.4 1.07 0.06 2.27 0.13 5.16 0.5 3 0.38 4.66 0.69 5.93 0.92 1.57 0.29 2.52 0.46 4.61 0.53q1.65 0.08 3.29 0.23c1.49 0.13 2.97 0.26 4.46 0.24h0.02c0.51 0 2.07-0.02 3.8 0.73 0.76 0.33 1.86 0.82 2.45 1.95 0.36 0.7 0.39 1.36 0.41 2.13 0.03 1.63-0.38 2.89-0.46 3.16v0.02c-0.48 1.41-0.63 2.37-0.81 3.5-0.22 1.37-0.47 2.98-1.38 5.93-1.06 3.45-1.95 6.36-3.99 9.91-0.93 1.61-2.76 4.8-5.54 7.34-0.87 0.79-2.86 2.46-4.92 4.08q-0.65 0.5-1.02 0.78c0.05 1.69 0.18 3.05 0.29 3.99q0.03 0.26 0.06 0.49 0.02 0.14 0.04 0.26c0.15 1.19 0.24 1.88-0.04 2.81-0.1 0.32-0.42 1.34-1.31 2.12-0.73 0.65-1.43 0.76-2.81 0.97q-0.38 0.06-0.83 0.14c-3.53 0.59-5.57 1.33-7.08 2.13-0.59 0.31-1.1 0.62-1.57 1.13-1.06 1.12-1.33 2.44-1.49 3.27-0.76 4-0.9 7.49-0.9 7.51v0.1h-0.01c-0.13 3.3-0.19 4.96-0.11 6.2 0.08 1.3 0.21 2.04 0.63 4.68v0.03q0.18 1.04 0.42 2.54c0.3 1.88 0.55 3.46 0.72 4.58l-50.65 17.85c-1.46-1.85-2.56-3.52-3.37-4.87-1.3-2.12-2.36-3.9-3.18-6.49-0.19-0.6-0.69-2.26-1.08-6.12-0.33-3.22-0.39-6.15-0.29-10.63 0.13-5.45 0.19-8.17 0.47-9.96 0.58-3.86 1.85-7.26 4.39-14.07 0.55-1.46 1.01-2.63 1.39-3.61 1.15-2.94 1.66-4.26 1.99-6.76 0.41-3.09 0.36-6.63 0.35-7.52-0.02-1.75-0.11-2.85-0.19-3.77-0.08-1.07-0.15-1.91-0.07-3.25 0.13-2.26 0.56-3.93 1.78-7.8 0.99-3.17 2.33-7.27 4.07-12.06 2.48-1.16 4.54-2.11 6.01-2.77q2.07-0.94 3.61-1.64c3.81-1.72 5.55-2.5 7.95-3.9zm-40.14-226.56c-2.61-2.11-8.48-6.88-10.14-15.02-0.59-2.93-0.47-5.46-0.26-7.19 2.98-1.44 7.63-3.21 13.55-3.65 9.78-0.72 17.28 2.62 20.62 4.37-1.07-2.32-3.07-5.9-6.64-9.26-9.3-8.76-21.11-8.33-23.25-8.22-2.87 0.16-10.88 0.71-17.65 6.64-4.04 3.55-5.95 7.54-7.16 10.14-1.2 2.56-3.6 7.87-3.32 15.03 0.36 9.37 5.06 15.75 6.64 17.83 1.84 2.42 5.48 7.1 12.06 9.78 8.77 3.59 16.78 1.21 20.27 0.18 2.48-0.74 9.51-3.13 15.55-9.61 1.67-1.79 2.86-3.47 3.67-4.73-2.29 0.47-5.95 0.92-10.31 0.18-7.04-1.21-11.6-4.82-13.63-6.47z"/>
				<path id="&lt;Path&gt;" class="s1" d="m233.2 1255.51l439.62-190.16 126.37 99.46-126.37-60.96-439.62 151.66z"/>
				<path id="&lt;Path&gt;" class="s2" d="m570.11 781.56q-0.79 0.18-1.27 0.32c-0.22 0.07-1.13 0.37-2.4 0.54-1.24 0.17-2.2 0.14-2.65 0.12-5.26-0.2-7.89-0.3-8.39-0.38-1.24-0.24-5.25-1.12-8.82-4.16-3.49-2.98-4.77-6.5-6.25-10.57-0.79-2.17-1.7-5.28-2.14-9.18 0.24-1.61 0.59-2.9 0.86-3.78 0.53 3.34 2 9.44 6.64 15.3 2.56 3.23 6.81 8.58 12.54 9.4 5.7 0.81 8.55 1.22 10.06 0.89 0.38-0.08 1.61-0.37 1.99 0.16 0.22 0.31 0.07 0.84-0.17 1.34z"/>
				<path id="&lt;Path&gt;" class="s2" d="m629 783.4c-0.25 0.68-0.97 2.2-4.04 3.77-1.49 0.76-4.53 2.32-8.9 2.06-3.43-0.21-4.28-1.34-10.6-3.69 0 0-0.82-0.31-2.17-0.76 0.09-0.53 0.28-1.03 0.54-1.46 0.41-0.65 0.99-1.12 1.65-1.45 1.48 0.07 2.35-0.02 2.35-0.02q0.82-0.09 1.63-0.17 0.07 0 0.14-0.01 0.13-0.02 0.26-0.02 1.49-0.14 2.98-0.26 0.2-0.02 0.38-0.03 0.34-0.03 0.63-0.05 0.52-0.05 1.01-0.08 0.97-0.08 1.81-0.14 0.29-0.02 0.56-0.05 0.69-0.05 1.31-0.09 0.16-0.02 0.3-0.02 0.51-0.04 0.97-0.07 0.14 0 0.26-0.01 0.23-0.02 0.46-0.02 1.14-0.07 2.12-0.08 0.68-0.02 1.28 0 0.27 0 0.53 0.01c2.09 0.07 3.78 0.25 4.85 0.39 0.03 0.55 0.02 1.36-0.31 2.25z"/>
				<path id="&lt;Path&gt;" class="s2" d="m531.44 732.41c-2.71-2.2-6.76-4.97-12.17-7.05-3.12-1.19-7.46-2.85-12.3-2.79-2.58 0.03-5.25-0.66-7.75 0-0.29 0.08-1.66 0.45-3.03-0.12-0.31-0.13-1.06-0.45-1.1-0.93q-0.02-0.2 0.11-0.39c3.96-1.07 7.37-1.38 9.83-1.45 5.47-0.15 13.3 0.7 17.05 3.15 1 0.65 2.06 1.19 3.12 1.74q1.04 1.13 2.16 2.44c1.82 2.09 3.16 4 4.08 5.42z"/>
				<path id="&lt;Path&gt;" class="s2" d="m634.71 759.05c-0.41 0.81-0.98 1.76-1.75 2.76-0.88 1.14-1.79 2.01-2.56 2.64-1.19-0.66-2.1-1.29-2.72-1.75-2.04-1.51-2.51-2.35-3.96-2.64-0.64-0.12-0.73 0-2.18-0.19-1.13-0.16-1.7-0.23-2.29-0.47-1.07-0.42-1.06-0.8-2.45-1.43-1.26-0.58-1.73-0.48-1.9-0.43-0.81 0.23-1.2 1.04-1.24 1.13-0.49 1.07 0.09 2.23 0.74 3.53 0.68 1.38 1.28 2.57 2.52 3.03 0.62 0.24 0.75 0.04 2.49 0.12 1.3 0.06 2.22 0.11 3.14 0.39 1.89 0.58 3.03 1.92 3.61 2.6 0.87 1.01 1.77 2.07 1.87 3.69 0.02 0.28 0.1 2.01-1.05 3.38q-0.05 0.06-0.1 0.11-0.03 0.03-0.06 0.07c-0.77 0.81-1.82 1.14-4.42 1.65-3.33 0.78-4.99 1.16-7.13 1.12h-0.03q-0.44 0.02-0.84 0c-0.75-0.03-1.31-0.09-1.86-0.17q-0.63-0.05-1.6-0.1c-1.35-0.07-2.46-0.11-3.19-0.14-0.73-0.02-1.72-0.06-2.9-0.16q-0.46-0.03-0.94-0.09c-1.53-0.15-2.22-0.29-2.43 0.04-0.89-0.49-1.83-1.02-2.21-2.07-0.22-0.6-0.17-1.11-0.12-1.62 0.07-0.61 0.28-2.6 2.04-3.95 1.79-1.39 3.82-1.07 4.16-1.01-0.01-0.83 0-2.03 0.11-3.46 0.24-3.02 0.36-4.52 1.07-6.12 0.25-0.54 1.74-3.75 5.13-5.14 1.42-0.59 2.6-0.62 4.85-0.69 2.25-0.06 4.13 0.17 5.42 0.39-1.09-0.6-2.66-1.57-4.31-3.05-1.46-1.29-2.22-2.3-3.22-3.49 0 0-3.12-3.7-6.88-6.94-2.88-2.47-4.45-3.82-6.95-5.1-2.04-1.05-3.69-2.71-5.61-3.96-0.24-0.16-0.95-0.62-1.11-1.4-0.1-0.49 0.02-1.13 0.41-1.54 0.35-0.36 0.65-0.26 1.13-0.58 0 0 0.66-0.45 0.95-1.44 0.49-1.66-1.68-3.75-2.51-4.52-1.81-1.71-2.72-1.79-4.95-3.27-1.26-0.83-2.78-2.3-5.83-5.24-4.13-3.98-3.77-3.96-5.18-5.01-1.42-1.05-3.73-2.76-7.11-3.67-1.8-0.49-2.94-0.49-3.85-0.64q0.02-0.19 0.03-0.39c0.07-2.28-0.75-4.1-1.32-5.13 3.29 0.52 5.92 1.39 7.76 2.14 3.37 1.36 7.68 3.1 10.92 7.11 1.13 1.41 1.43 2.21 3.07 3.92 0.5 0.53 2.22 2.27 5.08 4.08 3.5 2.21 4.11 1.63 6.49 3.58 0.9 0.73 2.7 2.36 3.57 4.73 0 0 0.55 1.5 0.27 3.42q-0.02 0.19-0.06 0.35c-0.07 0.34-0.19 0.59-0.4 0.66-0.38 0.13-0.66-0.45-1.44-0.73-0.63-0.24-1.73-0.33-2.21 0.31-0.5 0.65-0.04 1.67 0 1.75 1.77 0.83 3.94 1.95 6.33 3.41 3.23 1.99 5.69 3.88 7.26 5.17 1.9 1.55 3.63 3.26 7.11 6.68 5.09 5.01 4.59 4.83 6.06 5.94 2.42 1.83 4.14 2.57 6.75 5.09 1.13 1.08 1.98 2.07 2.53 2.75z"/>
				<path id="&lt;Path&gt;" class="s3" d="m618.07 964.21c-0.06 1.53-0.29 3.82-1.17 6.53-0.11-1.63-0.43-3.94-1.28-6.59-0.69-2.13-1.82-5.63-4.66-8.56-1.42-1.46-2.06-1.53-7.58-4.6-0.75-0.42-5.07-2.83-9.43-5.54-4.53-2.8-5.51-3.71-9.9-6.29-2.22-1.3-4.07-2.31-5.31-2.97q2.36-2.89 4.72-5.76c1.98 1.9 4.62 4.34 7.87 7.05 5.7 4.75 8.55 7.12 12.81 9.61 0.98 0.56 4.72 2.71 9.15 6 1.66 1.23 2.66 2.07 3.5 3.49 1.46 2.52 1.36 5.14 1.28 7.63z"/>
				<path id="&lt;Path&gt;" class="s3" d="m425.84 971.61c-2.14 0.42-5.43 1.04-9.47 1.63-1.79 0.26-7.17 1.03-14.92 1.71-8.55 0.75-8.83 0.41-11.8 1.16-6.11 1.55-10.18 4.3-11.34 5.13-3.28 2.32-4.95 4.46-8.39 8.7-1.12 1.38-9.02 11.11-12.84 15.46-5.93 6.75-11.34 11.08-15.28 14.21-5.61 4.46-13.54 9.99-23.92 15.07 3.49-2.21 7.82-5.16 12.58-8.93 8.04-6.37 13.64-12.18 16.31-15.07 8.1-8.76 15.84-17.13 20.28-28.97 1.29-3.46 3.24-9.72 4.74-16.94 0.63-3.05 1.05-5.62 1.32-7.46 0.55 3.05 1.01 6.4 1.32 10.02q0.41 5.17 0.38 9.64c2-1.68 3.65-2.9 4.82-3.73 0.92-0.65 1.96-1.36 3.11-2.64 0.72-0.81 1.23-1.56 1.55-2.1 0.58 0.3 1.52 0.76 2.72 1.17 2.32 0.78 4.22 0.94 5.05 1.01 12.53 0.94 16.93 0.93 16.93 0.93 3.42-0.01 9.08-0.03 16.86 0z"/>
				<path id="&lt;Path&gt;" class="s1" d="m518.57 757.14c-0.47 2.96-1.74 8.47-5.77 13.95-3.52 4.78-7.47 7.29-9.91 8.8-1.7 1.06-7.27 4.33-15.35 5.59-8.23 1.29-14.64-0.21-18.08-1.05-2.15-0.52-9.64-2.49-17.75-8.16-8.72-6.08-13.35-13.08-15.52-16.42-5.28-8.16-7.44-15.63-8.33-19.37v-0.01q-0.13-2.59-0.12-5.96c0.06-7.11 0.14-15.96 3.62-25.75 2.61-7.36 6.32-12.92 9.07-16.39q0.3 0.61 0.69 1.27c1.64 2.75 3.52 4.24 6.35 6.44 2.18 1.69 5.33 4.1 10.1 5.88 1.72 0.64 3.21 1.03 4.29 1.28-0.53 0.48-1.22 1.21-1.81 2.25-0.37 0.65-0.6 1.26-0.76 1.77q-1.48 0.02-2.97 0.03c-3.24-0.26-5.76-0.86-7.48-1.37-2.07-0.61-3.33-1.2-6.59-2.18-1.86-0.57-3.4-0.97-4.42-1.22 0.88 0.46 2.2 1.2 3.75 2.21 2.66 1.73 2.67 2.11 4.75 3.44 2.01 1.28 3.73 2.03 6.88 3.4q0.96 0.42 1.76 0.75c-1.03 1.82-2.13 4.03-3.11 6.59q-0.97 0.2-2.15 0.41c-3.38 0.6-5.64 0.8-9 1.17-2.12 0.23-5.13 0.58-8.79 1.07 0.64 0.11 1.64 0.28 2.85 0.44 1.39 0.18 4.76 0.59 12.15 0.64q1.53 0.02 3.68 0-0.61 2.07-1.06 4.38-0.27 1.34-0.57 3.25-2.42 0.38-5.18 1.2c-2.53 0.77-4.7 1.71-6.49 2.62 1-0.1 2.61-0.25 4.6-0.35 0.89-0.04 2.19-0.09 6.69-0.11-0.18 2.48-0.18 5.35 0.23 8.47-1.98 1-4.52 2.56-6.87 5.16-0.97 1.08-2.27 2.74-3.4 5.04 1.64-1.55 5.11-4.6 9.29-6.67q0.78-0.39 1.46-0.67 0.59 2.87 1.74 5.94c0.46 1.21 1.75 4.39 4.24 8.11-2.27 2.27-3.22 3.69-3.92 5.14-0.6 1.26-1.28 3.08-0.93 3.29 0.43 0.26 1.87-2.3 5.33-5.42q0.46-0.41 1.04-0.9c2.04 2.65 4.67 5.42 8.03 7.84q0 0 0 0c1.86 1.33 3.93 2.56 6.25 3.6q2.14 0.95 4.12 1.56c0.01 1.51 0.19 2.83 0.4 3.89q0.33-1.64 0.94-3.51c4.88 1.31 8.62 1.23 9.57 1.21 0.43-0.02 2.01-0.09 4.25-0.49q0.12 0.5 0.24 0.98 0.07-0.26 0.2-0.88 0.02-0.09 0.04-0.19c3.4-0.64 8.12-2.03 12.66-4.99 0.09 0.43 0.13 0.7 0.2 0.7 0.09 0 0.16-0.39 0.19-0.96 2.56-1.73 5.03-3.97 7.16-6.88q1.34-1.86 2.25-3.62c0.84-0.64 1.6-1.32 2.35-2.12 0.78-0.85 1.89-2.19 2.91-4.13z"/>
				<path id="&lt;Path&gt;" class="s1" d="m480.12 694.6q-0.63 0.37-1.25 0.73c-0.87 0.49-2.32 1.12-4.05 0.96-1.69-0.16-2.78-1-4.64-2.48-7.75-6.16-9.02-7.54-9.9-8.56-1.21-1.4-2.13-2.64-2.74-3.49 0.65 2.5 1.47 4.45 2.1 5.76 1.16 2.43 3.19 6.58 7.52 9.79 1.11 0.83 2.1 1.39 2.73 1.72q-2.64 2.14-5.27 4.28c-4.92-1.47-8.91-3.15-11.86-4.55-5.85-2.78-8.85-5.06-9.64-5.68q-1.1-0.86-1.97-1.63c0.92-1.1 1.68-1.95 2.21-2.5 1.4-1.5 8.08-8.45 19.34-13.4 2.18-0.96 5-2.05 8.33-2.98-0.11 3.3 0.29 6 0.7 7.9 0.66 3.09 1.77 7.91 5.74 11.91 1 1.02 1.96 1.74 2.65 2.22z"/>
				<path id="&lt;Path&gt;" class="s1" d="m489.61 692.24q-1.05 0.55-2.1 1.11c-0.84-0.05-2.07-0.22-3.41-0.79-0.74-0.31-2.73-1.27-7.05-7.86-3.27-5.01-4.45-8.03-4.74-8.8-0.49-1.28-0.85-2.44-1.11-3.37 3.94-1.09 8.61-1.96 13.82-2.17-0.17 1.53-0.13 3.21-0.07 5.75 0.13 5.37 0.22 8.13 1.54 11.21 0.99 2.29 2.26 3.93 3.12 4.92z"/>
				<path id="&lt;Path&gt;" class="s1" d="m503.95 672.71c-1.03 2.55-1.75 4.8-2.25 6.59-0.67 2.4-1.29 4.68-1.57 7.78-0.22 2.41-0.15 4.45-0.03 5.91-0.69 0-1.66-0.06-2.77-0.32 0 0-1.51-0.34-2.79-0.99-0.8-0.4-2.86-1.83-5.1-10.72-0.96-3.81-1.68-6.74-1.79-10.65q1.59 0 3.24 0.1c1.42 0.09 6.52 0.45 13.06 2.29z"/>
				<path id="&lt;Path&gt;" class="s1" d="m517.94 678.43c-0.81 1-1.63 2.09-2.52 3.47-3.17 4.89-4.37 9.03-4.63 9.96-0.52 1.85-0.79 3.43-0.93 4.52q-0.95-0.27-1.9-0.53c-0.99-0.28-2.42-0.88-3.23-2.21-0.85-1.39-0.6-2.85-0.44-4.25 0.47-4.11-0.44-2.38-0.12-11.37 0.05-1.36 0.14-3.11 0.28-5.16q0.79 0.22 1.59 0.48c4.87 1.54 8.9 3.44 11.9 5.09z"/>
				<path id="&lt;Path&gt;" class="s1" d="m530.48 687.57c-4.03 2.56-5.94 4.55-6.94 6.01-1.54 2.28-3.91 4.17-4.66 6.82-0.04 0.14-0.21 0.85-0.75 1.08-0.21 0.08-0.41 0.07-0.53 0.06q-1.42-1.2-2.85-2.39c0.02-0.77 0.08-1.92 0.23-3.3 0.69-6.07 2.65-10.45 4.57-14.68q0.31-0.68 0.67-1.42c1.15 0.69 2.06 1.29 2.71 1.74 1.21 0.82 4.1 2.85 7.55 6.08z"/>
				<path id="&lt;Path&gt;" class="s1" d="m540.02 698.64c-1.01 0.45-2.35 1.02-5.84 2.86-4.65 2.46-6.98 3.69-7.55 4.34-0.15 0.18-0.85 1-1.98 1.29-0.3 0.08-1.13 0.28-1.71-0.18-0.13-0.1-0.5-0.43-0.59-1.43-0.14-1.55 0.56-2.82 0.67-3.03 3.61-6.57 2.97-6.92 6.12-11.04q0.98-1.29 2.37-2.9 1.89 1.84 3.89 4.12 2.64 3.07 4.62 5.96z"/>
				<path id="&lt;Path&gt;" class="s1" d="m549.1 716.23c-2.32 0.66-5.01 0.99-8.92 1.46-4.06 0.48-7.45 0.61-9.75 0.64-1.72-1.82-2.49-3.58-2.87-4.68-0.73-2.2-0.27-2.98-0.14-3.17 0.51-0.76 1.51-0.91 1.81-0.96 3.66-0.65 10.05-6.29 12.38-8.46 2.48 3.94 4.09 7.39 5.21 9.79 0.94 2.04 1.69 3.87 2.28 5.38z"/>
				<path id="&lt;Path&gt;" class="s1" d="m586.34 668.23c-1.73-0.53-4.03-0.87-6.61-0.32-1.86 0.4-3.31 1.16-4.31 1.81-0.35-0.51-0.93-1.24-1.8-1.92-2.27-1.78-4.84-1.92-7.64-2.04-1.55-0.07-3.79-0.02-6.46 0.52 2.07-1.47 5.72-3.67 10.72-4.72h0.01c1.75 0.09 3.76 0.36 5.93 0.99 1.5 0.43 5.88 1.85 10.16 5.67z"/>
				<path id="&lt;Path&gt;" class="s1" d="m593.38 678.37q-0.32-0.17-0.65-0.31c-1.5-0.65-2.97-0.86-7.75-0.76-1.5 0.03-3.44 0.09-5.71 0.23q-0.13-0.98-0.53-2.22c-0.42-1.26-0.97-2.27-1.46-3.02 1.04-0.78 2.72-1.84 5.01-2.51 1.95-0.56 3.71-0.66 5.08-0.58q0.26 0.25 0.52 0.53c2.86 3 4.5 6.14 5.49 8.64z"/>
				<path id="&lt;Path&gt;" class="s1" d="m595.6 692.01c-0.77-0.68-1.49-1.18-2.06-1.55-2.93-1.87-5.76-2.41-8.04-2.85-1.83-0.36-3.36-0.48-4.43-0.53q-0.03-1.46-0.17-3.09-0.18-1.9-0.47-3.55c2.02-0.41 4.39-0.75 7.05-0.87 2.35-0.11 4.5-0.03 6.4 0.15q0.41 1.26 0.65 2.12c1.03 3.63 1.23 6.9 1.07 10.16z"/>
				<path id="&lt;Path&gt;" class="s1" d="m595.49 693.68c-0.15 1.85-0.4 3.73-0.66 5.7-0.46 3.37-1.1 6.3-1.73 8.65q-0.01-0.02-0.03-0.03c-2.78-2.8-3.68-4.35-6.23-6.4-2.31-1.87-4.52-2.95-5.94-3.56q0.09-3.58 0.18-7.16c1.02-0.02 2.45 0 4.13 0.17 3.23 0.34 5.63 1.06 7.11 1.52q1.39 0.42 3.17 1.11z"/>
				<path id="&lt;Path&gt;" class="s2" d="m635.29 771.9c-0.34 2.36-1.23 4.11-1.83 5.09-0.11 0.16-0.36 0.41-0.73 0.54-0.87 0.31-1.67-0.32-1.75-0.38-0.83-0.68-0.79-1.9-0.78-2.61 0.06-2.19 1.19-3.82 1.98-4.93 0.57-0.79 1.47-1.88 2.84-2.95 0.28 1.1 0.6 2.96 0.27 5.24z"/>
				<path id="&lt;Path&gt;" class="s2" d="m511.98 830.16c-1.44-1.18-3.63-2.76-6.52-4.2-2.42-1.19-8.09-4.02-14.74-3.61-6.28 0.38-10.52 3.45-15.32 6.93-8.18 5.92-12.57 13.17-14.74 16.84-1.78 3-3.19 6-3.96 7.63-2.85 6.04-4.75 11.49-4.96 12.06-1.4 4.04-1.84 6.03-2.19 6.65-0.07-2.58 0.01-5.86 0.52-9.6 0.2-1.47 1.11-7.75 4.55-16.12 2.73-6.66 5.1-12.42 10.68-18.45 5.85-6.31 11.76-9.16 17.16-11.77 2.08-0.99 3.89-1.73 6.26-1.94 5.29-0.47 9.57 1.97 11.65 3.39-0.79-1.85-1.79-4.64-2.29-8.16-0.32-2.27-0.86-7.76 1.21-14.18 0.94-2.97 1.86-5.7 4.38-8.04q0.43-0.4 0.81-0.68c1.1-0.26 1.74-0.32 2.03-0.1 1.06 0.84-0.44 4.34-0.93 5.59-2.47 6.27-1.82 12.08-1.05 18.88 0.43 3.86 1.86 10.83 7.45 18.87z"/>
				<path id="&lt;Path&gt;" class="s2" d="m445.8 848.73c-0.29 2.76-0.36 5.08-0.39 6.78q-1.17 1.38-2.72 3c-3.32 3.47-6.27 5.89-11.61 9.95-7.38 5.59-11.06 8.39-15.15 11.03-7.63 4.92-8.33 4.42-17.16 9.98-8.38 5.27-12.93 8.98-14.33 10.14-5.66 4.67-8.92 7.42-11.46 12.07-0.46 0.85-1.29 2.47-1.55 2.37-0.48-0.18 1.24-5.92 2.71-10.06 1.09-3.03 2.14-5.49 2.92-7.18-5.08 1.33-11.71 3.5-19 7.18-10.78 5.45-17.71 11.51-19.18 12.82-8.98 7.97-13.93 15.84-16.78 20.47-3.99 6.44-5.8 11.14-6.41 12.77-1.63 4.4-2.54 8.45-2.6 8.7-0.08 0.36-0.4 1.99-1.05 5.25-0.66 3.32-0.96 4.91-1.47 7.02q-0.53 2.21-0.88 3.52c-0.08-2.05-0.2-3.73-0.06-7.08 0.07-1.64 0.28-5.43 1.01-10.06 1.14-7.25 2.97-12.84 4-15.69 3.37-9.41 7.71-16.24 10.29-19.93 2.18-3.11 6.28-8.9 13.25-14.84 7.55-6.43 14.53-9.71 19.26-11.88 5.62-2.58 14.08-5.8 22.57-7.84 1.52-0.37 3.81-0.89 6.99-1.94 3.88-1.29 7.18-2.77 12.08-5.28 6.09-3.14 10.98-6 14.49-8.12 5.11-3.09 10.88-6.58 18.13-11.88 3.88-2.83 8.72-6.57 14.1-11.26z"/>
				<path id="&lt;Path&gt;" class="s2" d="m585.23 861.86c-0.97 6.3-2.76 10.83-4.5 15.22-2.01 5.06-4.17 9.15-6.02 12.66q-1.25 2.35-2.34 4.28c-0.52 0.21-0.89 0.26-1.04 0.11-0.44-0.44 1.07-2.54 1.9-3.81 2.9-4.42 3.89-9.59 5.87-19.92 1.88-9.85 2.2-17.55 2.29-20.63 0.13-5.15-0.08-9.34-0.28-13.24-0.25-4.94-0.63-9.2-0.98-12.56q0.11 0.05 0.21 0.09c0.52 2.06 1.3 5.13 2.21 8.86 1.62 6.64 2.43 9.96 2.72 11.73 0.28 1.76 1.29 8.58-0.04 17.2z"/>
				<path id="&lt;Path&gt;" class="s2" d="m589.54 897c-0.37 1.84-1.68 7.84-5.21 15.03-0.92 1.89-1.79 3.43-2.44 4.55q-0.19-1.42-0.38-2.84c2.08-4.22 3.12-7.89 3.68-10.52 0.93-4.36 1.02-8.07 1.13-12.54 0.06-2.68-0.02-5.39-0.09-7.08 1.29-2.05 2.26-4.02 3-5.78 0.59 2.05 1.24 4.97 1.4 8.51 0.19 4.29-0.43 7.45-1.09 10.68z"/>
				<path id="&lt;Path&gt;" class="s2" d="m537.19 905.82c-0.73 3.16-2.64 11.13-8.51 18.57l-0.24 0.41-4.78 8-9.43 15.78c-0.15 3.14-0.46 6.01-0.83 8.58-0.65 4.43-1.49 7.98-2.11 10.57-1.91 7.84-2.85 11.76-4.74 16.15-0.66 1.53-1.59 3.49-1.91 6.37-0.28 2.52 0.16 3.44 0.45 7.1-0.63-1.52-1.24-3.27-1.73-5.24-0.33-1.31-1.08-4.62-1.09-8.78-0.02-5.75 1.39-7.59 3.18-15.45 0.4-1.74 1.45-6.52 2.06-12.74q0.23-2.32 0.36-4.87c0.35-0.73 0.9-1.79 1.78-3.39 0.91-1.67 1.37-2.5 1.77-3.16 1.01-1.67 1.99-3.1 2.81-4.2 0.7-0.94 1.27-1.65 1.63-2.08l11.81-20.75c1.56-5.36 3.91-13.65 3.5-24.71-0.19-5.04-0.66-14.95-6.22-25.94-2.59-5.12-5.51-8.97-7.76-11.57 1.42 0.67 3.11 1.56 4.92 2.71 1.51 1.5 3.16 3.31 4.83 5.44 2.62 3.38 8.1 10.59 10.44 21.63 1.98 9.34 0.81 17.16-0.19 21.56z"/>
				<path id="&lt;Path&gt;" class="s4" d="m602.63 699.32c-0.67 5.98-2.17 10.78-3.38 13.98-2.8-2.05-4.83-3.95-6.15-5.27 0.63-2.35 1.27-5.28 1.72-8.65 0.27-1.97 0.52-3.85 0.67-5.7q1.31 0.51 2.77 1.21c-0.9-1.2-1.82-2.14-2.66-2.88 0.16-3.27-0.04-6.54-1.07-10.17q-0.24-0.86-0.65-2.11 0.92 0.08 1.76 0.2c-0.5-0.45-1.26-1.05-2.26-1.56-0.99-2.5-2.63-5.63-5.49-8.64q-0.26-0.27-0.52-0.53 1.04 0.06 1.74 0.18c-0.52-0.27-1.48-0.76-2.77-1.14-4.28-3.82-8.66-5.24-10.16-5.67-2.17-0.64-4.18-0.91-5.93-1 2.39-0.5 10.75-2.12 18.98 2.63q0.56 0.31 1.08 0.66 0.16 0.1 0.33 0.21c6.82 4.59 9.33 11.42 10.53 14.68 2.79 7.57 2.06 14.18 1.46 19.57z"/>
				<path id="&lt;Path&gt;" class="s4" d="m560.68 705.88c-1.18 5.1-6.46 8.05-7.77 8.78-1.24 0.7-2.46 1.19-3.81 1.57-0.59-1.51-1.34-3.34-2.28-5.38-1.11-2.4-2.73-5.85-5.21-9.79 0.49-0.44 0.79-0.73 0.87-0.8 2.14-2.07 5.04-5.33 7.69-10.08-2.99 3.85-5.98 6.08-8.19 7.43-0.82 0.49-1.32 0.74-1.96 1.03q-1.98-2.89-4.62-5.96-1.99-2.28-3.89-4.11 1.47-1.69 3.42-3.58-2.56 1.38-4.45 2.59c-3.45-3.23-6.33-5.25-7.54-6.09-0.66-0.44-1.57-1.04-2.72-1.74 1.26-2.62 2.98-5.83 5.28-9.35-1.66 1.49-3.83 3.61-6.15 6.35q-0.7 0.82-1.41 1.69c-3-1.65-7.03-3.55-11.9-5.1q-0.81-0.26-1.58-0.48 0.05-0.8 0.12-1.68-0.34 0.79-0.63 1.53c-6.54-1.83-11.64-2.2-13.06-2.28q-1.65-0.1-3.24-0.1-0.02-0.45-0.02-0.92c-0.01-3.15 0.36-5.82 0.76-7.8-0.98 1.44-2.3 3.73-3.03 6.78-0.16 0.67-0.27 1.31-0.34 1.98-5.21 0.2-9.88 1.08-13.82 2.17q-0.07-0.29-0.14-0.53-0.02 0.29-0.03 0.57c-3.33 0.93-6.15 2.02-8.33 2.98-11.26 4.94-17.94 11.89-19.34 13.4-0.52 0.55-1.29 1.4-2.21 2.5q-1.05-0.93-1.76-1.63c0.22 0.68 0.54 1.55 1.03 2.54-2.74 3.48-6.45 9.04-9.07 16.39-3.48 9.8-3.55 18.64-3.61 25.75q-0.01 3.37 0.11 5.96c-1.88-7.92-1.7-14.2-1.54-18.57 0.17-4.48 0.42-10.24 2.69-17.39 2.12-6.7 4.97-11.3 6.78-14.19 5.85-9.31 12.45-14.96 14.59-16.71 9.27-7.62 18.58-11.09 24.18-12.71 2.97-0.85 13.94-3.8 28.19-2 11.09 1.39 19.26 5.04 23.16 6.99 2.88 1.44 8.36 4.43 14.27 9.46 2.48 2.11 5.49 5.47 11.51 12.18 0.94 1.05 2.87 3.76 6.75 9.19 0.88 1.25 2.24 3.2 2.48 5.98q0 0.02 0.01 0.05 0 0.02 0 0.05v0.06q0.01 0.02 0.01 0.06c0.03 0.49 0.05 1.67-0.25 2.97z"/>
				<path id="&lt;Path&gt;" class="s4" d="m453.41 730.22c-0.01 1.35 0.1 2.55 0.26 3.56-1.38 0.06-2.97 0.2-4.7 0.48q0.28-1.91 0.56-3.25 0.45-2.3 1.07-4.37 1.44-0.02 3.13-0.06c-0.18 1.03-0.32 2.26-0.32 3.64z"/>
				<path id="&lt;Path&gt;" class="s4" d="m456.58 716.97c-0.54 0.72-1.16 1.67-1.69 2.85-0.44 0.96-0.72 1.86-0.9 2.62q-0.87 0.21-2.14 0.47c0.99-2.57 2.08-4.78 3.12-6.59q0.95 0.39 1.61 0.65z"/>
				<path id="&lt;Path&gt;" class="s4" d="m455.01 743.65c-1.13 0.31-2.7 0.82-4.49 1.63q-0.74 0.33-1.7 0.81c-0.41-3.13-0.4-6-0.22-8.47q0.34 0 0.7 0c1.19 0 2.88 0 4.92 0q-0.02 1.32 0.18 2.95c0.14 1.16 0.37 2.19 0.61 3.08z"/>
				<path id="&lt;Compound Path&gt;" fill-rule="evenodd" class="s3" d="m566.91 704.21c0.91 0.16 2.05 0.16 3.85 0.64 3.38 0.91 5.69 2.62 7.11 3.67 1.42 1.05 1.05 1.02 5.18 5.01 3.05 2.94 4.57 4.41 5.83 5.24 2.23 1.48 3.14 1.56 4.95 3.27 0.83 0.77 3 2.86 2.51 4.52-0.29 0.99-0.95 1.44-0.95 1.44-0.48 0.32-0.78 0.22-1.13 0.58-0.39 0.41-0.51 1.04-0.41 1.54 0.16 0.78 0.87 1.24 1.11 1.39 1.92 1.26 3.57 2.92 5.61 3.97 2.5 1.28 4.07 2.62 6.95 5.1 3.76 3.23 6.87 6.92 6.88 6.94 1 1.19 1.76 2.19 3.22 3.49 1.65 1.47 3.22 2.45 4.31 3.05-1.3-0.22-3.17-0.45-5.42-0.39-2.26 0.06-3.44 0.1-4.85 0.68-3.39 1.4-4.88 4.6-5.13 5.15-0.71 1.59-0.84 3.1-1.07 6.12-0.11 1.43-0.13 2.62-0.11 3.46-0.34-0.07-2.37-0.38-4.16 1-1.76 1.36-1.97 3.36-2.04 3.96-0.05 0.51-0.11 1.02 0.12 1.61 0.38 1.06 1.32 1.59 2.21 2.08-0.13 0.21-0.04 0.55 0.17 0.93 0.31 0.54 0.89 1.16 1.48 1.59 0.99 0.73 2.01 0.92 3.38 1.17 1.24 0.22 2.27 0.26 2.95 0.26q-0.82 0.08-1.63 0.17c-0.01 0-0.87 0.09-2.35 0.02-0.66 0.33-1.24 0.8-1.65 1.45-0.26 0.43-0.45 0.93-0.54 1.46-1.66-0.56-4.12-1.35-6.76-2.04-4.75-1.24-8.83-2.31-14.34-2.36-4.63-0.05-9.49 0.62-12.09 1.19 0.25-0.5 0.4-1.03 0.17-1.35-0.37-0.53-1.6-0.23-1.98-0.15-1.51 0.32-4.36-0.09-10.06-0.9-5.74-0.82-9.98-6.17-12.54-9.4-4.64-5.85-6.11-11.96-6.64-15.3-0.27 0.88-0.62 2.18-0.86 3.79q-0.17-1.46-0.23-3.05c-0.52 1.73-1.21 4.15-1.9 7.06-0.93 3.91-2.52 10.61-2.92 18.26-0.53 10.43 1.37 18.49 2.53 23.23 2.4 9.84 5.91 17.03 7.34 19.81 4.31 8.37 6.98 10.16 11.65 19.23 3.13 6.06 5.04 11.29 6.14 14.6 0.12-1.77 0.16-4.31-0.28-7.31-0.53-3.67-1.54-6.35-2.05-7.68-4.05-10.54-5.6-13.02-7.34-18.1-2.56-7.45-3.19-13.74-3.73-19.08-0.53-5.24-0.6-9.79-0.5-13.39 0.99 2.12 2.52 5.07 4.73 8.39 1.47 2.19 6.49 9.4 15.19 15.96 5.03 3.79 9.54 6.04 11.46 6.95 0.73 0.35 1.37 0.63 1.84 0.84 0.36 3.36 0.74 7.62 0.99 12.56 0.2 3.9 0.41 8.1 0.27 13.24-0.08 3.07-0.4 10.78-2.29 20.63-1.98 10.33-2.97 15.5-5.86 19.92-0.83 1.27-2.35 3.37-1.91 3.81 0.16 0.15 0.53 0.1 1.04-0.11q-1.17 2.07-2.09 3.6c1.65-0.7 3.81-1.77 6.14-3.42 3.91-2.76 6.22-5.67 7.5-7.3q1.3-1.68 2.32-3.31c0.07 1.69 0.15 4.4 0.08 7.08-0.1 4.47-0.19 8.18-1.12 12.54-0.56 2.63-1.6 6.3-3.68 10.52q-0.43-3.2-0.87-6.41c-0.61 1.69-1.51 4.03-2.75 6.76-1.8 3.93-4.76 10.33-10.29 17.16-2.35 2.9-5.81 6.67-10.61 10.49 2.88-3.87 4.56-7.39 5.56-9.87 2.52-6.3 3.07-12.02 3.53-16.85 0.22-2.37 0.31-4.34 0.35-5.67-1.83 6.44-4.34 11.22-6.29 14.37-2.76 4.45-2.45 2.52-13.87 15.73-2.43 2.82-5.39 6.31-10.56 9.12-1.57 0.86-2.94 1.43-3.88 1.79 0.98-1.09 2.31-2.65 3.76-4.63 1.06-1.44 5.89-8.14 9.36-18.99 1.53-4.75 4.28-13.62 3.73-25.4-0.24-5.24-1-18.16-9.24-30.57-2.43-3.65-6.88-10.17-15.22-14.29-1.99-0.97-3.73-1.59-4.98-1.98q1.3 1.12 2.88 2.67c-1.83-1.15-3.51-2.03-4.94-2.71 2.25 2.6 5.18 6.45 7.77 11.57 5.56 11 6.03 20.9 6.22 25.95 0.41 11.06-1.94 19.35-3.5 24.7l-11.82 20.75c-0.35 0.43-0.93 1.14-1.62 2.09-0.82 1.1-1.8 2.52-2.81 4.2-0.4 0.66-0.86 1.49-1.77 3.15-0.88 1.6-1.43 2.66-1.78 3.39q-0.13 2.56-0.36 4.87c-0.62 6.23-1.66 11-2.06 12.74-1.79 7.86-3.2 9.7-3.18 15.46 0.01 4.14 0.76 7.46 1.09 8.78 0.49 1.96 1.09 3.71 1.72 5.24q0.06 0.68 0.1 1.51c0.2 3.66 0.29 5.49-0.19 7.85-0.82 4.01-2.63 6.56-3.42 7.57-1.41 1.8-3.19 4.09-5.24 3.84-1.56-0.18-2.48-1.75-3.92-4.19-0.95-1.61-2.45-4.2-2.92-8.04l-5.43-15.62c-0.63-2.81-1.52-6.77-2.6-11.53-3.77-16.54-4.26-18.1-4.74-19.54-0.46-1.34-0.94-2.66-1.49-4.07q0.27-1.64 0.4-3.58c0.22-3.35 0.01-6.56-0.7-10.71-1.31-7.7-2.52-8.02-3.84-14.57-0.21-1.03-2.19-11.07-1.17-19.93 0.12-1.07 0.53-4.25 0.52-8.6 0-1.49-0.06-2.79-0.11-3.82q0.92-2.11 1.73-3.69c-1.53 1.49-3.6 3.69-5.67 6.64-3.73 5.27-5.39 9.92-6.99 14.52-1.53 4.36-3.27 10.45-4.28 17.98-0.06 0.29-0.18 0.76-0.39 1.32-0.63 1.71-1.62 2.86-2.29 3.57-5.2 5.56-9.04 8.07-9.05 8.08-3.14 2.05-8.39 5-15.77 7.11 1.38 0.19 3.33 0.4 5.67 0.5 4.16 0.19 9.32 0.42 15.23-1.32 2.23-0.65 5.37-1.83 8.85-4.03 0.16 0.18 0.36 0.46 0.51 0.85 0.39 1.07 0 2.07-0.2 2.56-0.66 1.67-2.11 2.67-3.45 3.62-5.51 3.86-5.28 3.73-5.47 3.84-5.62 3.13-11.79 4.17-16.55 4.94-2.84 0.45-6.68 1.05-11.84 1.12-5.15 0.07-13.14 0.1-22.53-3.3-4.09-1.49-9.41-3.47-14.8-8.27-5.49-4.9-8.3-10.27-10.09-13.79-2.12-4.14-3.35-7.83-4.08-10.49-0.51 5.68-1.1 10.76-1.68 15.15-1.11 8.51-1.89 14.31-3.73 21.83-1.2 4.92-2.2 9.02-4.43 14.41-2.94 7.14-6.24 12.16-8.11 14.99-1.51 2.27-4.71 6.89-9.55 12.15-3.63 3.94-7.11 7.09-10.06 9.52 1.75-2.08 2.87-4 3.57-5.4 1.54-3.05 2.17-5.73 2.92-8.89 0.5-2.15 0.81-3.96 1-5.25-0.94 1.98-2.35 4.66-4.31 7.69-0.97 1.5-4.31 6.55-11.41 13.56-7.74 7.64-14.8 12.54-17.49 14.33-8.4 5.65-12.6 8.46-16.27 9.99-0.02 0-6.36 2.64-10.25 6.95-0.76 0.83-1.43 1.74-1.44 1.74-1.83 2.46-2.73 4.64-3.22 5.83-3.97 9.6-3.46 8.08-4.51 10.92-0.87 2.34-1.99 5.48-3.22 9.24 2.69-13.33 4.43-22.58 4.73-25.79 0.06-0.56 0.16-2.01 1.01-3.57 0.29-0.52 0.95-1.59 3.34-3.62 1.23-1.03 1.85-1.55 3.3-2.48 3.66-2.34 8.94-7.24 12.04-10.52 4.98-5.27 7.8-10.04 10.1-13.91 3.22-5.43 5.23-8.81 6.41-13.98 0.46-2.03 0.72-4.47 1.24-9.36 0.38-3.62 0.72-6.76 0.85-10.8 0.09-2.69 0.05-4.39-0.02-5.88q0.36-1.31 0.88-3.52c0.51-2.12 0.82-3.7 1.47-7.02 0.65-3.26 0.97-4.89 1.05-5.25 0.06-0.25 0.98-4.3 2.61-8.7 0.6-1.63 2.42-6.33 6.4-12.77 2.86-4.63 7.8-12.5 16.78-20.47 1.48-1.31 8.4-7.37 19.19-12.82 7.29-3.68 13.91-5.85 18.99-7.18-0.77 1.7-1.83 4.15-2.91 7.18-1.48 4.14-3.19 9.88-2.72 10.06 0.26 0.1 1.09-1.52 1.55-2.37 2.55-4.65 5.81-7.4 11.46-12.08 1.4-1.15 5.95-4.86 14.33-10.13 8.84-5.56 9.54-5.06 17.17-9.99 4.08-2.63 7.77-5.43 15.14-11.02 5.35-4.06 8.3-6.48 11.62-9.95q1.54-1.62 2.72-3v0.2c-0.04 4.94-0.04 8.56 1.43 12.71 0.87 2.44 1.97 4.3 2.76 5.47q-0.03-0.67-0.05-1.42c0.34-0.62 0.78-2.61 2.19-6.65 0.2-0.58 2.1-6.02 4.95-12.06 0.77-1.63 2.18-4.63 3.96-7.64 2.18-3.66 6.57-10.91 14.74-16.83 4.81-3.48 9.05-6.55 15.32-6.94 6.66-0.4 12.33 2.41 14.74 3.62 2.89 1.43 5.08 3.02 6.53 4.19-5.6-8.04-7.02-15.01-7.46-18.87-0.77-6.8-1.42-12.61 1.05-18.88 0.49-1.25 1.99-4.76 0.93-5.59-0.29-0.23-0.92-0.16-2.03 0.1 1.19-0.89 2.14-1.12 4.28-2.47 4-2.51 6.48-5.37 7.96-7.11 1.77-2.07 4.66-5.43 6.45-10.68 1.7-4.95 1.68-9.41 1.67-12.69 0-1.73-0.1-3.18-0.19-4.2 1.3-2.14 3.27-4.81 6.17-7.34 1.36-1.18 2.69-2.14 3.93-2.91-0.79-0.05-1.99-0.19-3.39-0.62-3.01-0.96-4.46-2.59-8.3-5.98-3.77-3.33-5.69-5-7.39-5.71-2.38-1-4.56-1.21-7.45-1.48-2.94-0.27-5.41-0.2-7.18-0.08 1.45 1.07 3.54 2.59 6.09 4.36 3.43 2.37 5.15 3.56 7.11 4.66 2.14 1.2 5.3 2.73 9.48 3.96-1.79 0.41-4.57 0.87-7.93 0.66-2.65-0.17-10.61-0.66-16.43-6.92-3.6-3.87-4.84-8.29-5.32-10.91q0.59-0.18 1.17-0.33-0.13 0.19-0.12 0.38c0.04 0.49 0.8 0.8 1.11 0.94 1.36 0.57 2.73 0.19 3.03 0.11 2.49-0.65 5.16 0.04 7.75 0 4.83-0.06 9.18 1.61 12.29 2.8 5.41 2.07 9.47 4.85 12.17 7.05-0.92-1.42-2.26-3.32-4.08-5.41q-1.12-1.31-2.15-2.44c0.97 0.5 1.94 1 2.86 1.6 0.16 0.1 0.52 0.34 1.04 0.47 1.47 0.34 2.81-0.53 3.5-0.93 0.75-0.44 2.44-0.97 5.83-2.02 2.73-0.85 3.79-0.62 6.91-1.09 2.25-0.34 4.94-0.74 7.69-1.82q0.94-0.37 1.9-0.86c4.86-2.51 7.33-6.38 9.75-10.18 1.52-2.39 2.11-3.93 2.23-5.51zm8.76 26.4c0.05 2.1-0.02 4.57-0.59 4.67-0.31 0.05-0.58-0.66-0.99-1.25-2.16-3.11-7.84-2.81-8.6-2.75-2.78 0.18-2.48 1.02-7.02 1.91-3.47 0.69-5.49 0.55-5.59 1.17-0.09 0.56 1.48 1.05 4.09 2.34q0.11 0.05 0.22 0.11-0.13 0.11-0.22 0.24c-1.01 1.55-0.05 3.86 0.32 4.76q0.34 0.81 0.8 1.45 0.08 0.13 0.17 0.25 0.09 0.11 0.18 0.22c1.37 1.67 3.14 2.41 3.73 2.65 2.72 1.13 5.15 0.55 10.02-0.63 3.84-0.92 4.74-1.8 5.07-2.69q0.11-0.32 0.13-0.63c0.79 0.27 1.82 0.57 3.29 1.36 2.31 1.24 3.92 2.73 4.92 3.67 0.9 0.84 1.6 1.6 2.09 2.17-0.28-0.93-0.83-2.44-1.84-4.09-2.78-4.55-6.09-5.24-8.43-9.35-0.64-1.13-1.45-2.95-1.75-5.59zm-9.41-7.39q-0.56 0-1.22 0.05-0.36 0.02-0.75 0.06-0.13 0.02-0.26 0.04-0.13 0.01-0.26 0.03c-1.02 0.15-2.16 0.4-3.37 0.82q-0.06 0.02-0.13 0.04-0.93 0.33-1.91 0.81c-1.47 0.71-2.89 1.64-3.95 2.49q-0.11 0.08-0.2 0.16c-1.11 0.92-1.78 1.73-1.61 2.05q0.11 0.19 0.61 0.11 0.06 0 0.11-0.01 0.05-0.01 0.11-0.03 0.46-0.09 1.13-0.29 0.34-0.1 0.72-0.22 0.57-0.17 1.25-0.37 1.13-0.34 2.48-0.67 1.38-0.34 2.95-0.58 0.26-0.04 0.52-0.07 0.21-0.03 0.42-0.05 0.26-0.03 0.54-0.06 0.03 0 0.05 0 0.63-0.06 1.26-0.07 0.18-0.01 0.35-0.02 0.66-0.01 1.33 0.02c2.22 0.08 4.16 0.51 5.95 1.25 1.42 0.59 2.52 1.28 3.26 1.82q-0.04-0.75-0.07-1.51c0 0-0.22-1.47-1.06-2.75-1.44-2.2-5.16-2.67-6.26-2.88-0.31-0.06-1.01-0.15-1.99-0.16z"/>
				<path id="&lt;Path&gt;" class="s4" d="m462.41 756.76c-2.07 1.63-3.73 3.08-4.93 4.17q-1.26 1.14-2.19 2.08c-2.49-3.72-3.78-6.9-4.25-8.11q-1.16-3.07-1.74-5.94c1.63-0.69 2.81-0.95 3.5-1.08 1.58-0.3 2.93-0.33 3.87-0.29 0.54 1.69 1.49 3.92 3.14 6.2 0.87 1.2 1.77 2.18 2.6 2.98z"/>
				<path id="&lt;Path&gt;" class="s4" d="m477.49 768.38c-0.83 1.67-1.92 4.36-2.21 7.84q-0.08 1-0.07 1.91-1.98-0.61-4.12-1.56c-2.32-1.04-4.4-2.27-6.25-3.6q-1.85-1.34-0.01 0c-3.35-2.42-5.99-5.19-8.02-7.84 1.37-1.14 3.29-2.56 5.71-3.88 1.12-0.6 2.1-1.05 2.83-1.36 0.77 0.94 1.76 1.99 3 3.02q0.99 0.82 1.92 1.43c-1.1 1.14-2.37 2.68-3.52 4.69-0.76 1.32-1.32 2.57-1.72 3.67 1.38-0.96 2.45-1.81 3.17-2.42 0.86-0.72 2.33-2.01 4.23-2.99 0.49-0.26 1.18-0.58 1.95-0.42 0.44 0.1 0.65 0.3 1.31 0.68 0.44 0.25 1.05 0.56 1.8 0.84z"/>
				<path id="&lt;Path&gt;" class="s4" d="m490.37 779.23c-2.25 0.4-3.83 0.46-4.25 0.48-0.95 0.03-4.7 0.11-9.57-1.2 0.58-1.74 1.37-3.6 2.46-5.5q0.8-1.38 1.63-2.53 1.34 0.22 2.82 0.37 3 0.3 5.54 0.24 0.31 3.02 0.99 6.4 0.18 0.89 0.38 1.73z"/>
				<path id="&lt;Path&gt;" class="s4" d="m503.5 774.15c-4.52 2.96-9.26 4.34-12.66 5 0.2-1.01 0.31-2.15 0.52-5.17 0.02-0.24 0.05-0.72 0.23-1.31 0.17-0.55 0.4-0.97 0.56-1.22 2.86 0.17 4.28-0.13 5.04-0.47 0.7-0.31 1.45-0.52 2.18-0.79 0.15-0.05 0.52-0.19 1.02-0.23 0.35-0.03 0.65 0 0.85 0.03 0.66 0.64 1.44 1.6 1.91 2.92 0.18 0.47 0.28 0.9 0.35 1.24z"/>
				<path id="&lt;Path&gt;" class="s4" d="m513.3 763.39q-0.9 1.76-2.25 3.62c-2.12 2.91-4.6 5.15-7.16 6.88 0.03-0.59 0.03-1.38-0.03-2.16-0.1-1.16-0.32-2.1-0.5-2.74 0.73-0.35 1.84-0.9 3.18-1.6 2.92-1.55 5.01-2.68 6.76-4z"/>
				<path id="&lt;Compound Path&gt;" class="s0" d="m585.86 745.54c-2.78-4.54-6.09-5.24-8.43-9.35-0.64-1.13-1.46-2.94-1.75-5.58 0.04 2.1-0.02 4.57-0.59 4.67-0.32 0.05-0.58-0.66-1-1.25-2.15-3.11-7.84-2.8-8.59-2.75-2.78 0.18-2.48 1.02-7.02 1.91-3.47 0.69-5.49 0.55-5.59 1.17-0.09 0.56 1.47 1.05 4.09 2.34q0.1 0.05 0.21 0.11c5.73 2.84 5.49 4.06 8.22 4.39 0.74 0.1 5.34 0.67 7.43-1.58 0.27-0.29 0.78-0.93 1.33-0.83 0.71 0.11 0.77 1.29 1.42 2.33 0.48 0.76 1.02 1.03 1.81 1.31 0.78 0.28 1.82 0.57 3.29 1.36 2.31 1.24 3.92 2.74 4.92 3.68 0.9 0.83 1.6 1.6 2.09 2.17-0.28-0.94-0.83-2.44-1.84-4.1zm-12.97-8.41c-0.14 0.41-0.44 0.73-0.82 0.99q-0.35 0.23-0.78 0.41-0.09 0.03-0.2 0.07-0.11 0.05-0.22 0.08-0.06 0.02-0.12 0.03-0.36 0.11-0.72 0.18-0.13 0.03-0.26 0.05-0.42 0.07-0.79 0.11c-0.48 0.05-0.86 0.06-1.04 0.07-1.06 0.03-3.07 0.08-5.05-1.27q-0.8-0.57-1.34-1.18c-0.67-0.75-1.34-1.36-1.54-1.8q0.31-0.11 0.64-0.22c0.84-0.29 1.68-0.57 2.21-0.73q0.48-0.15 0.92-0.27 0.11-0.03 0.21-0.05 0.36-0.09 0.69-0.17 0.08-0.02 0.17-0.04 0.08-0.01 0.16-0.03 0.12-0.03 0.24-0.04 0.06-0.02 0.12-0.03 0.06-0.01 0.13-0.02 0.1-0.02 0.19-0.03 0.1-0.02 0.2-0.03 0.27-0.03 0.51-0.04 0.06 0 0.12 0 0.77-0.02 1.29 0.18c0.2 0.08 0.74 0.21 0.81 0.32 0.04 0.07-0.09 0.13-0.59 0.17q-0.45 0.04-0.75 0.21c-1.2 0.68-0.82 2.72 0.17 3.01q0.21 0.05 0.47 0.1 0.09 0.02 0.17 0.03 0.01 0 0.02 0 0.09 0.01 0.18 0.02c0.6 0.06 1.32 0 1.97-0.33q0.01-0.01 0.03-0.02 0.04-0.02 0.08-0.04 0.09-0.05 0.16-0.1 0.46-0.32 0.77-0.63 0.07-0.07 0.13-0.13 0.2-0.21 0.37-0.36 0.05-0.05 0.1-0.09 0.1-0.09 0.19-0.14c0 0 0.04-0.03 0.06-0.04q0.03-0.01 0.05-0.02 0.02-0.01 0.04-0.02 0.09-0.03 0.19-0.01 0.04 0 0.07 0.02c0.44 0.18 0.64 1.11 0.38 1.82z"/>
				<path id="&lt;Path&gt;" class="s5" d="m572.89 737.13c-0.14 0.41-0.44 0.73-0.82 0.99q-0.35 0.23-0.78 0.41-0.1 0.03-0.2 0.07-0.11 0.05-0.23 0.08-0.05 0.02-0.11 0.03-0.37 0.11-0.73 0.18-0.12 0.03-0.25 0.05-0.42 0.07-0.79 0.11c-0.48 0.05-0.87 0.06-1.05 0.07-1.05 0.03-3.06 0.08-5.04-1.27q-0.8-0.57-1.34-1.18c-0.68-0.75-1.34-1.36-1.55-1.8q0.32-0.11 0.65-0.22c0.83-0.29 1.68-0.57 2.2-0.73q0.49-0.15 0.93-0.27 0.11-0.03 0.21-0.05 0.36-0.09 0.69-0.17 0.08-0.02 0.16-0.04 0.08-0.01 0.17-0.03 0.12-0.03 0.24-0.04 0.05-0.02 0.11-0.03 0.07-0.01 0.14-0.02 0.1-0.02 0.2-0.03 0.1-0.02 0.19-0.03 0.28-0.03 0.51-0.04 0.06 0 0.12 0 0.77-0.02 1.29 0.18c0.2 0.08 0.74 0.21 0.81 0.32 0.05 0.07-0.09 0.13-0.59 0.17q-0.45 0.04-0.74 0.21c-1.21 0.68-0.82 2.72 0.17 3.01q0.2 0.05 0.46 0.1 0.08 0.02 0.17 0.03 0.02 0 0.03 0 0.08 0.01 0.17 0.02c0.6 0.06 1.32 0 1.97-0.33q0.02-0.01 0.04-0.02 0.03-0.02 0.07-0.04 0.09-0.05 0.17-0.1 0.45-0.32 0.76-0.63 0.07-0.07 0.13-0.13 0.21-0.21 0.37-0.36 0.05-0.05 0.1-0.09 0.09-0.09 0.19-0.14c0 0 0.05-0.03 0.07-0.04q0.02-0.01 0.04-0.02 0.02-0.01 0.04-0.02 0.1-0.03 0.2-0.01 0.03 0 0.06 0.02c0.44 0.18 0.64 1.11 0.39 1.82z"/>
				<path id="&lt;Path&gt;" class="s2" d="m575.64 730.52c-0.74-0.54-1.83-1.23-3.26-1.82-1.79-0.74-3.72-1.17-5.94-1.25-7.2-0.28-13.37 3.18-13.84 2.31-0.33-0.63 2.61-3.16 5.76-4.69 4.79-2.33 8.99-1.86 9.9-1.69 1.1 0.21 4.81 0.67 6.25 2.88 0.85 1.28 1.07 2.75 1.07 2.75q0.03 0.76 0.06 1.51z"/>
				<path id="&lt;Path&gt;" class="s2" d="m577.4 742.43q-0.02 0.31-0.14 0.63c-0.32 0.9-1.22 1.77-5.07 2.7-4.87 1.17-7.3 1.76-10.02 0.62-0.78-0.32-3.62-1.51-4.88-4.57-0.37-0.89-1.32-3.2-0.31-4.75q0.08-0.14 0.21-0.25c5.73 2.85 5.49 4.07 8.22 4.4 0.74 0.09 5.34 0.66 7.42-1.59 0.27-0.29 0.79-0.92 1.35-0.83 0.7 0.12 0.76 1.3 1.41 2.34 0.47 0.76 1.01 1.03 1.81 1.31z"/>
				<path id="&lt;Path&gt;" class="s2" d="m475.63 951.57q-0.13 1.93-0.39 3.58c-1.31-3.37-2.96-7.19-5.36-12.75-1.52-3.53-2.2-4.96-3.03-7.57-2.11-6.65-2.42-12.1-2.48-13.52-0.4-8.72 1.71-15.4 3.41-20.66 0.83-2.53 1.71-4.78 2.55-6.71 0.06 1.03 0.11 2.33 0.11 3.82 0.02 4.34-0.4 7.53-0.52 8.6-1.02 8.86 0.96 18.9 1.17 19.93 1.32 6.55 2.53 6.87 3.84 14.56 0.71 4.15 0.92 7.36 0.7 10.72z"/>
			</g>
			<g id="ROOFING">
				<path id="&lt;Compound Path&gt;" class="s1" d="m1000 1121.77v-120.12h47.39q13.61 0 23.23 4.86 9.69 4.82 14.73 13.67 5.1 8.8 5.1 20.71c0 7.94-1.72 14.84-5.16 20.58q-5.17 8.57-14.96 13.14-9.75 4.58-23.58 4.58h-31.74v-20.42h27.63q7.28 0 12.09-1.98 4.81-2 7.15-5.99 2.41-3.98 2.41-9.91c0-3.96-0.81-7.35-2.41-10.1q-2.34-4.1-7.21-6.21-4.82-2.17-12.14-2.17h-17.13v99.36h-25.4zm64.87-54.67l29.86 54.67h-28.04l-29.21-54.67h27.39z"/>
				<path id="&lt;Compound Path&gt;" class="s1" d="m1218.78 1061.7q0 19.66-7.44 33.44-7.4 13.79-20.18 21.06-12.73 7.22-28.63 7.22c-10.61 0-20.25-2.43-28.74-7.28q-12.72-7.27-20.11-21.06-7.4-13.77-7.4-33.38 0-19.62 7.4-33.43 7.39-13.78 20.11-20.99 12.73-7.28 28.74-7.28c10.67 0 20.14 2.43 28.63 7.28q12.78 7.21 20.18 20.99 7.44 13.8 7.44 33.43zm-25.75 0q0.01-12.72-3.81-21.46-3.75-8.75-10.62-13.25-6.86-4.52-16.07-4.52-9.21 0-16.07 4.52-6.86 4.5-10.68 13.25-3.75 8.74-3.74 21.46-0.01 12.73 3.74 21.47 3.82 8.75 10.68 13.26 6.87 4.52 16.07 4.52 9.2 0 16.07-4.52 6.87-4.51 10.62-13.26 3.82-8.73 3.81-21.47z"/>
				<path id="&lt;Compound Path&gt;" class="s1" d="m1347.99 1061.7q0 19.66-7.45 33.44-7.39 13.79-20.18 21.06-12.73 7.22-28.62 7.22c-10.59 0-20.26-2.43-28.75-7.28q-12.72-7.27-20.11-21.06-7.39-13.77-7.39-33.38 0-19.62 7.39-33.43 7.39-13.78 20.11-20.99 12.74-7.28 28.75-7.28c10.68 0 20.13 2.43 28.62 7.28q12.79 7.21 20.18 20.99 7.45 13.8 7.45 33.43zm-25.75 0q0-12.72-3.81-21.46-3.76-8.75-10.62-13.25-6.86-4.52-16.07-4.52-9.21 0-16.07 4.52-6.87 4.5-10.68 13.25-3.75 8.74-3.75 21.46 0 12.73 3.75 21.47 3.81 8.75 10.68 13.26 6.86 4.52 16.07 4.52 9.21 0 16.07-4.52 6.86-4.51 10.62-13.26 3.81-8.73 3.81-21.47z"/>
				<path id="&lt;Path&gt;" class="s1" d="m1366.81 1121.77v-120.12h79.53v20.93h-54.13v28.63h48.85v20.94h-48.85v49.62z"/>
				<path id="&lt;Path&gt;" class="s1" d="m1488.82 1001.65v120.12h-25.4v-120.12z"/>
				<path id="&lt;Path&gt;" class="s1" d="m1610.19 1001.65v120.12h-21.93l-52.26-75.6h-0.88v75.6h-25.4v-120.12h22.29l51.84 75.54h1.06v-75.54h25.28z"/>
				<path id="&lt;Path&gt;" class="s1" d="m1710.83 1040.48q-1.23-4.29-3.46-7.57-2.22-3.35-5.46-5.63-3.16-2.35-7.26-3.58-4.05-1.24-8.98-1.23-9.21-0.01-16.19 4.58-6.92 4.56-10.79 13.31-3.87 8.68-3.87 21.23-0.01 12.55 3.81 21.35 3.81 8.81 10.79 13.43 6.99 4.59 16.48 4.58 8.64 0 14.72-3.06 6.16-3.1 9.39-8.73 3.29-5.63 3.29-13.31l5.16 0.76h-30.98v-19.13h50.27v15.14q0 15.83-6.68 27.22-6.68 11.32-18.42 17.48-11.72 6.1-26.87 6.1-16.88 0-29.67-7.45-12.79-7.51-19.95-21.3-7.09-13.84-7.09-32.84 0-14.61 4.22-26.05 4.27-11.49 11.97-19.46 7.67-7.99 17.88-12.16 10.21-4.15 22.12-4.16 10.21 0 19 3 8.8 2.93 15.61 8.33 6.85 5.39 11.2 12.84 4.34 7.39 5.57 16.31h-25.81z"/>
			</g>
			<g id="INTERMOUNTAIN">
				<path id="&lt;Path&gt;" class="s0" d="m781.03 784.97v172h-27.03v-172z"/>
				<path id="&lt;Path&gt;" class="s0" d="m858.53 956.97l-33.66-124.58v124.58h-24.32v-172h33.91l27.77 102.95v-102.95h24.08v172h-27.77z"/>
				<path id="&lt;Path&gt;" class="s0" d="m897.79 809.54v-24.57h83.55v24.57h-28.26v147.43h-27.03v-147.43z"/>
				<path id="&lt;Path&gt;" class="s0" d="m1020.27 809.54v47.91h37.1v24.58h-37.1v50.37h46.68v24.57h-73.71v-172h73.71v24.57h-46.68z"/>
				<path id="&lt;Compound Path&gt;" class="s0" d="m1167.74 956.97h-27.53q-2.45-7.37-2.45-21.13v-27.03q-0.01-11.8-4.18-16.71-4.18-5.16-13.51-5.16h-9.34v70.03h-27.03v-172h40.79q20.88 0 30.47 9.83 9.58 9.58 9.58 29.73v13.51q0 26.54-17.69 34.89 17.94 7.62 17.94 36.61v26.54q0.01 14.01 2.95 20.89zm-43.99-147.43h-13.02v52.83h10.57q8.1 0 12.04-4.18 4.18-4.18 4.17-14.01v-16.95q0.01-17.69-13.76-17.69z"/>
				<path id="&lt;Path&gt;" class="s0" d="m1219.91 784.97l19.9 122.12 18.43-122.12h37.6v172h-25.55v-123.35l-18.68 123.35h-25.55l-20.15-121.63v121.63h-23.58v-172h37.59z"/>
				<path id="&lt;Compound Path&gt;" class="s0" d="m1313.29 915.69v-89.45q0-20.63 10.57-31.94 10.57-11.3 30.47-11.3 19.91 0 30.47 11.3 10.57 11.31 10.57 31.94v89.45q0 20.64-10.57 31.94-10.56 11.31-30.47 11.31-19.9 0-30.47-11.31-10.56-11.3-10.57-31.94zm27.03-91.16v92.88q0 16.95 14 16.95 14.02 0 14.02-16.95v-92.88q0-16.96-14.02-16.96-14 0-14 16.96z"/>
				<path id="&lt;Path&gt;" class="s0" d="m1411.69 784.97h27.03v132.68q0 16.71 14.01 16.71 14.01 0 14-16.71v-132.68h25.56v130.96q0 20.89-10.32 32.19-10.32 11.06-29.98 11.06-19.66 0-29.97-11.06-10.33-11.3-10.33-32.19v-130.96z"/>
				<path id="&lt;Path&gt;" class="s0" d="m1568.57 956.97l-33.66-124.58v124.58h-24.33v-172h33.91l27.77 102.95v-102.95h24.07v172z"/>
				<path id="&lt;Path&gt;" class="s0" d="m1607.83 809.54v-24.57h83.54v24.57h-28.26v147.43h-27.03v-147.43h-28.25z"/>
				<path id="&lt;Compound Path&gt;" class="s0" d="m1753.87 784.97l27.52 172h-27.28l-4.67-31.21h-33.17l-4.66 31.21h-24.82l27.52-172zm-21.13 30.47l-13.02 86.97h26.04l-13.02-86.97z"/>
				<path id="&lt;Path&gt;" class="s0" d="m1821 784.97v172h-27.02v-172z"/>
				<path id="&lt;Path&gt;" class="s0" d="m1898.51 956.97l-33.66-124.58v124.58h-24.33v-172h33.91l27.76 102.95v-102.95h24.09v172z"/>
			</g>
		</g>
	</g>
</svg>