<svg width="2175" height="712" viewBox="0 0 2175 712" fill="none" xmlns="http://www.w3.org/2000/svg">
<g clip-path="url(#clip0_6147_379)">
<path d="M476.8 712C465.4 712 454.5 710.5 444.2 707.6C434 704.7 426.1 700.9 420.4 696.2L431.5 676.5C436.9 680.8 443.8 684.3 452.2 686.9C460.8 689.3 469.8 690.5 479.1 690.5C490.8 690.5 499.7 688.8 505.8 685.3C512 681.7 515.1 676.7 515.1 670.3C515.1 665.1 512.6 661.4 507.6 659.2C502.8 657 495.2 654.7 484.8 652.5C475.1 650.4 467.2 648.4 461 646.3C455 644.1 449.8 640.6 445.5 635.9C441.2 631.1 439 624.6 439 616.5C439 607.5 441.5 599.7 446.5 592.9C451.7 586.2 458.9 581 468.2 577.4C477.7 573.8 488.7 572 501.1 572C510.2 572 519.1 573.1 527.8 575.4C536.4 577.6 543.5 580.7 549 584.5L539.2 604.2C533.8 600.6 527.6 597.9 520.6 596.2C513.5 594.3 506.3 593.4 498.9 593.4C487.7 593.4 479.1 595.3 473 599.1C467 602.7 463.9 607.6 463.9 613.9C463.9 619.4 466.4 623.4 471.4 625.8C476.4 628 484.2 630.3 494.7 632.5C504.2 634.6 512 636.6 518 638.7C524 640.8 529.1 644.1 533.3 648.8C537.6 653.5 539.8 659.8 539.8 667.7C539.8 681.7 534 692.6 522.5 700.6C511 708.1 495.8 712 476.8 712Z" fill="black"/>
<path d="M587.3 649.6V651.2C587.3 664 590.9 673.7 598.2 680.5C605.4 687.1 616.3 690.3 630.8 690.3C639.3 690.3 647.2 688.9 654.6 686.2C662 683.3 668.2 679.4 673.2 674.6L683.8 692.5C677.1 698.7 668.9 703.5 659.2 707C649.5 710.5 639.4 712.2 628.7 712.2C615.2 712.2 603.6 709.8 593.8 705C584 699.9 576.4 693 571 684C565.6 675 563 664.5 563 652.4C563 637 566.3 623.2 572.8 611C579.5 598.7 588.8 589.2 600.5 582.3C612.4 575.4 625.7 571.9 640.4 571.9C659 571.9 673.9 577.3 684.9 588C696.1 598.5 701.7 612.9 701.7 631.2C701.7 636.7 701.1 642.8 699.9 649.6H587.3ZM639.4 592.7C627.1 592.7 616.6 596.2 607.8 603.1C599 610 593 619.5 589.9 631.6H678.4C679.1 619.3 675.8 609.9 668.6 603.1C661.5 596.1 651.8 592.7 639.4 592.7Z" fill="black"/>
<path d="M768.6 593.7C774.6 586.1 782.1 580.6 790.9 577.1C799.7 573.6 810.4 571.9 823 571.9L818.3 596C816.7 595.8 814.6 595.7 811.8 595.7C783.3 595.7 766.1 611.1 760 641.8L746.3 710.4H721.4L748.6 573.2H772.4L768.6 593.7Z" fill="black"/>
<path d="M980.1 573.2L892.9 710.4H867.5L834.6 573.2H859.5L885.1 683.2L955 573.2H980.1Z" fill="black"/>
<path d="M1003.3 573.2H1028.1L1000.9 710.4H976L1003.3 573.2ZM1022.9 546.8C1018.4 546.8 1014.7 545.3 1011.8 542.4C1008.9 539.5 1007.4 535.9 1007.4 531.8C1007.4 527 1009 522.9 1012.3 519.6C1015.8 516.1 1020.1 514.4 1025.2 514.4C1029.7 514.4 1033.4 515.9 1036.3 518.8C1039.4 521.6 1041 524.9 1041 528.9C1041 534.2 1039.3 538.6 1035.8 541.8C1032.6 545.2 1028.3 546.8 1022.9 546.8Z" fill="black"/>
<path d="M1113.4 712C1100.3 712 1088.8 709.6 1079 704.8C1069.2 699.8 1061.6 692.9 1056.2 684.1C1050.9 675.1 1048.2 664.7 1048.2 652.8C1048.2 637.4 1051.6 623.6 1058.5 611.4C1065.4 599.1 1075 589.6 1087.2 582.7C1099.4 575.6 1113.4 572.1 1128.9 572.1C1156 572.1 1174.8 582 1185.3 601.9L1164.3 613.5C1157.1 600.4 1144.6 593.8 1127 593.8C1116.8 593.8 1107.6 596.3 1099.3 601.3C1091.2 606.1 1084.8 612.9 1080.1 621.8C1075.4 630.7 1073.1 640.6 1073.1 651.8C1073.1 663.9 1076.6 673.4 1083.7 680.3C1090.9 687 1101.1 690.4 1114.3 690.4C1122.6 690.4 1130.3 688.8 1137.3 685.5C1144.5 682.2 1150.5 677.4 1155.2 671L1173.3 683.9C1166.9 692.7 1158.4 699.6 1147.7 704.6C1137.1 709.5 1125.6 712 1113.4 712Z" fill="black"/>
<path d="M1218.3 649.6V651.2C1218.3 664 1221.9 673.7 1229.2 680.5C1236.4 687.1 1247.3 690.3 1261.8 690.3C1270.3 690.3 1278.2 688.9 1285.6 686.2C1293 683.3 1299.2 679.4 1304.2 674.6L1314.8 692.5C1308.1 698.7 1299.9 703.5 1290.2 707C1280.5 710.5 1270.3 712.2 1259.6 712.2C1246.1 712.2 1234.5 709.8 1224.7 705C1214.9 700.2 1207.3 693.3 1201.9 684.3C1196.6 675.3 1193.9 664.8 1193.9 652.7C1193.9 637.3 1197.2 623.5 1203.7 611.3C1210.4 599 1219.7 589.5 1231.4 582.6C1243.3 575.7 1256.6 572.2 1271.3 572.2C1289.9 572.2 1304.8 577.6 1315.8 588.3C1327 598.8 1332.6 613.2 1332.6 631.5C1332.6 637 1332 643.1 1330.8 649.9H1218.3V649.6ZM1270.4 592.7C1258.1 592.7 1247.6 596.2 1238.8 603.1C1230 610 1224 619.5 1220.9 631.6H1309.4C1310.1 619.3 1306.8 609.9 1299.6 603.1C1292.6 596.1 1282.8 592.7 1270.4 592.7Z" fill="black"/>
<path d="M1395.8 712C1384.4 712 1373.5 710.5 1363.2 707.6C1353 704.7 1345.1 700.9 1339.4 696.2L1350.5 676.5C1355.9 680.8 1362.7 684.3 1371.2 686.9C1379.8 689.3 1388.8 690.5 1398.1 690.5C1409.8 690.5 1418.7 688.8 1424.8 685.3C1431 681.7 1434.1 676.7 1434.1 670.3C1434.1 665.1 1431.6 661.4 1426.6 659.2C1421.8 657 1414.2 654.7 1403.8 652.5C1394.1 650.4 1386.2 648.4 1380 646.3C1374 644.1 1368.8 640.6 1364.5 635.9C1360.2 631.1 1358 624.6 1358 616.5C1358 607.5 1360.5 599.7 1365.5 592.9C1370.7 586.2 1377.9 581 1387.3 577.4C1396.8 573.8 1407.8 572 1420.2 572C1429.4 572 1438.2 573.1 1446.9 575.4C1455.5 577.6 1462.6 580.7 1468.1 584.5L1458.3 604.2C1453 600.6 1446.7 597.9 1439.7 596.2C1432.6 594.3 1425.4 593.4 1417.9 593.4C1406.7 593.4 1398.1 595.3 1392 599.1C1386 602.7 1382.9 607.6 1382.9 613.9C1382.9 619.4 1385.4 623.4 1390.4 625.8C1395.4 628 1403.2 630.3 1413.7 632.5C1423.2 634.6 1431 636.6 1437 638.7C1443 640.8 1448.1 644.1 1452.3 648.8C1456.6 653.5 1458.8 659.8 1458.8 667.7C1458.8 681.7 1453 692.6 1441.5 700.6C1429.9 708.1 1414.7 712 1395.8 712Z" fill="black"/>
<path d="M1943.3 163.5C1943.3 203.6 1932.5 238 1910.8 266.6C1889.1 295.2 1859 315.5 1820.6 327.4L1884.7 441.4L1818.1 509.7L1723 339.7H1638.3L1614.4 460H1514.4L1600.3 30.4H1775.2C1828.4 30.4 1869.7 42.1 1899.2 65.4C1928.5 88.6 1943.3 121.3 1943.3 163.5ZM1738.3 260.4C1771.4 260.4 1797 252.8 1815 237.7C1833.4 222.6 1842.6 200.9 1842.6 172.7C1842.6 152.2 1835.6 136.9 1821.7 126.7C1807.8 116.5 1787.9 111.4 1762.2 111.4H1683.6L1653.5 260.5H1738.3V260.4Z" fill="black"/>
<path d="M2016.1 449.6L2108.2 614.7H2006.9L1952.9 513.4L1857.8 614.7H1748.6L1913.7 445.3L1855.8 339.2C1884.6 325.7 1905.2 310.4 1925.9 285.6L1977.5 381.5L2069.5 284.5H2175L2016.1 449.6Z" fill="black"/>
<path d="M428.5 163.7C428.5 203.8 417.7 238.1 396 266.7C374.3 295.3 344.3 315.5 305.9 327.4L380.7 459.8H275.9L208.5 339.6H123.9L99.9 459.8H0L85.8 30.7H260.5C313.6 30.7 354.9 42.2999 384.3 65.5999C413.8 88.8999 428.5 121.6 428.5 163.7ZM223.8 260.6C256.9 260.6 282.5 253 300.4 237.9C318.8 222.8 328 201.1 328 172.9C328 152.5 321.1 137.1 307.2 126.9C293.3 116.7 273.5 111.6 247.7 111.6H169.2L139.2 260.6H223.8Z" fill="black"/>
<path d="M617 464.7C583.9 464.7 554.7 458.6 529.3 446.3C504.4 434 485 416.9 471.1 394.8C457.6 372.3 450.9 346.4 450.9 316.9C450.9 280.5 459.5 247.8 476.6 218.8C493.8 189.8 517.5 166.9 547.7 150.1C577.9 133.3 612.1 125 650.1 125C683.6 125 712.8 131.1 737.8 143.4C762.7 155.7 781.9 173 795.4 195.5C809.3 217.6 816.2 243.3 816.2 272.7C816.2 309.1 807.6 341.8 790.5 370.8C773.7 399.8 750 422.7 719.4 439.5C689.1 456.3 655 464.7 617 464.7ZM623.1 385.6C641.5 385.6 658 381.1 672.8 372.1C687.5 362.7 699 349.8 707.1 333.5C715.3 317.2 719.4 298.4 719.4 277.1C719.4 254.6 712.9 236.8 699.8 223.8C686.7 210.7 668.3 204.2 644.6 204.2C625.8 204.2 609 208.9 594.3 218.3C579.6 227.3 568.1 240 560 256.3C551.8 272.6 547.7 291.4 547.7 312.7C547.7 335.2 554.2 353 567.3 366C580.8 379.1 599.4 385.6 623.1 385.6Z" fill="black"/>
<path d="M1018.1 464.7C985 464.7 955.8 458.6 930.4 446.3C905.5 434 886.1 416.9 872.2 394.8C858.7 372.3 852 346.4 852 316.9C852 280.5 860.6 247.8 877.7 218.8C894.9 189.8 918.6 166.9 948.8 150.1C979 133.3 1013.2 125 1051.2 125C1084.7 125 1113.9 131.1 1138.9 143.4C1163.8 155.7 1183.1 173 1196.5 195.5C1210.4 217.6 1217.3 243.3 1217.3 272.7C1217.3 309.1 1208.7 341.8 1191.5 370.8C1174.7 399.8 1151 422.7 1120.4 439.5C1090.2 456.3 1056.1 464.7 1018.1 464.7ZM1024.2 385.6C1042.6 385.6 1059.2 381.1 1073.9 372.1C1088.6 362.7 1100.1 349.8 1108.2 333.5C1116.4 317.2 1120.5 298.4 1120.5 277.1C1120.5 254.6 1114 236.8 1100.9 223.8C1087.8 210.7 1069.4 204.2 1045.7 204.2C1026.9 204.2 1010.1 208.9 995.4 218.3C980.7 227.3 969.2 240 961.1 256.3C952.9 272.6 948.8 291.4 948.8 312.7C948.8 335.2 955.3 353 968.4 366C981.9 379.1 1000.5 385.6 1024.2 385.6Z" fill="black"/>
<path d="M1470.7 75.4C1456 75.4 1444.3 79.5 1435.8 87.7C1427.6 95.5 1421.9 107.9 1418.6 125.1L1416.1 137.4H1500.1L1485.4 211H1403.9L1354.2 459.9H1258.6L1308.3 211H1256.8L1271.5 137.4H1323L1326.7 118.4C1334.5 81.6 1350.4 52.8 1374.5 32C1399 10.6 1430.9 0 1470.1 0C1484.8 0 1498.7 1.6 1511.8 4.9C1525.3 8.2 1536.7 12.7 1546.1 18.4L1508.7 87.1C1498.5 79.3 1485.8 75.4 1470.7 75.4Z" fill="black"/>
</g>
<defs>
<clipPath id="clip0_6147_379">
<rect width="2175" height="712" fill="white"/>
</clipPath>
</defs>
</svg>
