<svg width="200" height="66" viewBox="100 705 400 131" fill="none" xmlns="http://www.w3.org/2000/svg">
<path d="M187.687 836C185.59 836 183.586 835.724 181.691 835.19C179.816 834.657 178.363 833.958 177.314 833.093L179.356 829.468C180.349 830.259 181.618 830.903 183.163 831.382C184.744 831.823 186.4 832.044 188.11 832.044C190.262 832.044 191.898 831.731 193.02 831.087C194.16 830.425 194.731 829.505 194.731 828.328C194.731 827.371 194.271 826.69 193.351 826.285C192.468 825.881 191.071 825.457 189.158 825.053C187.374 824.666 185.921 824.298 184.781 823.912C183.678 823.507 182.721 822.863 181.931 821.998C181.14 821.115 180.735 819.919 180.735 818.429C180.735 816.773 181.195 815.338 182.114 814.087C183.071 812.854 184.395 811.897 186.105 811.235C187.852 810.573 189.875 810.241 192.156 810.241C193.829 810.241 195.466 810.444 197.066 810.867C198.648 811.272 199.954 811.842 200.965 812.541L199.163 816.166C198.17 815.504 197.029 815.007 195.742 814.694C194.436 814.344 193.112 814.179 191.751 814.179C189.691 814.179 188.11 814.528 186.988 815.228C185.885 815.89 185.314 816.791 185.314 817.951C185.314 818.963 185.774 819.698 186.694 820.14C187.613 820.545 189.048 820.968 190.979 821.373C192.726 821.759 194.16 822.127 195.264 822.514C196.367 822.9 197.305 823.507 198.078 824.372C198.868 825.237 199.273 826.396 199.273 827.849C199.273 830.425 198.206 832.43 196.091 833.902C193.977 835.282 191.181 836 187.687 836Z" fill="#ED6B06"/>
<path d="M208.008 824.519V824.813C208.008 827.169 208.67 828.953 210.013 830.204C211.337 831.419 213.341 832.007 216.008 832.007C217.571 832.007 219.024 831.75 220.385 831.253C221.746 830.719 222.886 830.002 223.806 829.119L225.755 832.412C224.523 833.553 223.015 834.436 221.231 835.08C219.447 835.724 217.59 836.037 215.622 836.037C213.139 836.037 211.006 835.595 209.203 834.712C207.401 833.774 206.003 832.504 205.01 830.848C204.017 829.192 203.539 827.261 203.539 825.034C203.539 822.201 204.146 819.662 205.341 817.417C206.574 815.154 208.284 813.406 210.436 812.137C212.624 810.867 215.07 810.223 217.774 810.223C221.194 810.223 223.934 811.217 225.957 813.185C228.017 815.117 229.047 817.767 229.047 821.134C229.047 822.146 228.937 823.268 228.716 824.519H208.008ZM217.59 814.05C215.328 814.05 213.397 814.694 211.778 815.964C210.16 817.233 209.056 818.981 208.486 821.207H224.762C224.891 818.944 224.284 817.215 222.96 815.964C221.654 814.676 219.87 814.05 217.59 814.05Z" fill="#ED6B06"/>
<path d="M241.35 814.234C242.454 812.836 243.833 811.824 245.452 811.18C247.07 810.536 249.038 810.223 251.355 810.223L250.491 814.657C250.196 814.62 249.81 814.602 249.295 814.602C244.054 814.602 240.891 817.435 239.769 823.084L237.249 835.706H232.67L237.672 810.462H242.049L241.35 814.234Z" fill="#ED6B06"/>
<path d="M280.247 810.462L264.21 835.706H259.539L253.488 810.462H258.068L262.776 830.701L275.631 810.462H280.247Z" fill="#ED6B06"/>
<path d="M284.515 810.462H289.076L284.073 835.706H279.494L284.515 810.462ZM288.119 805.605C287.292 805.605 286.611 805.329 286.078 804.795C285.545 804.262 285.269 803.6 285.269 802.845C285.269 801.962 285.563 801.208 286.17 800.601C286.814 799.957 287.604 799.644 288.542 799.644C289.37 799.644 290.05 799.92 290.584 800.453C291.154 800.969 291.448 801.576 291.448 802.312C291.448 803.287 291.136 804.096 290.492 804.685C289.903 805.311 289.113 805.605 288.119 805.605Z" fill="#ED6B06"/>
<path d="M304.762 836C302.353 836 300.238 835.558 298.436 834.675C296.634 833.755 295.236 832.486 294.243 830.867C293.268 829.211 292.771 827.297 292.771 825.108C292.771 822.274 293.397 819.735 294.666 817.491C295.935 815.228 297.7 813.48 299.944 812.21C302.188 810.904 304.762 810.26 307.613 810.26C312.597 810.26 316.054 812.082 317.985 815.743L314.123 817.877C312.799 815.467 310.5 814.253 307.263 814.253C305.388 814.253 303.696 814.713 302.169 815.632C300.68 816.516 299.503 817.767 298.638 819.404C297.774 821.042 297.351 822.863 297.351 824.924C297.351 827.15 297.994 828.898 299.3 830.168C300.624 831.4 302.5 832.026 304.928 832.026C306.454 832.026 307.87 831.732 309.158 831.124C310.482 830.517 311.585 829.634 312.45 828.457L315.778 830.83C314.601 832.449 313.038 833.719 311.07 834.639C309.121 835.54 307.006 836 304.762 836Z" fill="#ED6B06"/>
<path d="M324.054 824.519V824.813C324.054 827.168 324.716 828.953 326.058 830.204C327.382 831.419 329.387 832.007 332.054 832.007C333.617 832.007 335.07 831.75 336.431 831.253C337.792 830.719 338.932 830.002 339.851 829.119L341.801 832.412C340.569 833.553 339.061 834.436 337.277 835.08C335.493 835.724 333.617 836.037 331.649 836.037C329.166 836.037 327.033 835.595 325.231 834.712C323.428 833.829 322.031 832.559 321.038 830.903C320.063 829.248 319.566 827.316 319.566 825.089C319.566 822.256 320.173 819.717 321.369 817.472C322.601 815.209 324.311 813.461 326.463 812.192C328.651 810.922 331.097 810.278 333.801 810.278C337.222 810.278 339.962 811.272 341.985 813.241C344.045 815.172 345.074 817.822 345.074 821.189C345.074 822.201 344.964 823.323 344.743 824.574H324.054V824.519ZM333.635 814.05C331.373 814.05 329.442 814.694 327.824 815.964C326.205 817.233 325.102 818.981 324.532 821.207H340.808C340.937 818.944 340.33 817.215 339.005 815.964C337.718 814.676 335.916 814.05 333.635 814.05Z" fill="#ED6B06"/>
<path d="M356.699 836C354.602 836 352.597 835.724 350.703 835.19C348.827 834.657 347.374 833.958 346.326 833.093L348.368 829.468C349.361 830.259 350.611 830.903 352.174 831.382C353.756 831.823 355.411 832.044 357.122 832.044C359.273 832.044 360.91 831.731 362.032 831.087C363.172 830.425 363.742 829.505 363.742 828.328C363.742 827.371 363.282 826.69 362.363 826.285C361.48 825.881 360.082 825.457 358.17 825.053C356.386 824.666 354.933 824.298 353.793 823.912C352.689 823.507 351.733 822.863 350.942 821.998C350.151 821.115 349.747 819.919 349.747 818.429C349.747 816.773 350.207 815.338 351.126 814.087C352.082 812.854 353.407 811.897 355.135 811.235C356.882 810.573 358.905 810.241 361.186 810.241C362.878 810.241 364.496 810.444 366.096 810.867C367.678 811.272 368.984 811.842 369.995 812.541L368.193 816.166C367.218 815.504 366.059 815.007 364.772 814.694C363.466 814.344 362.142 814.179 360.763 814.179C358.703 814.179 357.122 814.528 356 815.228C354.896 815.89 354.326 816.791 354.326 817.951C354.326 818.963 354.786 819.698 355.705 820.14C356.625 820.545 358.059 820.968 359.991 821.373C361.738 821.759 363.172 822.127 364.276 822.514C365.379 822.9 366.317 823.507 367.089 824.372C367.88 825.237 368.285 826.396 368.285 827.849C368.285 830.425 367.218 832.43 365.103 833.902C362.97 835.282 360.174 836 356.699 836Z" fill="#ED6B06"/>
<path d="M457.388 735.082C457.388 742.46 455.402 748.789 451.411 754.051C447.42 759.313 441.884 763.048 434.822 765.238L446.611 786.213L434.363 798.779L416.873 767.501H401.296L396.901 789.635H378.51L394.307 710.593H426.473C436.257 710.593 443.852 712.746 449.278 717.033C454.666 721.301 457.388 727.318 457.388 735.082ZM419.687 752.911C425.774 752.911 430.482 751.512 433.793 748.734C437.176 745.956 438.868 741.963 438.868 736.775C438.868 733.003 437.581 730.188 435.025 728.311C432.468 726.435 428.809 725.496 424.082 725.496H409.627L404.091 752.929H419.687V752.911Z" fill="#0072BA"/>
<path d="M470.775 787.721L487.713 818.098H469.084L459.153 799.46L441.663 818.098H421.58L451.943 786.93L441.295 767.409C446.592 764.925 450.38 762.11 454.187 757.547L463.677 775.192L480.596 757.345H499.998L470.775 787.721Z" fill="#ED6B06"/>
<path d="M178.805 735.119C178.805 742.497 176.818 748.808 172.828 754.07C168.837 759.332 163.32 763.048 156.257 765.238L170.014 789.598H150.74L138.345 767.483H122.786L118.372 789.598H100L115.779 710.648H147.908C157.674 710.648 165.269 712.783 170.676 717.07C176.101 721.357 178.805 727.373 178.805 735.119ZM141.159 752.947C147.246 752.947 151.954 751.549 155.246 748.771C158.63 745.993 160.322 742 160.322 736.812C160.322 733.058 159.053 730.225 156.497 728.348C153.94 726.471 150.299 725.533 145.554 725.533H131.117L125.6 752.947H141.159Z" fill="#16233C"/>
<path d="M213.471 790.5C207.384 790.5 202.013 789.377 197.342 787.114C192.763 784.851 189.195 781.705 186.639 777.639C184.156 773.499 182.924 768.734 182.924 763.306C182.924 756.609 184.505 750.592 187.65 745.257C190.813 739.921 195.172 735.708 200.726 732.617C206.28 729.526 212.57 727.999 219.558 727.999C225.719 727.999 231.089 729.121 235.687 731.384C240.266 733.647 243.797 736.83 246.28 740.97C248.836 745.036 250.105 749.764 250.105 755.174C250.105 761.871 248.524 767.887 245.379 773.223C242.289 778.559 237.931 782.772 232.303 785.863C226.731 788.954 220.459 790.5 213.471 790.5ZM214.593 775.946C217.977 775.946 221.011 775.118 223.733 773.462C226.436 771.733 228.551 769.359 230.041 766.36C231.549 763.361 232.303 759.902 232.303 755.983C232.303 751.843 231.108 748.568 228.699 746.177C226.289 743.766 222.905 742.57 218.547 742.57C215.089 742.57 212 743.435 209.296 745.165C206.593 746.821 204.478 749.157 202.988 752.156C201.48 755.155 200.726 758.614 200.726 762.533C200.726 766.673 201.922 769.948 204.331 772.34C206.813 774.75 210.234 775.946 214.593 775.946Z" fill="#16233C"/>
<path d="M287.237 790.5C281.149 790.5 275.779 789.377 271.108 787.114C266.529 784.851 262.961 781.705 260.404 777.639C257.922 773.499 256.689 768.734 256.689 763.306C256.689 756.609 258.271 750.592 261.416 745.257C264.579 739.921 268.938 735.708 274.492 732.617C280.046 729.526 286.335 727.999 293.324 727.999C299.485 727.999 304.855 729.121 309.453 731.384C314.032 733.647 317.581 736.83 320.046 740.97C322.602 745.036 323.871 749.764 323.871 755.174C323.871 761.871 322.289 767.887 319.126 773.223C316.037 778.559 311.678 782.772 306.05 785.863C300.496 788.954 294.225 790.5 287.237 790.5ZM288.358 775.946C291.742 775.946 294.795 775.118 297.499 773.462C300.202 771.733 302.317 769.359 303.807 766.36C305.315 763.361 306.069 759.902 306.069 755.983C306.069 751.843 304.873 748.568 302.464 746.177C300.055 743.766 296.671 742.57 292.312 742.57C288.855 742.57 285.765 743.435 283.062 745.165C280.358 746.821 278.243 749.157 276.754 752.156C275.246 755.155 274.492 758.614 274.492 762.533C274.492 766.673 275.687 769.948 278.096 772.34C280.579 774.75 284 775.946 288.358 775.946Z" fill="#16233C"/>
<path d="M370.473 718.873C367.769 718.873 365.618 719.627 364.054 721.136C362.546 722.571 361.498 724.852 360.891 728.017L360.431 730.28H375.88L373.176 743.822H358.188L349.047 789.616H331.466L340.606 743.822H331.135L333.838 730.28H343.309L343.99 726.784C345.424 720.013 348.349 714.715 352.781 710.888C357.286 706.95 363.153 705 370.362 705C373.066 705 375.622 705.294 378.031 705.902C380.514 706.509 382.611 707.337 384.339 708.385L377.461 721.025C375.585 719.59 373.25 718.873 370.473 718.873Z" fill="#16233C"/>
</svg>
