<svg version="1.2" xmlns="http://www.w3.org/2000/svg" viewBox="0 0 2000 2000" width="250" height="250">
	<style>
		.s0 { fill: #002c11 } 
		.s1 { fill: #f4811f } 
		.s2 { fill: #7ab66e } 
		.s3 { fill: #166028 } 
		.s4 { fill: #fab16a } 
		.s5 { fill: #fefefe } 
	</style>
	<g id=" Слой 1">
		<g id="LOGO INTERMOUNTAIN">
			<g id="LOGO">
				<path id="&lt;Compound Path&gt;" fill-rule="evenodd" class="s0" d="m1089.49 299.51c-13.57-1.42-23.97-0.37-29.71 0.24-10 1.07-17.74 2.91-21.76 3.96-2.86 0.74-11.03 2.97-21.23 7.32-5.47 2.33-11.48 4.89-18.75 9.53-8.13 5.19-13.42 10.16-18.78 15.21-4.72 4.44-10.2 9.64-16.26 17.62-2.6 3.43-7.96 10.85-13.03 21.34-1.36 2.81-5.56 11.75-8.86 24.21-1.33 5.02-3.54 13.54-4.24 25.02-0.64 10.49 0.28 18.48 0.84 23.12 0.63 5.26 1.91 13.32 4.73 22.88 1.48 5.01 3.81 12.76 8.65 22.18 1.11 2.16 5.9 11.29 14.58 21.8 3.8 4.6 9.64 11.58 19.13 18.78 8.04 6.1 15.29 9.76 19.45 11.66 1.62 0.75 8.6 3.9 18.35 6.41 8.92 2.3 15.93 2.98 18.33 3.19 0.04 0 9.8 0.84 18.36-0.1 2.12-0.23 3.18-0.35 3.82-0.53q0.7-0.2 1.26-0.4c0.91-0.31 1.52-0.52 1.86-0.2 0.1 0.1 0.32 0.39 0.03 1.75-0.42 1.94-1.26 3.22-1.26 3.22-1.95 2.96-3.92 6.87-4.73 9.63-0.24 0.83-0.44 1.51-0.56 2.49-0.09 0.73-0.08 1.21-0.07 1.61 0.01 0.51 0.01 0.89-0.18 1.51-0.12 0.4-0.53 1.68-1.68 2.42-0.72 0.47-1.45 0.54-1.69 0.56h-0.03c-2.14 0.21-6.56 2.51-10.37 4.49l-0.06 0.03c-13.18 6.86-19.77 10.29-25.58 15.1-7.74 6.41-12.93 13.15-17.8 19.48-1.85 2.4-2.83 3.82-3.7 5.08-1.03 1.49-1.9 2.75-3.87 5.16-1.92 2.34-7.17 8.54-16.82 16.68-4.3 3.63-7.16 5.69-18.36 13.6-15.39 10.86-23.08 16.29-25.36 17.8-7.18 4.72-16.4 10.77-29.15 17.66-7.44 4.02-16.99 9.14-29.99 14.29-5.29 2.1-7.69 2.83-11.83 4.09-3.7 1.12-8.79 2.67-18.58 6-24.26 8.24-30.95 11.63-34.62 13.59-19.6 10.52-36.59 20.72-52.37 36.21-22.6 22.2-37.74 52.6-36.18 103.4 0 8.6 0.21 17.08 0 25.82-0.04 1.46-0.07 2.74-0.09 3.75v0.15c-0.32 11.94-0.48 17.93-1.47 22.87-1.57 7.82-3.96 13.6-5.89 18.18-1.98 4.72-5.1 12.03-11.04 20.28-5.58 7.76-11.02 12.72-15.76 17.03-2.68 2.44-10.77 9.8-17.42 14.5l-0.05 0.03c-0.65 0.46-3.45 2.46-6.75 5.5l-0.02 0.02c-2.08 1.93-3.13 2.9-3.97 4.12-1.66 2.4-2.19 4.66-3.23 10.51-0.88 4.97-1.32 7.46-1.47 8.83-0.9 8.37-3.87 21.39-7.57 37.63l-0.03 0.11c-4.51 19.79-6.88 30.18-11.57 43.72l-0.02 0.04c-1.48 4.26-3.43 9.9-6.54 17.23-0.7 1.66-1.04 2.4-2.14 4.84-1.06 2.35-2.84 6.26-6.34 14.08-2.16 4.83-3.09 6.93-3.54 7.95-0.41 0.91-0.42 0.94-0.59 1.3-0.44 0.91-1.98 4.38-5.03 11.25v0.02l-0.29 0.64c-1.22 2.75-2.18 4.98-1.47 7.5 0.12 0.43 0.33 1 2.1 3.43 1.34 1.84 2.39 3.11 3.24 4.15 1.45 1.75 2.32 2.82 3.06 4.75 0.55 1.44 0.79 2.72 0.77 4-0.02 1.53-0.4 2.69-0.55 3.11v0.04c-0.76 2.21-1.35 4.47-1.94 6.73q-0.64 2.51-1.36 4.97c-0.79 2.61-3.46 11.99-1.68 18.29v0.04c0.4 1.38 0.86 3.01 2.31 4.17 0.97 0.77 1.81 1.19 2.5 1.53 0.48 0.24 0.89 0.45 1.22 0.71q0.36 0.14 1.14 0.44h0.01c1.59 0.6 4.23 1.6 5.91 2.4l-79.08 27.86-224.4 218.86 1073.2-464.2 281.8 221.8-281.8-275.53-155 54.61c0.55-0.88 1.4-2.37 2-3.44l0.19-0.33q0.12-0.22 0.23-0.4 0.19-0.29 0.57-0.83c1.18-1.73 3.67-5.38 7.98-11.15 2.4-3.21 3.6-4.82 4.69-5.74 1.39-1.17 2.33-1.63 3.41-2.17 0.96-0.47 2.02-1 3.6-2.11 1.24-0.88 4.21-3 6.66-6.44 1.74-2.45 2.65-4.77 3.64-7.99 2.03-6.58 2.86-11.89 3.28-14.57l0.05-0.33 0.03-0.23c1.14-7.13 3.12-12.96 7.08-24.63 2.1-6.17 3.62-10.66 6.38-16.71 2.62-5.77 5.12-10.23 9.18-17.45 1.55-2.76 2.75-4.84 3.71-6.5 2.41-4.15 3.33-5.73 4.45-9.06 2.13-6.34 2.5-11.58 2.59-13.95 0.12-3.02 0.27-8.46-1.85-14.99-0.8-2.45-1.98-5.99-4.87-9.74-2.12-2.74-4.21-4.39-6.73-6.34-2.74-2.12-4.62-3.23-7.01-4.62-0.91-0.53-1.88-1.1-3.01-1.79-5.96-3.63-10.18-6.89-13.8-9.68l-0.08-0.06c-2.38-1.84-6.43-4.99-11.31-9.53-1.83-1.7-2.71-2.61-3.64-3.57-1.02-1.05-2.11-2.18-4.59-4.49-0.97-0.9-1.87-1.86-2.78-2.82-1.14-1.21-2.28-2.41-3.53-3.49-0.49-0.42-0.88-0.95-1.28-1.47-0.38-0.51-0.77-1.03-1.25-1.45-0.11-0.1-0.44-0.39-0.46-0.8q0.01-0.21 0.06-0.32c0.94-1.59 2.26-3.86 3.79-6.62 2.15-3.89 5.18-9.35 7.93-15.45 1.93-4.27 4.28-9.48 6.15-16.4 2.53-9.35 2.81-16.82 3-22.5 0.34-10.7-0.87-18.84-1.58-23.49-1.23-8.03-2.97-14.5-3.89-17.92-0.99-3.66-1.94-6.73-2.68-8.99 0.44-1.66 1-3.96 1.52-6.72 0.64-3.4 1.32-8.04 1.58-15.3 0.32-8.54-0.14-15.12-0.47-19.76-0.88-12.23-2.53-21.37-3-23.86-1.33-7.16-2.75-12.6-4.52-19.39-0.49-1.9-0.95-3.59-1.37-5.16-1.5-5.57-2.55-9.48-3.3-15.13-0.36-2.68-0.32-3.27-0.23-4.66 0.1-1.35 0.24-3.46 0.12-9-0.02-0.87-0.06-2.57 0.79-4.46 0.26-0.6 1.28-2.71 3.52-4.1 2.07-1.29 4.47-1.19 9.26-1h0.04c2.53 0.1 4.08 0.18 6.1 0.84 1.96 0.65 3.25 1.49 4.33 2.2h0.02q0.16 0.12 0.33 0.22c0.03 0.02 4.77 3.07 10.98 5.09 1.52 0.5 5.95 1.82 11.77 1.63 6.08-0.2 10.51-1.94 12.72-2.84 6.34-2.56 10.25-6.05 12.51-8.09 2.86-2.6 3.6-3.98 3.94-4.68 0.48-1.01 0.64-1.74 0.86-2.72 0.17-0.8 0.39-1.76 0.84-3.17q0.15-0.48 0.35-1.05c1.04-2.96 1.68-3.78 2-4.15 0.72-0.84 1.28-1.16 1.96-1.54 0.53-0.3 1.13-0.64 1.93-1.3 0.49-0.41 2.58-2.2 3.73-4.94 0.85-2.02 0.82-3.69 0.73-6.62-0.06-2.05-0.28-3.31-0.58-5.06-0.17-0.98-0.36-2.11-0.57-3.61-0.25-1.74-0.52-4.08-0.69-6.88 0.7-1.32 1.89-4.07 1.63-7.57-0.07-0.97-0.33-3.02-1.79-5.83-1.66-3.22-3.62-4.98-6.77-7.74q-0.4-0.34-0.82-0.72-0.21-0.18-0.42-0.37l-0.18-0.16q-0.31-0.27-0.61-0.54-0.15-0.14-0.32-0.28-0.16-0.14-0.31-0.28c-2.32-2.1-5.19-4.82-10.15-9.54-1.79-1.71-2.67-2.57-3.55-3.44-0.98-0.97-1.99-1.96-4.29-4.15-4.27-4.06-6.47-6.14-9.35-8.57-0.4-0.34-0.82-0.68-1.4-1.16l-0.02-0.02c-0.85-0.7-2.03-1.69-4-3.34l-0.29-0.25h-0.01c-1.45-1.23-1.92-1.62-2.85-2.38l-0.23-0.19c-2.57-2.09-3.86-3.14-4.16-3.32q-0.04-0.03-1.39-1.09-0.42-0.34-0.96-0.77c-0.3-0.23-0.78-0.63-0.82-1.19-0.02-0.37 0.17-0.66 0.24-0.76v-0.02c0.64-0.95 0.74-4.52 0.22-8.02-0.34-2.23-0.74-4.91-2.38-7.95-0.95-1.75-2.24-4.13-3.72-4.98-0.08-0.05-0.79-0.44-1.31-1.24-0.49-0.74-0.45-1.26-0.43-1.42 0.04-0.36 0.2-0.61 0.24-0.67 0.55-0.92 2.51-7.72 3.46-11.49 2.81-11.05 3.54-20.18 3.54-20.18 0.79-9.76 0.04-17.09-0.14-18.71-0.32-2.98-0.91-8.2-2.84-14.79-1.32-4.53-3.24-10.9-7.91-18.04-1.55-2.36-4.44-6.71-9.53-11.14-6.25-5.44-12.25-7.92-15.66-9.28-1.46-0.59-7-2.75-14.65-3.86h-0.08c-7.35-1.06-13.07-0.63-16.07-0.38-2.44 0.2-5.21 0.44-8.83 1.26-2.98 0.68-7.86 2.06-13.31 4.94-2.92 1.54-5.28 3.24-9.98 6.62l-0.04 0.03c-1.49 1.07-3.4 2.58-7.22 5.61 0 0-0.21 0.16-2.35 2.03-0.99 0.86-2.15 1.89-2.73 3.01-0.33 0.63-0.49 1.08-0.49 1.09-0.1 0.27-0.15 0.45-0.18 0.6-0.05 0.2-0.09 0.34-0.21 0.56-0.15 0.28-0.39 0.72-0.91 0.97-0.07 0.03-0.7 0.32-1.33 0.07-0.6-0.24-0.89-0.83-0.97-0.99v-0.03c-0.36-0.71-4.39-5.9-20.93-14.96l-0.04-0.02c-7.63-4.18-14.54-7.96-24.8-11.54-13.86-4.84-25.27-6.32-30.2-6.83zm-261.79 661.35c4.66-4.76 8.43-8.91 11.14-11.98 0.27 0.26 0.67 0.7 1 1.33 0.65 1.26 0.58 2.48 0.55 3.01-0.21 3.42-0.29 5.23-0.33 6.3-0.06 1.42-0.07 1.54-0.23 2.4-0.34 1.87-0.99 5.36-2.31 9.11-4.11 11.66-13.29 21.87-15.49 24.25-8.7 9.44-13.1 13.32-13.1 13.32l-0.23 0.2c-1.97 1.73-4.57 4.02-6.36 7.92-0.66 1.46-2.08 4.68-1.61 8.76 0.32 2.78 1.37 4.64 3.22 7.85 2.72 4.7 5.53 7.88 6.58 9.04 3.39 3.74 6.09 5.98 8.84 8.28q0.51 0.42 1.02 0.84 0.57 0.48 1.14 0.97c4.91 4.19 9.07 8.8 17.36 17.98l0.09 0.1 0.07 0.08c5.93 6.56 8.9 9.86 11.7 13.58 0.97 1.29 1.82 2.41 2.59 3.42 4.89 6.42 6.27 8.23 8.73 15.79 1.4 4.31 1.97 5.67 3.45 9.24q0.27 0.65 0.6 1.43c0.31 0.76 1 2.43 2.66 3.65 1.28 0.94 2.63 1.16 5.33 1.61 1.1 0.18 1.79 0.24 3.05 0.35h0.01c0.87 0.08 2 0.17 3.73 0.35q0.41 0.05 0.8 0.08 1.12 0.12 1.8 0.2c1.79 0.2 6.68 7.49 8.5 11.21l-215.32 75.86c-0.41-0.59-0.5-2.22-0.56-3.34-0.03-0.52-0.05-0.93-0.1-1.06-1.25-3.56-3.27-6.75-5.31-9.95-1.22-1.92-2.43-3.83-3.49-5.83-1.51-2.86-2.47-4.54-3.13-5.67-0.97-1.69-1.26-2.19-1.64-3.65-1.25-4.81-0.57-8.85-0.14-11.21 4.09-22.64 5.11-26.46 5.12-26.49 4.83-17.89 7.25-26.83 8.06-29.22 4.28-12.55 8.49-21.61 11.49-28.03 5.9-12.59 9.84-21.02 17.38-31.25 3.56-4.84 7.65-10.31 14.37-16.19 6-5.24 10.72-7.84 20.36-13.16l1.15-0.64c16.93-9.35 25.39-14.02 33.49-18.85 11.97-7.13 19.45-11.58 29.08-19.2 11.17-8.82 19.87-17.66 24.88-22.77zm195.97-51.7c5.13-1.68 9.4-3.33 12.56-4.62 0.42 1.5 0.98 3.81 1.37 6.67 0.56 4.15 0.47 7.32 0.42 8.89v0.15c-0.17 5.94-0.37 12.75 0.47 19.18 0.38 2.9 1.69 7.68 4.31 17.2l0.05 0.19q0.36 1.28 0.67 2.39c0.97 3.48 1.62 5.83 2.28 9.43 0.47 2.57 0.95 5.84 1.31 10.83 0.91 12.46 0.16 23.03 0 25.07-0.6 7.96-0.85 10.33-3.7 20.98q-0.21 0.8-0.47 1.72c-1.17 4.28-2.88 10.47-3.89 19.09-0.28 2.36-0.44 4.31-0.52 5.62 1.07 0.36 2.52 0.92 4.15 1.79h0.02c1.75 0.95 4.11 2.22 6.23 4.73 1.9 2.24 2.6 8.22 3 11.7 0.13 1.12 0.23 1.97 0.33 2.37q0.31 1.22 0.45 2.33l-113.54 40.01q-0.99-1.15-2.32-2.39c-2.47-2.29-4.62-3.5-7.13-4.92q-1.15-0.64-2.43-1.39c-2.77-1.65-5.05-3.37-9.6-6.79l-0.06-0.04c-7.02-5.29-11.59-10.28-17.82-17.08-2.79-3.05-8.07-8.99-14.14-17.03-1.57-2.09-5.92-9.25-14.56-23.49-0.57-0.94-1.78-2.99-2.26-5.89-0.17-1.06-0.7-4.52 0.95-8.15 1.08-2.4 2.66-3.85 3.94-4.99 8.01-7.11 11.77-9.25 11.77-9.25 9.94-5.65 21.9-13.37 26.17-16.29 11.18-7.65 18.14-15.61 23.33-21.55 4.25-4.86 11.8-13.6 18.5-26.49 5.41-10.42 9.05-21.21 10.72-26.15v-0.02c0.61-1.8 1.09-3.32 1.42-4.36 4.73-0.21 11.05-0.59 18.5-1.37 6.56-0.68 11.48-1.19 18.13-2.47 2.24-0.43 10.62-2.09 21.39-5.62zm126.08-43.15c4.13-2.4 7.36-4.66 9.51-6.25 2.11 1.02 5.15 2.39 8.89 3.78 2.46 0.91 11.46 4.16 26.27 6.2 3.83 0.53 5.47 0.62 7.29 0.73 1.94 0.11 4.1 0.23 9.32 0.9 5.41 0.69 8.41 1.25 10.7 1.66 2.83 0.52 4.54 0.83 8.32 0.96 1.98 0.07 3.95 0.24 5.92 0.41h0.01c2.68 0.23 5.36 0.46 8.05 0.43h0.03c0.93 0 3.74-0.04 6.86 1.32 1.37 0.59 3.35 1.48 4.41 3.52 0.66 1.26 0.71 2.45 0.74 3.84 0.07 2.95-0.67 5.21-0.83 5.71v0.02c-0.85 2.55-1.13 4.29-1.45 6.32-0.4 2.47-0.86 5.38-2.5 10.71-1.91 6.21-3.52 11.46-7.2 17.87-1.67 2.91-4.97 8.66-9.99 13.24-1.56 1.43-5.15 4.45-8.88 7.36-0.77 0.6-1.41 1.09-1.84 1.42 0.09 3.05 0.33 5.5 0.53 7.2q0.05 0.46 0.11 0.87 0.03 0.25 0.06 0.48c0.28 2.15 0.44 3.39-0.07 5.06-0.18 0.58-0.76 2.43-2.36 3.84-1.32 1.16-2.58 1.36-5.07 1.75q-0.69 0.1-1.5 0.24c-6.36 1.07-10.04 2.4-12.77 3.84-1.07 0.56-1.98 1.13-2.84 2.05-1.9 2.02-2.4 4.4-2.68 5.89-1.38 7.23-1.63 13.52-1.63 13.56v0.17h-0.01c-0.23 5.96-0.35 8.96-0.2 11.19 0.15 2.34 0.37 3.69 1.14 8.45v0.05c0.22 1.26 0.46 2.76 0.75 4.58 0.55 3.4 0.99 6.25 1.3 8.27l-91.38 32.2c-2.63-3.33-4.62-6.35-6.09-8.78-2.34-3.83-4.26-7.04-5.73-11.72-0.35-1.08-1.24-4.07-1.95-11.03-0.59-5.81-0.71-11.1-0.52-19.19 0.23-9.82 0.34-14.73 0.84-17.97 1.06-6.95 3.35-13.1 7.93-25.38 0.98-2.63 1.81-4.74 2.5-6.52 2.07-5.29 3-7.68 3.6-12.19 0.74-5.58 0.65-11.97 0.63-13.56-0.04-3.16-0.2-5.15-0.34-6.81-0.15-1.94-0.27-3.44-0.13-5.86 0.24-4.09 1.01-7.1 3.2-14.08 1.8-5.72 4.22-13.11 7.36-21.76 4.47-2.09 8.19-3.8 10.83-5 2.51-1.14 4.65-2.11 6.52-2.95 6.88-3.1 10.01-4.51 14.34-7.04zm-72.42-408.77c-4.71-3.82-15.3-12.42-18.29-27.11-1.07-5.28-0.86-9.84-0.47-12.97 5.37-2.59 13.77-5.78 24.44-6.58 17.64-1.31 31.18 4.72 37.2 7.88-1.93-4.18-5.54-10.64-11.98-16.71-16.78-15.8-38.09-15.03-41.94-14.82-5.18 0.28-19.64 1.28-31.84 11.98-7.3 6.4-10.74 13.59-12.93 18.29-2.16 4.62-6.49 14.19-5.99 27.12 0.65 16.91 9.14 28.42 11.98 32.16 3.33 4.38 9.89 12.81 21.76 17.66 15.82 6.47 30.28 2.18 36.57 0.32h0.01c4.47-1.33 17.16-5.65 28.06-17.35 3-3.23 5.16-6.26 6.62-8.52-4.14 0.84-10.74 1.66-18.6 0.32-12.71-2.18-20.94-8.7-24.6-11.67z"/>
				<path id="&lt;Path&gt;" class="s1" d="m602.4 1389.49l793.2-343.09 228 179.45-228-109.98-793.2 273.62z"/>
				<path id="&lt;Path&gt;" class="s2" d="m1210.27 534.37q-1.41 0.32-2.29 0.58c-0.4 0.12-2.04 0.66-4.33 0.97-2.23 0.31-3.96 0.25-4.77 0.22-9.5-0.36-14.25-0.54-15.14-0.7-2.25-0.42-9.48-2.02-15.91-7.5-6.31-5.37-8.61-11.72-11.28-19.06-1.43-3.92-3.07-9.54-3.86-16.57 0.43-2.9 1.06-5.24 1.55-6.83 0.95 6.03 3.6 17.04 11.98 27.61 4.62 5.83 12.28 15.48 22.63 16.96 10.28 1.47 15.41 2.2 18.15 1.61 0.67-0.14 2.9-0.67 3.58 0.28 0.4 0.57 0.13 1.53-0.31 2.43z"/>
				<path id="&lt;Path&gt;" class="s2" d="m1316.53 537.69c-0.45 1.22-1.75 3.96-7.29 6.8-2.68 1.37-8.18 4.19-16.05 3.71-6.2-0.37-7.73-2.42-19.13-6.66 0 0-1.49-0.56-3.91-1.37 0.16-0.95 0.5-1.86 0.97-2.62 0.73-1.19 1.79-2.03 2.97-2.63 2.68 0.14 4.25-0.03 4.25-0.03q1.47-0.16 2.94-0.31 0.12 0 0.24-0.02 0.24-0.03 0.48-0.04 2.69-0.25 5.38-0.46 0.35-0.03 0.68-0.06 0.61-0.04 1.14-0.09 0.93-0.08 1.82-0.14 1.74-0.14 3.27-0.26 0.52-0.03 1.01-0.08 1.23-0.09 2.36-0.17 0.28-0.03 0.54-0.04 0.91-0.06 1.75-0.11 0.24-0.01 0.47-0.03 0.42-0.03 0.82-0.04 2.06-0.12 3.83-0.14 1.23-0.03 2.32 0 0.48 0 0.94 0.02c3.77 0.12 6.83 0.46 8.76 0.7 0.06 0.99 0.03 2.46-0.56 4.06z"/>
				<path id="&lt;Path&gt;" class="s2" d="m1140.51 445.69c-4.89-3.97-12.2-8.98-21.97-12.72-5.62-2.15-13.46-5.15-22.18-5.04-4.66 0.06-9.47-1.18-13.98 0-0.54 0.14-3.01 0.82-5.47-0.21-0.56-0.24-1.92-0.81-1.99-1.68q-0.03-0.36 0.2-0.7c7.15-1.93 13.3-2.5 17.73-2.62 9.88-0.28 24.01 1.26 30.77 5.68 1.8 1.18 3.72 2.15 5.63 3.14 1.26 1.36 2.53 2.82 3.9 4.4 3.27 3.78 5.69 7.22 7.36 9.78z"/>
				<path id="&lt;Path&gt;" class="s2" d="m1326.83 493.75c-0.74 1.46-1.76 3.18-3.15 4.98-1.6 2.06-3.24 3.62-4.63 4.76-2.15-1.19-3.79-2.33-4.91-3.15-3.68-2.73-4.53-4.25-7.14-4.76-1.16-0.23-1.32 0-3.93-0.35-2.04-0.28-3.07-0.42-4.13-0.84-1.94-0.76-1.91-1.45-4.42-2.59-2.27-1.04-3.12-0.86-3.43-0.77-1.47 0.42-2.17 1.87-2.24 2.03-0.89 1.93 0.16 4.03 1.33 6.38 1.24 2.48 2.31 4.63 4.56 5.47 1.12 0.42 1.34 0.06 4.48 0.21 2.36 0.11 4.01 0.19 5.68 0.7 3.4 1.04 5.46 3.46 6.51 4.69 1.56 1.83 3.18 3.73 3.37 6.66 0.03 0.51 0.18 3.62-1.9 6.1q-0.08 0.11-0.17 0.2-0.06 0.06-0.11 0.12c-1.4 1.47-3.29 2.06-7.98 2.98-6 1.4-9.01 2.1-12.86 2.03h-0.06q-0.78 0.03-1.52 0c-1.35-0.06-2.36-0.17-3.35-0.32-0.77-0.05-1.71-0.11-2.89-0.17-2.43-0.13-4.43-0.21-5.75-0.26-1.31-0.03-3.1-0.1-5.24-0.28q-0.82-0.06-1.69-0.16c-2.76-0.28-4-0.54-4.38 0.07-1.61-0.89-3.3-1.85-3.99-3.75-0.4-1.08-0.31-2-0.21-2.91 0.11-1.1 0.5-4.69 3.68-7.14 3.22-2.5 6.88-1.93 7.49-1.82-0.01-1.49 0.01-3.65 0.21-6.24 0.43-5.44 0.64-8.16 1.93-11.04 0.44-0.98 3.14-6.77 9.25-9.28 2.56-1.06 4.69-1.12 8.76-1.23 4.06-0.11 7.44 0.3 9.77 0.7-1.97-1.09-4.79-2.84-7.77-5.5-2.64-2.34-4.01-4.16-5.82-6.31 0 0-5.62-6.67-12.4-12.51-5.2-4.47-8.03-6.9-12.55-9.21-3.67-1.89-6.66-4.89-10.12-7.15-0.44-0.28-1.71-1.11-2-2.52-0.18-0.89 0.03-2.03 0.74-2.77 0.63-0.66 1.17-0.47 2.03-1.05 0 0 1.19-0.81 1.72-2.6 0.88-3-3.03-6.76-4.52-8.16-3.28-3.08-4.92-3.22-8.94-5.89-2.27-1.51-5.02-4.16-10.51-9.46-7.45-7.19-6.8-7.15-9.35-9.04-2.57-1.9-6.74-4.98-12.83-6.62-3.25-0.88-5.31-0.88-6.94-1.15q0.03-0.35 0.04-0.71c0.13-4.12-1.35-7.4-2.38-9.25 5.94 0.93 10.68 2.51 14.01 3.86 6.08 2.45 13.86 5.58 19.69 12.82 2.05 2.54 2.58 4 5.54 7.08 0.91 0.95 4.02 4.09 9.18 7.36 6.3 3.99 7.41 2.94 11.7 6.45 1.63 1.33 4.88 4.27 6.45 8.55 0 0 0.98 2.7 0.49 6.17q-0.05 0.34-0.11 0.63c-0.14 0.6-0.35 1.06-0.73 1.19-0.68 0.23-1.19-0.81-2.59-1.33-1.15-0.42-3.13-0.58-4 0.56-0.89 1.18-0.06 3.02 0 3.16 3.2 1.5 7.11 3.52 11.42 6.16 5.83 3.58 10.28 7 13.1 9.32 3.43 2.81 6.56 5.89 12.83 12.05 9.19 9.04 8.28 8.72 10.93 10.72 4.37 3.3 7.48 4.64 12.19 9.18 2.04 1.96 3.57 3.74 4.56 4.97z"/>
				<path id="&lt;Path&gt;" class="s3" d="m1296.8 863.92c-0.1 2.76-0.52 6.89-2.1 11.77-0.21-2.93-0.77-7.1-2.31-11.88-1.25-3.84-3.29-10.17-8.41-15.45-2.57-2.64-3.71-2.76-13.67-8.3-1.36-0.76-9.16-5.11-17.02-9.99-8.17-5.06-9.95-6.69-17.87-11.35-3.99-2.35-7.34-4.17-9.57-5.36q4.26-5.21 8.52-10.4c3.56 3.43 8.33 7.83 14.19 12.72 10.28 8.58 15.42 12.86 23.12 17.34 1.76 1.02 8.52 4.89 16.5 10.83 2.99 2.22 4.81 3.74 6.31 6.3 2.65 4.55 2.47 9.28 2.31 13.77z"/>
				<path id="&lt;Path&gt;" class="s3" d="m949.98 877.27c-3.86 0.76-9.8 1.87-17.1 2.94-3.22 0.47-12.93 1.86-26.91 3.08-15.42 1.35-15.94 0.75-21.3 2.1-11.02 2.79-18.36 7.76-20.46 9.25-5.91 4.18-8.92 8.04-15.13 15.7-2.02 2.48-16.27 20.05-23.16 27.89-10.71 12.18-20.46 20-27.57 25.64-10.12 8.04-24.44 18.03-43.16 27.19 6.29-3.98 14.11-9.31 22.7-16.12 14.5-11.48 24.6-21.96 29.43-27.19 14.6-15.79 28.58-30.9 36.58-52.27 2.33-6.24 5.84-17.53 8.55-30.55 1.14-5.5 1.9-10.15 2.38-13.46 0.99 5.5 1.83 11.55 2.38 18.08 0.52 6.21 0.72 12.02 0.7 17.38 3.6-3.02 6.57-5.22 8.69-6.72 1.66-1.18 3.54-2.46 5.61-4.77 1.3-1.46 2.22-2.82 2.8-3.78 1.04 0.54 2.74 1.36 4.91 2.1 4.18 1.42 7.61 1.71 9.11 1.82 22.61 1.71 30.55 1.68 30.55 1.68 6.17-0.02 16.38-0.05 30.41 0z"/>
				<path id="&lt;Path&gt;" class="s1" d="m1117.28 490.31c-0.84 5.34-3.14 15.28-10.41 25.17-6.34 8.62-13.47 13.14-17.87 15.87-3.08 1.91-13.12 7.81-27.7 10.09-14.86 2.32-26.41-0.38-32.63-1.89-3.87-0.94-17.38-4.5-32.01-14.72-15.74-10.98-24.1-23.6-28.01-29.64-9.53-14.71-13.42-28.2-15.03-34.95v-0.02c-0.14-3.1-0.24-6.7-0.21-10.75 0.11-12.83 0.24-28.79 6.52-46.46 4.72-13.28 11.41-23.3 16.36-29.57q0.54 1.11 1.25 2.3c2.96 4.96 6.36 7.65 11.46 11.61 3.94 3.06 9.62 7.4 18.23 10.62 3.1 1.15 5.78 1.86 7.73 2.31-0.95 0.86-2.2 2.18-3.26 4.05-0.66 1.18-1.09 2.28-1.37 3.2q-2.67 0.03-5.36 0.05c-5.85-0.46-10.4-1.55-13.5-2.47-3.73-1.1-6-2.16-11.88-3.94-3.36-1.02-6.15-1.75-7.99-2.2 1.59 0.84 3.98 2.17 6.78 3.99 4.79 3.12 4.82 3.81 8.57 6.2 3.62 2.31 6.73 3.67 12.4 6.15q1.75 0.76 3.19 1.35c-1.87 3.28-3.85 7.26-5.62 11.89q-1.75 0.36-3.87 0.74c-6.1 1.08-10.18 1.44-16.24 2.1-3.83 0.42-9.26 1.05-15.87 1.94 1.16 0.2 2.96 0.5 5.15 0.79 2.51 0.33 8.58 1.06 21.91 1.16 1.84 0.02 4.08 0.02 6.65 0q-1.1 3.73-1.92 7.89c-0.31 1.61-0.68 3.58-1.02 5.87-2.9 0.47-6.04 1.17-9.34 2.17-4.57 1.39-8.49 3.08-11.72 4.73 1.81-0.19 4.71-0.45 8.3-0.63 1.61-0.08 3.95-0.17 12.08-0.2-0.33 4.46-0.34 9.64 0.4 15.28-3.56 1.8-8.15 4.61-12.38 9.31-1.76 1.95-4.1 4.94-6.15 9.09 2.97-2.8 9.22-8.3 16.76-12.04q1.41-0.7 2.64-1.21c0.72 3.45 1.74 7.04 3.14 10.72 0.84 2.18 3.16 7.93 7.66 14.63-4.11 4.1-5.82 6.66-7.08 9.28-1.09 2.27-2.31 5.56-1.68 5.94 0.78 0.47 3.37-4.15 9.62-9.78q0.82-0.74 1.88-1.63c3.67 4.78 8.42 9.78 14.48 14.14q0 0 0.01 0c3.34 2.41 7.09 4.63 11.27 6.5q3.86 1.71 7.44 2.81c0.02 2.73 0.33 5.11 0.71 7.02 0.4-1.95 0.96-4.08 1.7-6.32 8.8 2.36 15.56 2.22 17.27 2.17 0.77-0.02 3.62-0.15 7.67-0.87q0.21 0.89 0.42 1.76c0.08-0.3 0.22-0.86 0.37-1.58q0.04-0.17 0.07-0.34c6.13-1.17 14.66-3.67 22.84-9.02 0.16 0.78 0.24 1.28 0.37 1.27 0.15 0 0.28-0.71 0.33-1.74 4.62-3.12 9.09-7.16 12.92-12.4 1.63-2.23 2.96-4.44 4.06-6.54 1.52-1.15 2.9-2.38 4.24-3.82 1.42-1.54 3.41-3.96 5.26-7.46z"/>
				<path id="&lt;Path&gt;" class="s1" d="m1047.91 377.47q-1.14 0.66-2.26 1.31c-1.57 0.88-4.19 2.03-7.31 1.74-3.05-0.29-5-1.8-8.36-4.47-13.99-11.13-16.27-13.61-17.87-15.45-2.18-2.53-3.84-4.76-4.94-6.3 1.18 4.51 2.66 8.03 3.79 10.4 2.09 4.38 5.75 11.86 13.56 17.66 2.01 1.49 3.79 2.5 4.94 3.1q-4.76 3.87-9.51 7.72c-8.89-2.65-16.08-5.68-21.4-8.2-10.56-5.02-15.97-9.14-17.4-10.25q-1.98-1.55-3.55-2.94c1.65-2 3.03-3.52 3.98-4.52 2.54-2.71 14.58-15.25 34.9-24.18 3.94-1.73 9.02-3.69 15.03-5.37-0.2 5.95 0.52 10.82 1.26 14.25 1.2 5.57 3.2 14.28 10.35 21.49 1.82 1.84 3.55 3.14 4.79 4z"/>
				<path id="&lt;Path&gt;" class="s1" d="m1065.04 373.21q-1.9 0.99-3.79 2c-1.53-0.09-3.74-0.4-6.15-1.42-1.34-0.57-4.94-2.29-12.72-14.19-5.9-9.04-8.03-14.48-8.56-15.87-0.89-2.32-1.54-4.4-2-6.08 7.11-1.97 15.53-3.54 24.93-3.91-0.3 2.75-0.23 5.78-0.12 10.36 0.23 9.7 0.39 14.67 2.78 20.23 1.78 4.14 4.07 7.1 5.63 8.88z"/>
				<path id="&lt;Path&gt;" class="s1" d="m1090.9 337.97c-1.86 4.6-3.15 8.66-4.06 11.9-1.2 4.32-2.33 8.43-2.83 14.03-0.39 4.35-0.27 8.03-0.05 10.67-1.25 0-2.99-0.12-5-0.58 0 0-2.72-0.62-5.04-1.79-1.43-0.72-5.16-3.3-9.2-19.34-1.73-6.88-3.03-12.16-3.23-19.22q2.87 0.01 5.86 0.19c2.56 0.16 11.76 0.81 23.55 4.12z"/>
				<path id="&lt;Path&gt;" class="s1" d="m1116.15 348.3c-1.46 1.8-2.95 3.77-4.55 6.25-5.71 8.82-7.89 16.3-8.36 17.98-0.94 3.34-1.42 6.18-1.68 8.14q-1.71-0.48-3.42-0.94c-1.79-0.52-4.36-1.6-5.83-4-1.53-2.5-1.08-5.14-0.79-7.67 0.85-7.4-0.79-4.28-0.21-20.5 0.09-2.46 0.24-5.62 0.5-9.32q1.41 0.41 2.86 0.86c8.8 2.79 16.06 6.21 21.48 9.2z"/>
				<path id="&lt;Path&gt;" class="s1" d="m1138.77 364.79c-7.26 4.62-10.72 8.21-12.51 10.84-2.79 4.11-7.06 7.52-8.41 12.3-0.07 0.26-0.39 1.54-1.36 1.95-0.38 0.15-0.74 0.13-0.95 0.1q-2.57-2.15-5.15-4.31c0.04-1.38 0.14-3.45 0.42-5.94 1.24-10.96 4.78-18.87 8.25-26.49q0.56-1.22 1.2-2.57c2.07 1.25 3.71 2.34 4.89 3.14 2.19 1.49 7.39 5.15 13.62 10.98z"/>
				<path id="&lt;Path&gt;" class="s1" d="m1155.98 384.75c-1.81 0.82-4.24 1.85-10.54 5.17-8.39 4.44-12.58 6.65-13.61 7.83-0.27 0.32-1.53 1.8-3.57 2.32-0.54 0.14-2.05 0.51-3.1-0.32-0.22-0.18-0.89-0.77-1.05-2.58-0.26-2.8 1-5.09 1.21-5.47 6.51-11.86 5.35-12.49 11.03-19.92 1.18-1.54 2.6-3.3 4.28-5.22q3.42 3.3 7.02 7.43c3.19 3.67 5.94 7.28 8.33 10.75z"/>
				<path id="&lt;Path&gt;" class="s1" d="m1172.36 416.5c-4.17 1.18-9.04 1.78-16.09 2.62-7.33 0.88-13.43 1.11-17.59 1.16-3.1-3.29-4.49-6.45-5.17-8.44-1.33-3.97-0.5-5.37-0.26-5.73 0.93-1.37 2.73-1.64 3.26-1.73 6.62-1.17 18.14-11.35 22.35-15.25 4.46 7.1 7.38 13.32 9.39 17.66 1.7 3.67 3.05 6.97 4.11 9.71z"/>
				<path id="&lt;Path&gt;" class="s1" d="m1239.56 329.88c-3.12-0.94-7.28-1.56-11.92-0.56-3.36 0.72-5.98 2.09-7.78 3.26-0.64-0.92-1.69-2.24-3.26-3.47-4.09-3.2-8.72-3.46-13.77-3.68-2.81-0.12-6.85-0.04-11.66 0.94 3.74-2.66 10.32-6.62 19.34-8.51h0.01c3.16 0.15 6.79 0.65 10.71 1.78 2.7 0.78 10.61 3.34 18.33 10.23z"/>
				<path id="&lt;Path&gt;" class="s1" d="m1252.26 348.18q-0.57-0.3-1.18-0.56c-2.69-1.16-5.35-1.54-13.98-1.37-2.71 0.06-6.21 0.17-10.3 0.42-0.17-1.17-0.46-2.53-0.95-4-0.76-2.28-1.75-4.11-2.63-5.46 1.87-1.4 4.9-3.32 9.04-4.52 3.51-1.02 6.68-1.19 9.15-1.06q0.48 0.47 0.94 0.96c5.17 5.42 8.13 11.08 9.91 15.59z"/>
				<path id="&lt;Path&gt;" class="s1" d="m1256.27 372.79c-1.4-1.22-2.69-2.13-3.72-2.79-5.29-3.37-10.4-4.36-14.51-5.15-3.29-0.64-6.06-0.86-7.99-0.95q-0.05-2.63-0.31-5.57-0.32-3.43-0.84-6.41c3.64-0.74 7.91-1.35 12.72-1.58 4.24-0.19 8.11-0.05 11.54 0.28 0.51 1.5 0.88 2.8 1.17 3.82 1.86 6.56 2.23 12.45 1.94 18.34z"/>
				<path id="&lt;Path&gt;" class="s1" d="m1256.07 375.8c-0.28 3.35-0.73 6.74-1.2 10.29-0.82 6.08-1.98 11.36-3.11 15.61q-0.03-0.03-0.05-0.05c-5.02-5.05-6.64-7.86-11.24-11.56-4.18-3.36-8.16-5.32-10.73-6.41q0.16-6.46 0.32-12.93c1.85-0.04 4.42 0 7.46 0.32 5.83 0.61 10.15 1.91 12.83 2.73 1.66 0.51 3.59 1.17 5.72 2.01z"/>
				<path id="&lt;Path&gt;" class="s2" d="m1327.88 516.94c-0.62 4.26-2.22 7.41-3.3 9.18-0.21 0.28-0.65 0.74-1.33 0.98-1.56 0.55-3.01-0.59-3.15-0.7-1.49-1.21-1.43-3.42-1.4-4.7 0.1-3.95 2.15-6.9 3.57-8.9 1.02-1.42 2.65-3.39 5.12-5.32 0.5 1.98 1.08 5.35 0.49 9.46z"/>
				<path id="&lt;Path&gt;" class="s2" d="m1105.4 622.05c-2.61-2.12-6.56-4.98-11.77-7.57-4.36-2.16-14.59-7.25-26.6-6.52-11.32 0.69-18.97 6.23-27.64 12.51-14.75 10.68-22.67 23.75-26.59 30.38-3.21 5.42-5.76 10.83-7.15 13.77-5.14 10.9-8.57 20.72-8.94 21.76-2.53 7.29-3.32 10.88-3.95 12-0.13-4.67 0.02-10.58 0.94-17.33 0.36-2.65 2-13.98 8.2-29.08 4.93-12.02 9.21-22.42 19.27-33.29 10.56-11.39 21.22-16.53 30.97-21.23 3.74-1.8 7.01-3.12 11.29-3.5 9.54-0.86 17.26 3.54 21.02 6.1-1.43-3.33-3.23-8.37-4.14-14.72-0.58-4.09-1.54-14 2.18-25.58 1.71-5.35 3.36-10.29 7.91-14.51q0.78-0.71 1.46-1.22c1.99-0.47 3.14-0.58 3.66-0.18 1.91 1.51-0.79 7.83-1.68 10.09-4.45 11.3-3.27 21.79-1.89 34.05 0.78 6.97 3.35 19.55 13.45 34.06z"/>
				<path id="&lt;Path&gt;" class="s2" d="m985.99 655.55c-0.52 4.98-0.66 9.17-0.7 12.24-1.42 1.64-3.05 3.48-4.91 5.42-5.99 6.26-11.32 10.62-20.95 17.94-13.31 10.1-19.96 15.15-27.33 19.9-13.77 8.88-15.03 7.98-30.97 18.01-15.12 9.51-23.33 16.2-25.86 18.29-10.2 8.44-16.08 13.39-20.67 21.79-0.83 1.53-2.33 4.46-2.8 4.28-0.86-0.33 2.24-10.68 4.9-18.15 1.96-5.47 3.86-9.91 5.26-12.96-9.17 2.4-21.12 6.32-34.27 12.96-19.46 9.83-31.96 20.76-34.62 23.12-16.2 14.39-25.12 28.58-30.27 36.93-7.19 11.63-10.47 20.11-11.56 23.05-2.94 7.93-4.59 15.24-4.7 15.7-0.14 0.64-0.72 3.58-1.89 9.46-1.19 6-1.74 8.86-2.66 12.68q-0.95 3.99-1.58 6.34c-0.15-3.7-0.37-6.73-0.11-12.78 0.13-2.95 0.5-9.79 1.82-18.15 2.06-13.07 5.37-23.16 7.22-28.31 6.09-16.97 13.92-29.3 18.57-35.95 3.93-5.62 11.33-16.05 23.9-26.77 13.62-11.61 26.22-17.52 34.76-21.44 10.13-4.66 25.4-10.46 40.71-14.15 2.74-0.66 6.88-1.6 12.62-3.5 6.99-2.33 12.95-4.99 21.79-9.53 10.99-5.65 19.82-10.82 26.14-14.64 9.22-5.58 19.63-11.88 32.72-21.44 7-5.11 15.73-11.86 25.44-20.32z"/>
				<path id="&lt;Path&gt;" class="s2" d="m1237.56 679.24c-1.75 11.37-4.99 19.54-8.13 27.47-3.62 9.12-7.51 16.5-10.86 22.84-1.49 2.82-2.91 5.41-4.22 7.72-0.94 0.38-1.61 0.47-1.88 0.2-0.79-0.8 1.94-4.59 3.44-6.87 5.22-7.98 7.01-17.3 10.58-35.95 3.4-17.76 3.98-31.66 4.13-37.21 0.25-9.29-0.13-16.85-0.49-23.9-0.45-8.91-1.14-16.59-1.78-22.66q0.2 0.09 0.38 0.17c0.95 3.72 2.35 9.25 3.99 15.98 2.93 11.98 4.39 17.98 4.91 21.16 0.51 3.18 2.32 15.48-0.07 31.04z"/>
				<path id="&lt;Path&gt;" class="s2" d="m1245.33 742.65c-0.67 3.32-3.03 14.14-9.39 27.12-1.66 3.4-3.23 6.19-4.41 8.2q-0.35-2.55-0.69-5.12c3.76-7.61 5.63-14.24 6.64-18.98 1.68-7.87 1.84-14.56 2.04-22.63 0.11-4.83-0.03-9.72-0.16-12.77 2.33-3.7 4.08-7.25 5.41-10.42 1.07 3.69 2.24 8.96 2.53 15.35 0.34 7.73-0.78 13.44-1.97 19.27z"/>
				<path id="&lt;Path&gt;" class="s2" d="m1150.88 758.56c-1.31 5.71-4.76 20.08-15.35 33.5l-0.44 0.74-8.63 14.44-17 28.47c-0.28 5.67-0.83 10.84-1.51 15.48-1.16 7.99-2.69 14.4-3.81 19.07-3.43 14.15-5.14 21.23-8.55 29.15-1.19 2.76-2.86 6.3-3.44 11.49-0.5 4.54 0.29 6.2 0.81 12.81-1.14-2.75-2.24-5.91-3.12-9.45-0.59-2.37-1.94-8.35-1.96-15.84-0.04-10.38 2.51-13.71 5.74-27.89 0.72-3.14 2.6-11.75 3.7-22.98 0.28-2.78 0.51-5.73 0.66-8.79 0.63-1.32 1.62-3.23 3.21-6.12 1.65-3 2.47-4.5 3.19-5.69 1.83-3.02 3.6-5.59 5.07-7.58 1.26-1.7 2.29-2.98 2.94-3.76l21.32-37.44c2.81-9.66 7.05-24.62 6.3-44.57-0.34-9.11-1.19-26.98-11.21-46.81-4.67-9.24-9.95-16.19-14.01-20.88 2.57 1.22 5.61 2.82 8.89 4.89 2.72 2.71 5.7 5.97 8.7 9.82 4.74 6.1 14.62 19.1 18.84 39.03 3.58 16.85 1.47 30.96-0.34 38.89z"/>
				<path id="&lt;Path&gt;" class="s4" d="m1268.95 385.98c-1.2 10.8-3.91 19.45-6.1 25.23-5.05-3.7-8.72-7.13-11.09-9.51 1.13-4.25 2.29-9.53 3.1-15.61 0.48-3.55 0.93-6.94 1.21-10.29q2.36 0.93 4.99 2.19c-1.61-2.16-3.27-3.87-4.79-5.2 0.29-5.9-0.08-11.79-1.93-18.34-0.3-1.03-0.67-2.33-1.18-3.82q1.66 0.15 3.18 0.36c-0.91-0.81-2.27-1.88-4.08-2.8-1.78-4.51-4.74-10.17-9.9-15.59q-0.48-0.49-0.94-0.96c1.24 0.06 2.3 0.19 3.14 0.33-0.94-0.5-2.68-1.38-5-2.07-7.72-6.88-15.63-9.44-18.33-10.23-3.92-1.14-7.55-1.63-10.71-1.79 4.32-0.91 19.41-3.83 34.25 4.73q1.01 0.57 1.95 1.19 0.29 0.2 0.59 0.39c12.31 8.28 16.85 20.6 19.01 26.48 5.03 13.67 3.71 25.59 2.63 35.32z"/>
				<path id="&lt;Path&gt;" class="s4" d="m1193.27 397.82c-2.13 9.2-11.67 14.53-14.02 15.84-2.25 1.26-4.45 2.15-6.89 2.84-1.05-2.74-2.41-6.04-4.11-9.71-2-4.34-4.92-10.56-9.39-17.66 0.87-0.8 1.42-1.33 1.56-1.46 3.86-3.73 9.1-9.61 13.88-18.18-5.4 6.95-10.79 10.98-14.77 13.4-1.49 0.9-2.39 1.34-3.55 1.87-2.39-3.47-5.14-7.08-8.33-10.75-2.38-2.75-4.75-5.22-7.02-7.43 1.77-2.01 3.82-4.19 6.18-6.45-3.1 1.66-5.75 3.22-8.04 4.67-6.22-5.82-11.42-9.48-13.61-10.98-1.18-0.8-2.82-1.89-4.89-3.14 2.26-4.73 5.36-10.52 9.52-16.88-3 2.7-6.91 6.52-11.1 11.46q-1.26 1.49-2.54 3.05c-5.42-2.98-12.68-6.41-21.47-9.2q-1.46-0.47-2.86-0.86 0.1-1.46 0.23-3.03-0.61 1.41-1.15 2.76c-11.79-3.31-20.99-3.97-23.55-4.12q-2.98-0.18-5.86-0.19-0.02-0.81-0.03-1.65c-0.02-5.69 0.65-10.5 1.37-14.08-1.77 2.6-4.14 6.74-5.46 12.24-0.3 1.21-0.49 2.36-0.62 3.57-9.4 0.36-17.82 1.94-24.93 3.91q-0.14-0.51-0.26-0.96-0.03 0.53-0.05 1.04c-6.01 1.68-11.09 3.64-15.03 5.37-20.31 8.92-32.36 21.46-34.9 24.18-0.94 1-2.32 2.52-3.98 4.52q-1.89-1.68-3.17-2.95c0.39 1.22 0.97 2.8 1.85 4.59-4.95 6.28-11.64 16.3-16.36 29.57-6.28 17.67-6.41 33.63-6.52 46.46-0.03 4.05 0.07 7.64 0.21 10.75-3.4-14.29-3.07-25.62-2.78-33.5 0.3-8.09 0.75-18.49 4.84-31.38 3.84-12.09 8.98-20.39 12.24-25.6 10.56-16.81 22.47-26.99 26.33-30.16 16.72-13.74 33.51-20 43.62-22.92 5.36-1.54 25.16-6.86 50.87-3.62 20 2.52 34.75 9.09 41.78 12.61 5.19 2.6 15.08 8 25.75 17.08 4.47 3.8 9.9 9.86 20.76 21.97 1.7 1.9 5.19 6.79 12.18 16.59 1.59 2.24 4.05 5.77 4.48 10.79q0 0.03 0.01 0.08 0 0.04 0.01 0.1v0.1c0 0 0.01 0.07 0.01 0.1 0.05 0.89 0.1 3.02-0.45 5.37z"/>
				<path id="&lt;Path&gt;" class="s4" d="m999.71 441.74c-0.01 2.43 0.19 4.59 0.47 6.41-2.49 0.11-5.35 0.37-8.48 0.88 0.33-2.29 0.7-4.26 1.02-5.87q0.81-4.15 1.92-7.89 2.62-0.03 5.65-0.1c-0.32 1.86-0.57 4.07-0.58 6.57z"/>
				<path id="&lt;Path&gt;" class="s4" d="m1005.43 417.82c-0.97 1.3-2.08 3.02-3.04 5.15-0.79 1.74-1.3 3.36-1.63 4.73q-1.56 0.37-3.85 0.84c1.78-4.63 3.75-8.61 5.62-11.89 1.13 0.47 2.12 0.86 2.9 1.17z"/>
				<path id="&lt;Path&gt;" class="s4" d="m1002.6 465.96c-2.04 0.57-4.87 1.48-8.09 2.94-0.89 0.41-1.93 0.88-3.07 1.47-0.74-5.64-0.73-10.82-0.4-15.28q0.61 0 1.26 0c2.15 0 5.2-0.01 8.88 0-0.01 1.57 0.07 3.36 0.32 5.31 0.26 2.1 0.67 3.96 1.1 5.57z"/>
				<path id="&lt;Compound Path&gt;" fill-rule="evenodd" class="s3" d="m1204.51 394.81c1.63 0.28 3.69 0.28 6.94 1.15 6.09 1.64 10.26 4.72 12.83 6.62 2.55 1.89 1.9 1.85 9.35 9.04 5.49 5.3 8.24 7.95 10.51 9.46 4.02 2.67 5.66 2.81 8.94 5.89 1.49 1.4 5.4 5.16 4.52 8.16-0.53 1.78-1.72 2.6-1.72 2.6-0.86 0.58-1.4 0.39-2.03 1.05-0.71 0.74-0.92 1.88-0.74 2.77 0.29 1.42 1.56 2.24 2 2.52 3.46 2.26 6.45 5.26 10.12 7.15 4.52 2.32 7.35 4.74 12.55 9.21 6.77 5.82 12.38 12.48 12.4 12.51 1.81 2.15 3.18 3.96 5.82 6.31h-0.01c2.99 2.65 5.81 4.41 7.78 5.5-2.34-0.4-5.71-0.81-9.77-0.7-4.08 0.11-6.21 0.17-8.76 1.23-6.11 2.52-8.81 8.3-9.26 9.28-1.28 2.87-1.5 5.59-1.92 11.04-0.2 2.59-0.23 4.74-0.21 6.24-0.61-0.11-4.27-0.67-7.5 1.82-3.17 2.45-3.56 6.05-3.68 7.14-0.09 0.91-0.19 1.83 0.21 2.91 0.7 1.9 2.39 2.86 4 3.75-0.24 0.38-0.08 0.99 0.31 1.67 0.55 0.97 1.59 2.09 2.67 2.88 1.78 1.31 3.62 1.66 6.09 2.1 2.23 0.4 4.09 0.47 5.33 0.47q-1.48 0.15-2.95 0.31c-0.01 0-1.57 0.17-4.24 0.03-1.18 0.6-2.24 1.44-2.97 2.63-0.47 0.76-0.81 1.67-0.97 2.62-3.01-1.01-7.45-2.43-12.21-3.67-8.56-2.24-15.93-4.17-25.86-4.27-8.36-0.09-17.14 1.13-21.82 2.15 0.45-0.9 0.72-1.85 0.31-2.43-0.67-0.95-2.9-0.42-3.57-0.28-2.74 0.59-7.88-0.15-18.15-1.61-10.36-1.48-18.01-11.13-22.63-16.96-8.38-10.56-11.03-21.58-11.99-27.61-0.49 1.59-1.11 3.93-1.54 6.83q-0.31-2.62-0.42-5.5c-0.94 3.13-2.18 7.5-3.43 12.75-1.68 7.04-4.55 19.13-5.26 32.94-0.96 18.81 2.47 33.36 4.56 41.91 4.33 17.76 10.66 30.72 13.24 35.74 7.78 15.11 12.59 18.34 21.02 34.69 5.65 10.94 9.1 20.38 11.08 26.35 0.22-3.2 0.29-7.78-0.5-13.18-0.96-6.63-2.78-11.46-3.71-13.87-7.3-19.02-10.1-23.48-13.24-32.66-4.61-13.44-5.75-24.78-6.73-34.41-0.96-9.46-1.08-17.68-0.91-24.17 1.79 3.83 4.55 9.16 8.55 15.14 2.64 3.96 11.7 16.97 27.4 28.8 9.07 6.84 17.22 10.9 20.67 12.54 1.32 0.63 2.47 1.14 3.33 1.51 0.65 6.07 1.33 13.75 1.78 22.66 0.36 7.04 0.74 14.61 0.49 23.9-0.15 5.54-0.73 19.45-4.13 37.21-3.57 18.65-5.36 27.97-10.58 35.95-1.5 2.28-4.23 6.07-3.44 6.87 0.28 0.27 0.95 0.18 1.88-0.2-1.4 2.49-2.68 4.67-3.77 6.5 2.97-1.26 6.87-3.2 11.07-6.17 7.06-4.98 11.23-10.23 13.53-13.18q2.35-3.02 4.19-5.97c0.12 3.06 0.27 7.94 0.15 12.77-0.19 8.08-0.35 14.76-2.03 22.63-1.01 4.74-2.88 11.37-6.64 18.98q-0.78-5.77-1.56-11.56c-1.1 3.05-2.73 7.27-4.97 12.19-3.24 7.1-8.59 18.64-18.57 30.97-4.24 5.23-10.47 12.03-19.13 18.92 5.19-6.98 8.23-13.33 10.02-17.8 4.56-11.37 5.54-21.7 6.37-30.41 0.41-4.28 0.57-7.83 0.64-10.23-3.3 11.63-7.84 20.24-11.36 25.93-4.97 8.02-4.41 4.55-25.01 28.38-4.39 5.08-9.73 11.38-19.06 16.46-2.83 1.54-5.3 2.58-7.01 3.22 1.78-1.96 4.18-4.78 6.8-8.34 1.9-2.6 10.62-14.7 16.88-34.27 2.76-8.58 7.72-24.57 6.73-45.83-0.44-9.46-1.8-32.77-16.67-55.15-4.39-6.6-12.42-18.36-27.47-25.78-3.58-1.76-6.73-2.88-8.97-3.58 1.55 1.35 3.3 2.95 5.18 4.82-3.29-2.08-6.32-3.67-8.9-4.89 4.06 4.69 9.35 11.64 14.02 20.88 10.02 19.83 10.87 37.7 11.21 46.81 0.74 19.95-3.49 34.91-6.31 44.57l-21.32 37.44c-0.64 0.78-1.68 2.06-2.93 3.76-1.47 1.99-3.25 4.55-5.07 7.58-0.72 1.19-1.55 2.69-3.19 5.69-1.59 2.89-2.58 4.8-3.21 6.12q-0.24 4.6-0.66 8.79c-1.11 11.23-2.98 19.84-3.7 22.98-3.23 14.18-5.78 17.5-5.74 27.89 0.02 7.48 1.37 13.46 1.96 15.84 0.88 3.54 1.97 6.7 3.11 9.45q0.11 1.24 0.18 2.74c0.35 6.6 0.52 9.9-0.35 14.15-1.48 7.24-4.74 11.84-6.17 13.66-2.54 3.26-5.76 7.39-9.46 6.94-2.81-0.34-4.47-3.17-7.07-7.57-1.71-2.9-4.42-7.58-5.26-14.51l-9.81-28.17c-1.13-5.07-2.74-12.23-4.69-20.81-6.79-29.84-7.68-32.66-8.55-35.25-0.82-2.42-1.69-4.81-2.68-7.34 0.31-1.98 0.57-4.14 0.71-6.46 0.4-6.06 0.02-11.85-1.26-19.34-2.36-13.88-4.54-14.46-6.93-26.28-0.38-1.86-3.95-19.97-2.11-35.95 0.23-1.94 0.97-7.68 0.95-15.52-0.01-2.69-0.11-5.04-0.21-6.89 1.1-2.54 2.16-4.77 3.12-6.67-2.76 2.69-6.48 6.67-10.23 11.98-6.72 9.51-9.72 17.91-12.61 26.2-2.75 7.87-5.9 18.85-7.71 32.44-0.12 0.52-0.33 1.38-0.71 2.38-1.14 3.09-2.92 5.16-4.13 6.45-9.38 10.03-16.31 14.56-16.33 14.58-5.67 3.7-15.14 9.02-28.45 12.82 2.49 0.34 6 0.72 10.23 0.91 7.51 0.33 16.82 0.75 27.47-2.38 4.03-1.18 9.69-3.3 15.98-7.28 0.28 0.33 0.65 0.84 0.91 1.54 0.71 1.92 0 3.74-0.35 4.62-1.2 3-3.82 4.82-6.23 6.52-9.95 6.97-9.52 6.74-9.88 6.94-10.14 5.65-21.26 7.52-29.85 8.9-5.12 0.82-12.06 1.91-21.37 2.03-9.28 0.12-23.71 0.18-40.64-5.96-7.38-2.68-16.98-6.26-26.7-14.92-9.91-8.83-14.98-18.53-18.22-24.88-3.81-7.46-6.04-14.12-7.36-18.92-0.92 10.24-1.98 19.41-3.02 27.33-2.01 15.36-3.41 25.82-6.73 39.38-2.17 8.89-3.98 16.29-7.99 26-5.32 12.89-11.26 21.94-14.64 27.05-2.72 4.1-8.49 12.43-17.24 21.93-6.54 7.11-12.82 12.79-18.15 17.17 3.16-3.76 5.18-7.22 6.45-9.74 2.78-5.51 3.91-10.34 5.26-16.05 0.91-3.87 1.47-7.14 1.82-9.46-1.7 3.56-4.24 8.41-7.78 13.88-1.75 2.7-7.79 11.81-20.6 24.46-13.96 13.78-26.7 22.62-31.54 25.86-15.17 10.18-22.75 15.26-29.36 18.01-0.04 0.01-11.48 4.77-18.5 12.54-1.36 1.51-2.58 3.14-2.59 3.15-3.31 4.44-4.93 8.37-5.82 10.51-7.15 17.32-6.24 14.59-8.13 19.7-1.57 4.23-3.59 9.89-5.82 16.67 4.86-24.04 8.01-40.73 8.55-46.53 0.1-1.01 0.29-3.62 1.82-6.44 0.51-0.94 1.7-2.87 6.02-6.52 2.22-1.87 3.33-2.8 5.96-4.48 6.6-4.22 16.12-13.06 21.72-18.99 8.98-9.5 14.08-18.1 18.22-25.08 5.82-9.81 9.43-15.9 11.56-25.23 0.84-3.66 1.3-8.07 2.24-16.89 0.69-6.53 1.3-12.19 1.54-19.48 0.16-4.86 0.08-7.92-0.03-10.62q0.63-2.35 1.58-6.34c0.92-3.83 1.47-6.68 2.66-12.68 1.17-5.88 1.75-8.82 1.89-9.46 0.1-0.46 1.76-7.76 4.7-15.7 1.09-2.94 4.38-11.42 11.56-23.05 5.15-8.34 14.07-22.54 30.27-36.93 2.66-2.36 15.15-13.3 34.62-23.12 13.15-6.64 25.1-10.57 34.27-12.96-1.4 3.06-3.3 7.49-5.26 12.96-2.67 7.47-5.76 17.82-4.9 18.15 0.47 0.18 1.97-2.75 2.8-4.28 4.6-8.4 10.48-13.36 20.67-21.79 2.53-2.09 10.74-8.78 25.86-18.29 15.94-10.03 17.2-9.13 30.97-18.01 7.37-4.75 14.02-9.8 27.33-19.9 9.64-7.31 14.96-11.68 20.95-17.94 1.86-1.94 3.49-3.77 4.91-5.42v0.37c-0.07 8.9-0.06 15.43 2.59 22.92 1.56 4.41 3.55 7.76 4.98 9.88q-0.06-1.22-0.1-2.57c0.62-1.12 1.42-4.71 3.95-12 0.36-1.04 3.8-10.86 8.94-21.76 1.39-2.94 3.93-8.35 7.15-13.77 3.92-6.62 11.84-19.7 26.59-30.38 8.67-6.28 16.32-11.82 27.64-12.51 12.01-0.73 22.24 4.35 26.59 6.52 5.22 2.59 9.16 5.45 11.78 7.57-10.1-14.51-12.67-27.08-13.46-34.06-1.38-12.26-2.56-22.75 1.9-34.05 0.88-2.26 3.59-8.59 1.68-10.09-0.52-0.41-1.67-0.29-3.66 0.18 2.14-1.6 3.86-2.02 7.72-4.45 7.22-4.54 11.69-9.7 14.36-12.83 3.2-3.74 8.4-9.81 11.64-19.27 3.06-8.94 3.03-16.99 3.01-22.91-0.01-3.12-0.19-5.73-0.35-7.57 2.36-3.86 5.91-8.68 11.14-13.24 2.45-2.14 4.86-3.86 7.08-5.26-1.41-0.08-3.59-0.33-6.1-1.12-5.43-1.72-8.05-4.67-14.99-10.79-6.8-6-10.26-9.02-13.32-10.3-4.3-1.8-8.23-2.17-13.45-2.66-5.3-0.5-9.76-0.37-12.96-0.14 2.62 1.93 6.39 4.66 11 7.85 6.19 4.28 9.29 6.43 12.82 8.41 3.87 2.17 9.56 4.93 17.1 7.15-3.23 0.74-8.23 1.57-14.3 1.19-4.79-0.3-19.14-1.19-29.64-12.48-6.5-6.98-8.74-14.96-9.6-19.69q1.07-0.32 2.1-0.6-0.23 0.35-0.2 0.7c0.07 0.87 1.43 1.44 1.99 1.68 2.45 1.04 4.93 0.35 5.47 0.21 4.5-1.18 9.32 0.06 13.98 0 8.72-0.11 16.56 2.9 22.18 5.05 9.76 3.74 17.08 8.75 21.96 12.72-1.66-2.56-4.08-5.99-7.36-9.77-1.36-1.58-2.63-3.04-3.89-4.4 1.75 0.9 3.51 1.81 5.16 2.89 0.29 0.19 0.94 0.62 1.89 0.85 2.64 0.62 5.06-0.95 6.3-1.68 1.36-0.8 4.41-1.74 10.52-3.65 4.93-1.53 6.84-1.12 12.47-1.96 4.07-0.61 8.92-1.34 13.87-3.28q1.71-0.67 3.44-1.56c8.77-4.53 13.22-11.51 17.59-18.36 2.75-4.31 3.8-7.1 4.02-9.94zm15.81 47.62c0.08 3.8-0.04 8.26-1.06 8.44-0.57 0.09-1.06-1.19-1.8-2.26-3.89-5.61-14.14-5.07-15.51-4.97-5.01 0.33-4.47 1.85-12.66 3.46-6.26 1.23-9.91 0.99-10.09 2.11-0.16 1 2.66 1.89 7.38 4.21q0.2 0.09 0.39 0.2-0.23 0.2-0.39 0.44c-1.82 2.8-0.1 6.97 0.57 8.58 0.4 0.98 0.9 1.85 1.44 2.63q0.15 0.22 0.32 0.44 0.15 0.21 0.32 0.4c2.47 3.01 5.66 4.34 6.73 4.78 4.9 2.04 9.29 0.99 18.08-1.13 6.93-1.67 8.55-3.25 9.14-4.86q0.21-0.58 0.25-1.14c1.41 0.5 3.28 1.03 5.93 2.45 4.17 2.24 7.07 4.94 8.88 6.63 1.62 1.51 2.88 2.89 3.77 3.92-0.51-1.69-1.5-4.4-3.32-7.39-5.02-8.2-10.99-9.45-15.21-16.87-1.16-2.04-2.63-5.31-3.16-10.08zm-16.98-13.33q-1.01-0.01-2.21 0.08-0.65 0.04-1.34 0.12-0.24 0.03-0.47 0.06-0.24 0.03-0.47 0.06c-1.84 0.27-3.9 0.72-6.08 1.48q-0.11 0.04-0.23 0.08-1.68 0.6-3.46 1.45c-2.64 1.28-5.21 2.96-7.13 4.5q-0.18 0.14-0.35 0.29c-2.01 1.65-3.22 3.11-2.91 3.69q0.2 0.35 1.11 0.21 0.1-0.01 0.19-0.03 0.1-0.01 0.2-0.04 0.83-0.17 2.04-0.53 0.61-0.18 1.3-0.39 1.04-0.32 2.25-0.68c1.35-0.4 2.86-0.82 4.48-1.21 1.66-0.4 3.44-0.77 5.32-1.04q0.46-0.07 0.94-0.13 0.38-0.05 0.75-0.09 0.48-0.06 0.98-0.1 0.05 0 0.1 0 1.12-0.11 2.27-0.14 0.31 0 0.63-0.02 1.18-0.03 2.4 0.02c4.01 0.15 7.5 0.92 10.73 2.26 2.57 1.06 4.54 2.32 5.88 3.28q-0.06-1.36-0.12-2.71c0 0-0.4-2.66-1.92-4.97-2.6-3.97-9.3-4.82-11.29-5.2-0.56-0.1-1.83-0.27-3.59-0.28z"/>
				<path id="&lt;Path&gt;" class="s4" d="m1015.95 489.62c-3.73 2.94-6.73 5.56-8.88 7.52-1.53 1.38-2.83 2.62-3.96 3.75-4.5-6.7-6.82-12.44-7.66-14.63-1.41-3.68-2.43-7.27-3.14-10.72 2.94-1.23 5.06-1.71 6.3-1.94 2.86-0.54 5.29-0.59 6.99-0.53 0.98 3.05 2.68 7.07 5.67 11.2 1.57 2.16 3.19 3.93 4.68 5.36z"/>
				<path id="&lt;Path&gt;" class="s4" d="m1043.17 510.59c-1.51 3-3.47 7.87-3.99 14.14q-0.15 1.8-0.13 3.44-3.58-1.1-7.44-2.81c-4.18-1.88-7.93-4.09-11.27-6.5q-3.34-2.41-0.01 0c-6.06-4.36-10.81-9.36-14.48-14.14 2.48-2.06 5.94-4.62 10.31-6.99 2.02-1.1 3.79-1.91 5.1-2.47 1.39 1.7 3.17 3.6 5.41 5.46q1.79 1.48 3.47 2.58c-1.98 2.05-4.28 4.84-6.36 8.46-1.37 2.38-2.37 4.64-3.1 6.62 2.5-1.73 4.43-3.27 5.73-4.36 1.54-1.3 4.19-3.64 7.62-5.41 0.89-0.46 2.13-1.04 3.52-0.74 0.79 0.17 1.17 0.53 2.36 1.21 0.81 0.46 1.9 1.01 3.26 1.52z"/>
				<path id="&lt;Path&gt;" class="s4" d="m1066.4 530.16c-4.05 0.72-6.9 0.84-7.67 0.87-1.71 0.05-8.47 0.19-17.27-2.17 1.05-3.13 2.48-6.49 4.44-9.92q1.44-2.49 2.95-4.57 2.42 0.41 5.09 0.68c3.6 0.37 6.94 0.48 9.99 0.42 0.39 3.63 0.96 7.5 1.79 11.56q0.32 1.59 0.68 3.12z"/>
				<path id="&lt;Path&gt;" class="s4" d="m1090.1 520.99c-8.17 5.34-16.71 7.84-22.84 9.02 0.35-1.81 0.55-3.88 0.93-9.32 0.03-0.44 0.09-1.3 0.42-2.36 0.31-1 0.72-1.75 1-2.21 5.16 0.32 7.72-0.23 9.09-0.84 1.28-0.57 2.63-0.94 3.94-1.42 0.28-0.1 0.94-0.35 1.84-0.42 0.64-0.05 1.17 0 1.53 0.05 1.19 1.16 2.6 2.88 3.46 5.26 0.32 0.85 0.5 1.64 0.63 2.25z"/>
				<path id="&lt;Path&gt;" class="s4" d="m1107.78 501.58c-1.1 2.1-2.43 4.31-4.06 6.54-3.83 5.24-8.3 9.28-12.92 12.4 0.06-1.06 0.06-2.48-0.06-3.89-0.18-2.09-0.58-3.79-0.9-4.94 1.32-0.63 3.33-1.62 5.73-2.89 5.27-2.8 9.05-4.83 12.21-7.22z"/>
				<path id="&lt;Compound Path&gt;" class="s0" d="m1238.69 469.38c-5.02-8.2-10.99-9.45-15.2-16.87-1.16-2.04-2.64-5.31-3.17-10.08 0.08 3.8-0.03 8.26-1.06 8.44-0.57 0.09-1.05-1.19-1.8-2.26-3.89-5.61-14.14-5.06-15.51-4.97-5.01 0.33-4.47 1.85-12.66 3.46-6.26 1.23-9.91 0.99-10.09 2.11-0.15 1 2.66 1.89 7.39 4.21q0.18 0.09 0.38 0.2c10.34 5.13 9.9 7.33 14.82 7.93 1.34 0.17 9.64 1.2 13.41-2.86 0.48-0.52 1.41-1.67 2.41-1.5 1.28 0.21 1.38 2.34 2.56 4.22 0.86 1.37 1.83 1.85 3.26 2.36 1.41 0.5 3.28 1.03 5.93 2.45 4.17 2.24 7.07 4.94 8.89 6.63 1.61 1.51 2.87 2.89 3.76 3.92-0.51-1.69-1.5-4.4-3.32-7.39zm-23.4-15.18c-0.26 0.74-0.79 1.32-1.47 1.78q-0.63 0.43-1.42 0.74-0.16 0.07-0.36 0.14-0.2 0.08-0.4 0.14-0.1 0.03-0.21 0.06-0.65 0.2-1.3 0.32-0.24 0.05-0.46 0.08-0.76 0.14-1.43 0.2h-0.01c-0.86 0.09-1.55 0.12-1.87 0.13-1.92 0.06-5.54 0.14-9.11-2.29q-1.45-1.02-2.42-2.13c-1.21-1.35-2.42-2.46-2.78-3.25q0.56-0.2 1.16-0.4c1.51-0.52 3.02-1.02 3.98-1.31q0.88-0.27 1.67-0.48 0.2-0.06 0.38-0.1 0.65-0.16 1.23-0.3 0.15-0.03 0.31-0.07 0.15-0.03 0.29-0.06 0.23-0.05 0.44-0.08 0.1-0.02 0.21-0.04 0.11-0.03 0.23-0.04 0.18-0.03 0.36-0.06 0.18-0.03 0.36-0.05 0.48-0.05 0.91-0.08 0.1 0 0.21 0c0.95-0.02 1.69 0.1 2.33 0.33 0.36 0.14 1.35 0.38 1.47 0.58 0.07 0.13-0.17 0.24-1.07 0.31q-0.81 0.06-1.35 0.38c-2.17 1.22-1.48 4.9 0.31 5.42q0.37 0.1 0.84 0.19h0.01q0.15 0.03 0.3 0.05 0.02 0 0.04 0 0.16 0.03 0.33 0.04c1.07 0.1 2.37 0 3.54-0.6q0.03-0.01 0.06-0.03 0.08-0.03 0.14-0.08h0.01q0.15-0.09 0.29-0.18 0.82-0.58 1.39-1.14 0.11-0.12 0.22-0.22 0.37-0.38 0.68-0.66 0.09-0.09 0.17-0.16 0.18-0.16 0.34-0.26c0 0 0.08-0.05 0.12-0.07q0.05-0.01 0.08-0.03 0.04-0.01 0.07-0.03 0.18-0.06 0.36-0.02 0.06-0.01 0.11 0.03c0.8 0.33 1.16 2.01 0.7 3.29z"/>
				<path id="&lt;Path&gt;" class="s5" d="m1215.29 454.2c-0.26 0.74-0.79 1.32-1.47 1.78q-0.64 0.43-1.42 0.74-0.18 0.07-0.36 0.14-0.2 0.08-0.41 0.14-0.1 0.03-0.2 0.06-0.66 0.2-1.31 0.32-0.23 0.05-0.45 0.08-0.77 0.14-1.43 0.2h-0.01c-0.86 0.09-1.56 0.12-1.88 0.13-1.91 0.06-5.53 0.14-9.1-2.29q-1.45-1.02-2.42-2.13c-1.22-1.35-2.42-2.46-2.79-3.25q0.57-0.2 1.16-0.4c1.51-0.52 3.03-1.02 3.98-1.31q0.89-0.27 1.67-0.48 0.19-0.06 0.39-0.1 0.65-0.16 1.23-0.3 0.15-0.03 0.3-0.07 0.15-0.03 0.3-0.06 0.22-0.05 0.43-0.08 0.11-0.02 0.21-0.04 0.12-0.03 0.24-0.04 0.18-0.03 0.36-0.06 0.2-0.03 0.36-0.05 0.49-0.05 0.92-0.08 0.11 0 0.2 0c0.95-0.02 1.7 0.1 2.33 0.33 0.36 0.14 1.35 0.38 1.47 0.58 0.08 0.13-0.17 0.24-1.06 0.31q-0.81 0.06-1.35 0.38c-2.17 1.22-1.48 4.9 0.31 5.42q0.36 0.1 0.84 0.19 0.15 0.03 0.31 0.05 0.02 0 0.04 0 0.15 0.03 0.32 0.04c1.08 0.1 2.38 0 3.54-0.6q0.04-0.01 0.07-0.03 0.07-0.03 0.14-0.08 0.15-0.09 0.3-0.18 0.82-0.58 1.38-1.14 0.12-0.12 0.23-0.22 0.37-0.38 0.67-0.66 0.09-0.09 0.18-0.16 0.16-0.16 0.34-0.26c0 0 0.08-0.05 0.12-0.07q0.04-0.01 0.08-0.03 0.03-0.01 0.07-0.03 0.18-0.06 0.36-0.02 0.05-0.01 0.11 0.03c0.79 0.33 1.15 2.01 0.7 3.29z"/>
				<path id="&lt;Path&gt;" class="s2" d="m1220.26 442.27c-1.34-0.96-3.31-2.21-5.88-3.28-3.23-1.34-6.72-2.11-10.73-2.26-12.99-0.49-24.12 5.74-24.96 4.18-0.61-1.14 4.7-5.71 10.39-8.47 8.64-4.2 16.22-3.36 17.85-3.05 1.99 0.38 8.69 1.22 11.29 5.2 1.52 2.31 1.92 4.97 1.92 4.97q0.06 1.36 0.12 2.71z"/>
				<path id="&lt;Path&gt;" class="s2" d="m1223.43 463.77q-0.04 0.56-0.25 1.14c-0.59 1.61-2.21 3.19-9.15 4.86-8.78 2.12-13.18 3.17-18.08 1.13-1.41-0.59-6.53-2.73-8.8-8.25-0.67-1.61-2.39-5.78-0.57-8.58q0.16-0.24 0.39-0.44c10.34 5.13 9.9 7.33 14.82 7.93 1.34 0.17 9.64 1.2 13.4-2.86 0.48-0.52 1.41-1.67 2.42-1.5 1.27 0.21 1.38 2.34 2.55 4.22 0.86 1.37 1.83 1.85 3.27 2.36z"/>
				<path id="&lt;Path&gt;" class="s2" d="m1039.81 841.1c-0.15 2.32-0.41 4.48-0.71 6.46-2.36-6.08-5.33-12.96-9.66-23-2.75-6.36-3.97-8.95-5.47-13.66-3.81-11.99-4.37-21.83-4.48-24.38-0.71-15.74 3.08-27.79 6.16-37.28 1.49-4.57 3.08-8.63 4.59-12.11 0.11 1.86 0.21 4.2 0.21 6.89 0.03 7.84-0.72 13.58-0.94 15.52-1.84 15.98 1.72 34.09 2.1 35.95 2.39 11.82 4.57 12.4 6.94 26.28 1.27 7.49 1.65 13.28 1.26 19.34z"/>
			</g>
		</g>
	</g>
</svg>