<svg width="2000" height="2000" viewBox="0 0 2000 2000" fill="none" xmlns="http://www.w3.org/2000/svg">
<path d="M2000 0H0V2000H2000V0Z" fill="#F9F2A7"/>
<path fill-rule="evenodd" clip-rule="evenodd" d="M1089.49 299.506C1075.92 298.086 1065.52 299.136 1059.78 299.746C1049.78 300.816 1042.04 302.656 1038.02 303.706C1035.16 304.446 1026.99 306.676 1016.79 311.026C1011.32 313.356 1005.31 315.916 998.039 320.556C989.909 325.746 984.619 330.716 979.259 335.766C974.539 340.206 969.059 345.406 962.999 353.386C960.399 356.816 955.039 364.236 949.969 374.726C948.609 377.536 944.409 386.476 941.109 398.936C939.779 403.956 937.569 412.476 936.869 423.956C936.229 434.446 937.149 442.436 937.709 447.076C938.339 452.336 939.619 460.396 942.439 469.956C943.919 474.966 946.249 482.716 951.089 492.136C952.199 494.296 956.989 503.426 965.669 513.936C969.469 518.536 975.309 525.516 984.799 532.716C992.839 538.816 1000.09 542.476 1004.25 544.376C1005.87 545.126 1012.85 548.276 1022.6 550.786C1031.52 553.086 1038.53 553.766 1040.93 553.976C1040.97 553.976 1050.73 554.816 1059.29 553.876C1061.41 553.646 1062.47 553.526 1063.11 553.346C1063.58 553.216 1064 553.076 1064.37 552.946C1065.28 552.636 1065.89 552.426 1066.23 552.746C1066.33 552.846 1066.55 553.136 1066.26 554.496C1065.84 556.436 1065 557.716 1065 557.716C1063.05 560.676 1061.08 564.586 1060.27 567.346C1060.03 568.176 1059.83 568.856 1059.71 569.836C1059.62 570.566 1059.63 571.046 1059.64 571.446C1059.65 571.956 1059.65 572.336 1059.46 572.956C1059.34 573.356 1058.93 574.636 1057.78 575.376C1057.06 575.846 1056.33 575.916 1056.09 575.936H1056.06C1053.92 576.146 1049.5 578.446 1045.69 580.426L1045.63 580.456C1032.45 587.316 1025.86 590.746 1020.05 595.556C1012.31 601.966 1007.12 608.706 1002.25 615.036C1000.4 617.436 999.419 618.856 998.549 620.116C997.519 621.606 996.649 622.866 994.679 625.276C992.759 627.616 987.509 633.816 977.859 641.956C973.559 645.586 970.699 647.646 959.499 655.556C944.109 666.416 936.419 671.846 934.139 673.356C926.959 678.076 917.739 684.126 904.989 691.016C897.549 695.036 887.999 700.156 874.999 705.306C869.709 707.406 867.309 708.136 863.169 709.396C859.469 710.516 854.379 712.066 844.589 715.396C820.329 723.636 813.639 727.026 809.969 728.986C790.369 739.506 773.379 749.706 757.599 765.196C734.999 787.396 719.859 817.796 721.419 868.596C721.419 877.196 721.629 885.676 721.419 894.416C721.379 895.876 721.349 897.156 721.329 898.166V898.316C721.009 910.256 720.849 916.246 719.859 921.186C718.289 929.006 715.899 934.786 713.969 939.366C711.989 944.086 708.869 951.396 702.929 959.646C697.349 967.406 691.909 972.366 687.169 976.676C684.489 979.116 676.399 986.476 669.749 991.176L669.699 991.206C669.049 991.666 666.249 993.666 662.949 996.706L662.929 996.726C660.849 998.656 659.799 999.626 658.959 1000.85C657.299 1003.25 656.769 1005.51 655.729 1011.36C654.849 1016.33 654.409 1018.82 654.259 1020.19C653.359 1028.56 650.389 1041.58 646.689 1057.82L646.659 1057.93C642.149 1077.72 639.779 1088.11 635.089 1101.65L635.069 1101.69C633.589 1105.95 631.639 1111.59 628.529 1118.92C627.829 1120.58 627.489 1121.32 626.389 1123.76C625.329 1126.11 623.549 1130.02 620.049 1137.84C617.889 1142.67 616.959 1144.77 616.509 1145.79C616.099 1146.7 616.089 1146.73 615.919 1147.09C615.479 1148 613.939 1151.47 610.889 1158.34V1158.36L610.599 1159C609.379 1161.75 608.419 1163.98 609.129 1166.5C609.249 1166.93 609.459 1167.5 611.229 1169.93C612.569 1171.77 613.619 1173.04 614.469 1174.08C615.919 1175.83 616.789 1176.9 617.529 1178.83C618.079 1180.27 618.319 1181.55 618.299 1182.83C618.279 1184.36 617.899 1185.52 617.749 1185.94V1185.98C616.989 1188.19 616.399 1190.45 615.809 1192.71C615.379 1194.38 614.939 1196.04 614.449 1197.68C613.659 1200.29 610.989 1209.67 612.769 1215.97V1216.01C613.169 1217.39 613.629 1219.02 615.079 1220.18C616.049 1220.95 616.889 1221.37 617.579 1221.71C618.059 1221.95 618.469 1222.16 618.799 1222.42C619.029 1222.51 619.429 1222.66 619.939 1222.86H619.949C621.539 1223.46 624.179 1224.46 625.859 1225.26L546.779 1253.12L322.379 1471.98L1395.58 1007.78L1677.38 1229.58L1395.58 954.046L1240.58 1008.66C1241.13 1007.78 1241.98 1006.29 1242.58 1005.22L1242.77 1004.89C1242.85 1004.74 1242.93 1004.61 1243 1004.49C1243.13 1004.3 1243.32 1004.02 1243.57 1003.66C1244.75 1001.93 1247.24 998.276 1251.55 992.506C1253.95 989.296 1255.15 987.686 1256.24 986.766C1257.63 985.596 1258.57 985.136 1259.65 984.596C1260.61 984.126 1261.67 983.596 1263.25 982.486C1264.49 981.606 1267.46 979.486 1269.91 976.046C1271.65 973.596 1272.56 971.276 1273.55 968.056C1275.58 961.476 1276.41 956.166 1276.83 953.486L1276.88 953.156L1276.91 952.926C1278.05 945.796 1280.03 939.966 1283.99 928.296C1286.09 922.126 1287.61 917.636 1290.37 911.586C1292.99 905.816 1295.49 901.356 1299.55 894.136C1301.1 891.376 1302.3 889.296 1303.26 887.636C1305.67 883.486 1306.59 881.906 1307.71 878.576C1309.84 872.236 1310.21 866.996 1310.3 864.626C1310.42 861.606 1310.57 856.166 1308.45 849.636C1307.65 847.186 1306.47 843.646 1303.58 839.896C1301.46 837.156 1299.37 835.506 1296.85 833.556C1294.11 831.436 1292.23 830.326 1289.84 828.936C1288.93 828.406 1287.96 827.836 1286.83 827.146C1280.87 823.516 1276.65 820.256 1273.03 817.466L1272.95 817.406C1270.57 815.566 1266.52 812.416 1261.64 807.876C1259.81 806.176 1258.93 805.266 1258 804.306C1256.98 803.256 1255.89 802.126 1253.41 799.816C1252.44 798.916 1251.54 797.956 1250.63 796.996C1249.49 795.786 1248.35 794.586 1247.1 793.506C1246.61 793.086 1246.22 792.556 1245.82 792.036C1245.44 791.526 1245.05 791.006 1244.57 790.586C1244.46 790.486 1244.13 790.196 1244.11 789.786C1244.11 789.646 1244.15 789.536 1244.17 789.466C1245.11 787.876 1246.43 785.606 1247.96 782.846C1250.11 778.956 1253.14 773.496 1255.89 767.396C1257.82 763.126 1260.17 757.916 1262.04 750.996C1264.57 741.646 1264.85 734.176 1265.04 728.496C1265.38 717.796 1264.17 709.656 1263.46 705.006C1262.23 696.976 1260.49 690.506 1259.57 687.086C1258.58 683.426 1257.63 680.356 1256.89 678.096C1257.33 676.436 1257.89 674.136 1258.41 671.376C1259.05 667.976 1259.73 663.336 1259.99 656.076C1260.31 647.536 1259.85 640.956 1259.52 636.316C1258.64 624.086 1256.99 614.946 1256.52 612.456C1255.19 605.296 1253.77 599.856 1252 593.066C1251.51 591.166 1251.05 589.476 1250.63 587.906C1249.13 582.336 1248.08 578.426 1247.33 572.776C1246.97 570.096 1247.01 569.506 1247.1 568.116C1247.2 566.766 1247.34 564.656 1247.22 559.116C1247.2 558.246 1247.16 556.546 1248.01 554.656C1248.27 554.056 1249.29 551.946 1251.53 550.556C1253.6 549.266 1256 549.366 1260.79 549.556H1260.83C1263.36 549.656 1264.91 549.736 1266.93 550.396C1268.89 551.046 1270.18 551.886 1271.26 552.596H1271.28C1271.39 552.676 1271.5 552.746 1271.61 552.816C1271.64 552.836 1276.38 555.886 1282.59 557.906C1284.11 558.406 1288.54 559.726 1294.36 559.536C1300.44 559.336 1304.87 557.596 1307.08 556.696C1313.42 554.136 1317.33 550.646 1319.59 548.606C1322.45 546.006 1323.19 544.626 1323.53 543.926C1324.01 542.916 1324.17 542.186 1324.39 541.206C1324.56 540.406 1324.78 539.446 1325.23 538.036C1325.33 537.716 1325.45 537.366 1325.58 536.986C1326.62 534.026 1327.26 533.206 1327.58 532.836C1328.3 531.996 1328.86 531.676 1329.54 531.296C1330.07 530.996 1330.67 530.656 1331.47 529.996C1331.96 529.586 1334.05 527.796 1335.2 525.056C1336.05 523.036 1336.02 521.366 1335.93 518.436C1335.87 516.386 1335.65 515.126 1335.35 513.376C1335.18 512.396 1334.99 511.266 1334.78 509.766C1334.53 508.026 1334.26 505.686 1334.09 502.886C1334.79 501.566 1335.98 498.816 1335.72 495.316C1335.65 494.346 1335.39 492.296 1333.93 489.486C1332.27 486.266 1330.31 484.506 1327.16 481.746C1326.9 481.516 1326.62 481.276 1326.34 481.026C1326.2 480.906 1326.06 480.786 1325.92 480.656L1325.74 480.496C1325.54 480.316 1325.33 480.136 1325.13 479.956C1325.03 479.866 1324.92 479.766 1324.81 479.676C1324.71 479.586 1324.6 479.486 1324.5 479.396C1322.18 477.296 1319.31 474.576 1314.35 469.856C1312.56 468.146 1311.68 467.286 1310.8 466.416C1309.82 465.446 1308.81 464.456 1306.51 462.266C1302.24 458.206 1300.04 456.126 1297.16 453.696C1296.76 453.356 1296.34 453.016 1295.76 452.536L1295.74 452.516C1294.89 451.816 1293.71 450.826 1291.74 449.176L1291.45 448.926H1291.44C1289.99 447.696 1289.52 447.306 1288.59 446.546L1288.36 446.356C1285.79 444.266 1284.5 443.216 1284.2 443.036C1284.17 443.016 1283.71 442.656 1282.81 441.946C1282.53 441.716 1282.21 441.466 1281.85 441.176C1281.55 440.946 1281.07 440.546 1281.03 439.986C1281.01 439.616 1281.2 439.326 1281.27 439.226V439.206C1281.91 438.256 1282.01 434.686 1281.49 431.186C1281.15 428.956 1280.75 426.276 1279.11 423.236C1278.16 421.486 1276.87 419.106 1275.39 418.256C1275.31 418.206 1274.6 417.816 1274.08 417.016C1273.59 416.276 1273.63 415.756 1273.65 415.596C1273.69 415.236 1273.85 414.986 1273.89 414.926C1274.44 414.006 1276.4 407.206 1277.35 403.436C1280.16 392.386 1280.89 383.256 1280.89 383.256C1281.68 373.496 1280.93 366.166 1280.75 364.546C1280.43 361.566 1279.84 356.346 1277.91 349.756C1276.59 345.226 1274.67 338.856 1270 331.716C1268.45 329.356 1265.56 325.006 1260.47 320.576C1254.22 315.136 1248.22 312.656 1244.81 311.296C1243.35 310.706 1237.81 308.546 1230.16 307.436H1230.08C1222.73 306.376 1217.01 306.806 1214.01 307.056C1211.57 307.256 1208.8 307.496 1205.18 308.316C1202.2 308.996 1197.32 310.376 1191.87 313.256C1188.95 314.796 1186.59 316.496 1181.89 319.876L1181.85 319.906C1180.36 320.976 1178.45 322.486 1174.63 325.516C1174.63 325.516 1174.42 325.676 1172.28 327.546C1171.29 328.406 1170.13 329.436 1169.55 330.556C1169.22 331.186 1169.06 331.636 1169.06 331.646C1168.96 331.916 1168.91 332.096 1168.88 332.246C1168.83 332.446 1168.79 332.586 1168.67 332.806C1168.52 333.086 1168.28 333.526 1167.76 333.776C1167.69 333.806 1167.06 334.096 1166.43 333.846C1165.83 333.606 1165.54 333.016 1165.46 332.856V332.826C1165.1 332.116 1161.07 326.926 1144.53 317.866L1144.49 317.846C1136.86 313.666 1129.95 309.886 1119.69 306.306C1105.83 301.466 1094.42 299.986 1089.49 299.476V299.506ZM827.699 960.856C832.359 956.096 836.129 951.946 838.839 948.876C839.109 949.136 839.509 949.576 839.839 950.206C840.489 951.466 840.419 952.686 840.389 953.216C840.179 956.636 840.099 958.446 840.059 959.516C839.999 960.936 839.989 961.056 839.829 961.916C839.489 963.786 838.839 967.276 837.519 971.026C833.409 982.686 824.229 992.896 822.029 995.276C813.329 1004.72 808.929 1008.6 808.929 1008.6L808.699 1008.8C806.729 1010.53 804.129 1012.82 802.339 1016.72C801.679 1018.18 800.259 1021.4 800.729 1025.48C801.049 1028.26 802.099 1030.12 803.949 1033.33C806.669 1038.03 809.479 1041.21 810.529 1042.37C813.919 1046.11 816.619 1048.35 819.369 1050.65C819.709 1050.93 820.049 1051.21 820.389 1051.49C820.769 1051.81 821.149 1052.13 821.529 1052.46C826.439 1056.65 830.599 1061.26 838.889 1070.44L838.979 1070.54L839.049 1070.62C844.979 1077.18 847.949 1080.48 850.749 1084.2C851.719 1085.49 852.569 1086.61 853.339 1087.62C858.229 1094.04 859.609 1095.85 862.069 1103.41C863.469 1107.72 864.039 1109.08 865.519 1112.65C865.699 1113.09 865.899 1113.56 866.119 1114.08C866.429 1114.84 867.119 1116.51 868.779 1117.73C870.059 1118.67 871.409 1118.89 874.109 1119.34C875.209 1119.52 875.899 1119.58 877.159 1119.69H877.169C878.039 1119.77 879.169 1119.86 880.899 1120.04C881.179 1120.07 881.439 1120.1 881.699 1120.12C882.439 1120.2 883.049 1120.27 883.499 1120.32C885.289 1120.52 890.179 1127.81 891.999 1131.53L676.679 1207.39C676.269 1206.8 676.179 1205.17 676.119 1204.05C676.089 1203.53 676.069 1203.12 676.019 1202.99C674.769 1199.43 672.749 1196.24 670.709 1193.04C669.489 1191.12 668.279 1189.21 667.219 1187.21C665.709 1184.35 664.749 1182.67 664.089 1181.54C663.119 1179.85 662.829 1179.35 662.449 1177.89C661.199 1173.08 661.879 1169.04 662.309 1166.68C666.399 1144.04 667.419 1140.22 667.429 1140.19C672.259 1122.3 674.679 1113.36 675.489 1110.97C679.769 1098.42 683.979 1089.36 686.979 1082.94C692.879 1070.35 696.819 1061.92 704.359 1051.69C707.919 1046.85 712.009 1041.38 718.729 1035.5C724.729 1030.26 729.449 1027.66 739.089 1022.34L740.239 1021.7C757.169 1012.35 765.629 1007.68 773.729 1002.85C785.699 995.716 793.179 991.266 802.809 983.646C813.979 974.826 822.679 965.986 827.689 960.876V960.856H827.699ZM1023.68 909.156C1028.81 907.476 1033.08 905.826 1036.24 904.536C1036.66 906.036 1037.22 908.346 1037.61 911.206C1038.17 915.356 1038.08 918.526 1038.03 920.096V920.246C1037.86 926.186 1037.66 932.996 1038.5 939.426C1038.88 942.326 1040.19 947.106 1042.81 956.626L1042.86 956.816C1043.1 957.676 1043.32 958.466 1043.53 959.206C1044.5 962.686 1045.15 965.036 1045.81 968.636C1046.28 971.206 1046.76 974.476 1047.12 979.466C1048.03 991.926 1047.28 1002.5 1047.12 1004.54C1046.52 1012.5 1046.27 1014.87 1043.42 1025.52C1043.28 1026.05 1043.12 1026.63 1042.95 1027.24C1041.78 1031.52 1040.07 1037.71 1039.06 1046.33C1038.78 1048.69 1038.62 1050.64 1038.54 1051.95C1039.61 1052.31 1041.06 1052.87 1042.69 1053.74H1042.71C1044.46 1054.69 1046.82 1055.96 1048.94 1058.47C1050.84 1060.71 1051.54 1066.69 1051.94 1070.17C1052.07 1071.29 1052.17 1072.14 1052.27 1072.54C1052.48 1073.35 1052.62 1074.13 1052.72 1074.87L939.179 1114.88C938.519 1114.12 937.749 1113.31 936.859 1112.49C934.389 1110.2 932.239 1108.99 929.729 1107.57C928.959 1107.14 928.159 1106.69 927.299 1106.18C924.529 1104.53 922.249 1102.81 917.699 1099.39L917.639 1099.35C910.619 1094.06 906.049 1089.07 899.819 1082.27C897.029 1079.22 891.749 1073.28 885.679 1065.24C884.109 1063.15 879.759 1055.99 871.119 1041.75C870.549 1040.81 869.339 1038.76 868.859 1035.86C868.689 1034.8 868.159 1031.34 869.809 1027.71C870.889 1025.31 872.469 1023.86 873.749 1022.72C881.759 1015.61 885.519 1013.47 885.519 1013.47C895.459 1007.82 907.419 1000.1 911.689 997.176C922.869 989.526 929.829 981.566 935.019 975.626C939.269 970.766 946.819 962.026 953.519 949.136C958.929 938.716 962.569 927.926 964.239 922.986V922.966C964.849 921.166 965.329 919.646 965.659 918.606C970.389 918.396 976.709 918.016 984.159 917.236C990.719 916.556 995.639 916.046 1002.29 914.766C1004.53 914.336 1012.91 912.676 1023.68 909.146V909.156ZM1149.76 866.016C1153.89 863.616 1157.12 861.356 1159.27 859.766C1161.38 860.786 1164.42 862.156 1168.16 863.546C1170.62 864.456 1179.62 867.706 1194.43 869.746C1198.26 870.276 1199.9 870.366 1201.72 870.476C1203.66 870.586 1205.82 870.706 1211.04 871.376C1216.45 872.066 1219.45 872.626 1221.74 873.036C1224.57 873.556 1226.28 873.866 1230.06 873.996C1232.04 874.066 1234.01 874.236 1235.98 874.406H1235.99C1238.67 874.636 1241.35 874.866 1244.04 874.836H1244.07C1245 874.836 1247.81 874.796 1250.93 876.156C1252.3 876.746 1254.28 877.636 1255.34 879.676C1256 880.936 1256.05 882.126 1256.08 883.516C1256.15 886.466 1255.41 888.726 1255.25 889.226V889.246C1254.4 891.796 1254.12 893.536 1253.8 895.566C1253.4 898.036 1252.94 900.946 1251.3 906.276C1249.39 912.486 1247.78 917.736 1244.1 924.146C1242.43 927.056 1239.13 932.806 1234.11 937.386C1232.55 938.816 1228.96 941.836 1225.23 944.746C1224.46 945.346 1223.82 945.836 1223.39 946.166C1223.48 949.216 1223.72 951.666 1223.92 953.366C1223.95 953.676 1223.99 953.966 1224.03 954.236C1224.05 954.406 1224.07 954.566 1224.09 954.716C1224.37 956.866 1224.53 958.106 1224.02 959.776C1223.84 960.356 1223.26 962.206 1221.66 963.616C1220.34 964.776 1219.08 964.976 1216.59 965.366C1216.13 965.436 1215.63 965.516 1215.09 965.606C1208.73 966.676 1205.05 968.006 1202.32 969.446C1201.25 970.006 1200.34 970.576 1199.48 971.496C1197.58 973.516 1197.08 975.896 1196.8 977.386C1195.42 984.616 1195.17 990.906 1195.17 990.946V991.116H1195.16C1194.93 997.076 1194.81 1000.08 1194.96 1002.31C1195.11 1004.65 1195.33 1006 1196.1 1010.76V1010.81C1196.32 1012.07 1196.56 1013.57 1196.85 1015.39C1197.4 1018.79 1197.84 1021.64 1198.15 1023.66L1106.77 1055.86C1104.14 1052.53 1102.15 1049.51 1100.68 1047.08C1098.34 1043.25 1096.42 1040.04 1094.95 1035.36C1094.6 1034.28 1093.71 1031.29 1093 1024.33C1092.41 1018.52 1092.29 1013.23 1092.48 1005.14C1092.71 995.316 1092.82 990.406 1093.32 987.166C1094.38 980.216 1096.67 974.066 1101.25 961.786C1102.23 959.156 1103.06 957.046 1103.75 955.266C1105.82 949.976 1106.75 947.586 1107.35 943.076C1108.09 937.496 1108 931.106 1107.98 929.516C1107.94 926.356 1107.78 924.366 1107.64 922.706C1107.49 920.766 1107.37 919.266 1107.51 916.846C1107.75 912.756 1108.52 909.746 1110.71 902.766C1112.51 897.046 1114.93 889.656 1118.07 881.006C1122.54 878.916 1126.26 877.206 1128.9 876.006C1131.41 874.866 1133.55 873.896 1135.42 873.056C1142.3 869.956 1145.43 868.546 1149.76 866.016ZM1077.34 457.246C1072.63 453.426 1062.04 444.826 1059.05 430.136C1057.98 424.856 1058.19 420.296 1058.58 417.166C1063.95 414.576 1072.35 411.386 1083.02 410.586C1100.66 409.276 1114.2 415.306 1120.22 418.466C1118.29 414.286 1114.68 407.826 1108.24 401.756C1091.46 385.956 1070.15 386.726 1066.3 386.936C1061.12 387.216 1046.66 388.216 1034.46 398.916C1027.16 405.316 1023.72 412.506 1021.53 417.206C1019.37 421.826 1015.04 431.396 1015.54 444.326C1016.19 461.236 1024.68 472.746 1027.52 476.486C1030.85 480.866 1037.41 489.296 1049.28 494.146C1065.1 500.616 1079.56 496.326 1085.85 494.466H1085.86C1090.33 493.136 1103.02 488.816 1113.92 477.116C1116.92 473.886 1119.08 470.856 1120.54 468.596C1116.4 469.436 1109.8 470.256 1101.94 468.916C1089.23 466.736 1081 460.216 1077.34 457.246Z" fill="#002A12"/>
<path d="M602.398 1389.49L1395.6 1046.4L1623.6 1225.85L1395.6 1115.87L602.398 1389.49Z" fill="#EF7D00"/>
<path d="M1210.27 534.367C1209.33 534.577 1208.56 534.777 1207.98 534.947C1207.58 535.067 1205.94 535.607 1203.65 535.917C1201.42 536.227 1199.69 536.167 1198.88 536.137C1189.38 535.777 1184.63 535.597 1183.74 535.437C1181.49 535.017 1174.26 533.417 1167.83 527.937C1161.52 522.567 1159.22 516.217 1156.55 508.877C1155.12 504.957 1153.48 499.337 1152.69 492.307C1153.12 489.407 1153.75 487.067 1154.24 485.477C1155.19 491.507 1157.84 502.517 1166.22 513.087C1170.84 518.917 1178.5 528.567 1188.85 530.047C1199.13 531.517 1204.26 532.247 1207 531.657C1207.67 531.517 1209.9 530.987 1210.58 531.937C1210.98 532.507 1210.71 533.467 1210.27 534.367Z" fill="#88B767"/>
<path d="M1316.53 537.688C1316.08 538.908 1314.78 541.648 1309.24 544.488C1306.56 545.858 1301.06 548.678 1293.19 548.198C1286.99 547.828 1285.46 545.778 1274.06 541.538C1274.06 541.538 1272.57 540.978 1270.15 540.168C1270.31 539.218 1270.65 538.308 1271.12 537.548C1271.85 536.358 1272.91 535.518 1274.09 534.918C1276.77 535.058 1278.34 534.888 1278.34 534.888C1279.32 534.778 1280.3 534.678 1281.28 534.578C1281.36 534.578 1281.44 534.568 1281.52 534.558C1281.68 534.538 1281.84 534.528 1282 534.518C1283.79 534.348 1285.59 534.198 1287.38 534.058C1287.62 534.038 1287.84 534.018 1288.06 533.998C1288.47 533.968 1288.85 533.938 1289.2 533.908C1289.82 533.858 1290.43 533.808 1291.02 533.768C1292.18 533.678 1293.27 533.588 1294.29 533.508C1294.64 533.488 1294.97 533.458 1295.3 533.428C1296.12 533.368 1296.91 533.308 1297.66 533.258C1297.85 533.238 1298.03 533.228 1298.2 533.218C1298.81 533.178 1299.39 533.138 1299.95 533.108C1300.11 533.108 1300.27 533.088 1300.42 533.078C1300.7 533.058 1300.97 533.048 1301.24 533.038C1302.62 532.958 1303.88 532.918 1305.07 532.898C1305.89 532.878 1306.66 532.878 1307.39 532.898C1307.71 532.898 1308.02 532.908 1308.33 532.918C1312.1 533.038 1315.16 533.378 1317.09 533.618C1317.15 534.608 1317.12 536.078 1316.53 537.678V537.688Z" fill="#88B767"/>
<path d="M1140.51 445.689C1135.62 441.719 1128.31 436.709 1118.54 432.969C1112.92 430.819 1105.08 427.819 1096.36 427.929C1091.7 427.989 1086.89 426.749 1082.38 427.929C1081.84 428.069 1079.37 428.749 1076.91 427.719C1076.35 427.479 1074.99 426.909 1074.92 426.039C1074.9 425.799 1074.97 425.569 1075.12 425.339C1082.27 423.409 1088.42 422.839 1092.85 422.719C1102.73 422.439 1116.86 423.979 1123.62 428.399C1125.42 429.579 1127.34 430.549 1129.25 431.539C1130.51 432.899 1131.78 434.359 1133.15 435.939C1136.42 439.719 1138.84 443.159 1140.51 445.719V445.689Z" fill="#88B767"/>
<path d="M1326.83 493.747C1326.09 495.207 1325.07 496.927 1323.68 498.727C1322.08 500.787 1320.44 502.347 1319.05 503.487C1316.9 502.297 1315.26 501.157 1314.14 500.337C1310.46 497.607 1309.61 496.087 1307 495.577C1305.84 495.347 1305.68 495.577 1303.07 495.227C1301.03 494.947 1300 494.807 1298.94 494.387C1297 493.627 1297.03 492.937 1294.52 491.797C1292.25 490.757 1291.4 490.937 1291.09 491.027C1289.62 491.447 1288.92 492.897 1288.85 493.057C1287.96 494.987 1289.01 497.087 1290.18 499.437C1291.42 501.917 1292.49 504.067 1294.74 504.907C1295.86 505.327 1296.08 504.967 1299.22 505.117C1301.58 505.227 1303.23 505.307 1304.9 505.817C1308.3 506.857 1310.36 509.277 1311.41 510.507C1312.97 512.337 1314.59 514.237 1314.78 517.167C1314.81 517.677 1314.96 520.787 1312.88 523.267C1312.83 523.337 1312.77 523.407 1312.71 523.467C1312.67 523.507 1312.63 523.547 1312.6 523.587C1311.2 525.057 1309.31 525.647 1304.62 526.567C1298.62 527.967 1295.61 528.667 1291.76 528.597H1291.7C1291.18 528.617 1290.67 528.617 1290.18 528.597C1288.83 528.537 1287.82 528.427 1286.83 528.277C1286.06 528.227 1285.12 528.167 1283.94 528.107C1281.51 527.977 1279.51 527.897 1278.19 527.847C1276.88 527.817 1275.09 527.747 1272.95 527.567C1272.41 527.527 1271.84 527.467 1271.26 527.407C1268.5 527.127 1267.26 526.867 1266.88 527.477C1265.27 526.587 1263.58 525.627 1262.89 523.727C1262.49 522.647 1262.58 521.727 1262.68 520.817C1262.79 519.717 1263.18 516.127 1266.36 513.677C1269.58 511.177 1273.24 511.747 1273.85 511.857C1273.84 510.367 1273.86 508.207 1274.06 505.617C1274.49 500.177 1274.7 497.457 1275.99 494.577C1276.43 493.597 1279.13 487.807 1285.24 485.297C1287.8 484.237 1289.93 484.177 1294 484.067C1298.06 483.957 1301.44 484.367 1303.77 484.767C1301.8 483.677 1298.98 481.927 1296 479.267C1293.36 476.927 1291.99 475.107 1290.18 472.957C1290.18 472.957 1284.56 466.287 1277.78 460.447C1272.58 455.977 1269.75 453.547 1265.23 451.237C1261.56 449.347 1258.57 446.347 1255.11 444.087C1254.67 443.807 1253.4 442.977 1253.11 441.567C1252.93 440.677 1253.14 439.537 1253.85 438.797C1254.48 438.137 1255.02 438.327 1255.88 437.747C1255.88 437.747 1257.07 436.937 1257.6 435.147C1258.48 432.147 1254.57 428.387 1253.08 426.987C1249.8 423.907 1248.16 423.767 1244.14 421.097C1241.87 419.587 1239.12 416.937 1233.63 411.637C1226.18 404.447 1226.83 404.487 1224.28 402.597C1221.71 400.697 1217.54 397.617 1211.45 395.977C1208.2 395.097 1206.14 395.097 1204.51 394.827C1204.53 394.587 1204.54 394.357 1204.55 394.117C1204.68 389.997 1203.2 386.717 1202.17 384.867C1208.11 385.797 1212.85 387.377 1216.18 388.727C1222.26 391.177 1230.04 394.307 1235.87 401.547C1237.92 404.087 1238.45 405.547 1241.41 408.627C1242.32 409.577 1245.43 412.717 1250.59 415.987C1256.89 419.977 1258 418.927 1262.29 422.437C1263.92 423.767 1267.17 426.707 1268.74 430.987C1268.74 430.987 1269.72 433.687 1269.23 437.157C1269.2 437.377 1269.16 437.597 1269.12 437.787C1268.98 438.387 1268.77 438.847 1268.39 438.977C1267.71 439.207 1267.2 438.167 1265.8 437.647C1264.65 437.227 1262.67 437.067 1261.8 438.207C1260.91 439.387 1261.74 441.227 1261.8 441.367C1265 442.867 1268.91 444.887 1273.22 447.527C1279.05 451.107 1283.5 454.527 1286.32 456.847C1289.75 459.657 1292.88 462.737 1299.15 468.897C1308.34 477.937 1307.43 477.617 1310.08 479.617C1314.45 482.917 1317.56 484.257 1322.27 488.797C1324.31 490.757 1325.84 492.537 1326.83 493.767V493.747Z" fill="#88B767"/>
<path d="M1296.8 863.913C1296.7 866.673 1296.28 870.803 1294.7 875.683C1294.49 872.753 1293.93 868.583 1292.39 863.803C1291.14 859.963 1289.1 853.633 1283.98 848.353C1281.41 845.713 1280.27 845.593 1270.31 840.053C1268.95 839.293 1261.15 834.943 1253.29 830.063C1245.12 825.003 1243.34 823.373 1235.42 818.713C1231.43 816.363 1228.08 814.543 1225.85 813.353C1228.69 809.883 1231.53 806.413 1234.37 802.953C1237.93 806.383 1242.7 810.783 1248.56 815.673C1258.84 824.253 1263.98 828.533 1271.68 833.013C1273.44 834.033 1280.2 837.903 1288.18 843.843C1291.17 846.063 1292.99 847.583 1294.49 850.143C1297.14 854.693 1296.96 859.423 1296.8 863.913Z" fill="#275F25"/>
<path d="M949.977 877.269C946.117 878.029 940.178 879.139 932.878 880.209C929.658 880.679 919.947 882.069 905.967 883.289C890.547 884.639 890.027 884.039 884.667 885.389C873.647 888.179 866.308 893.149 864.208 894.639C858.298 898.819 855.288 902.679 849.078 910.339C847.058 912.819 832.807 930.389 825.917 938.229C815.207 950.409 805.457 958.229 798.347 963.869C788.227 971.909 773.907 981.899 755.188 991.059C761.477 987.079 769.298 981.749 777.888 974.939C792.388 963.459 802.488 952.979 807.318 947.749C821.918 931.959 835.898 916.849 843.898 895.479C846.228 889.239 849.738 877.949 852.448 864.929C853.588 859.429 854.348 854.779 854.828 851.469C855.818 856.969 856.658 863.019 857.208 869.549C857.728 875.759 857.927 881.569 857.907 886.929C861.507 883.909 864.477 881.709 866.597 880.209C868.257 879.029 870.138 877.749 872.208 875.439C873.508 873.979 874.428 872.619 875.008 871.659C876.048 872.199 877.747 873.019 879.917 873.759C884.097 875.179 887.528 875.469 889.028 875.579C911.638 877.289 919.578 877.259 919.578 877.259C925.748 877.239 935.957 877.209 949.987 877.259H949.977V877.269Z" fill="#275F25"/>
<path d="M1117.28 490.307C1116.44 495.647 1114.14 505.587 1106.87 515.477C1100.53 524.097 1093.4 528.617 1089 531.347C1085.92 533.257 1075.88 539.158 1061.3 541.438C1046.44 543.758 1034.89 541.057 1028.67 539.547C1024.8 538.607 1011.29 535.048 996.658 524.828C980.918 513.848 972.558 501.228 968.648 495.188C959.118 480.478 955.228 466.987 953.618 460.237V460.217C953.478 457.118 953.378 453.518 953.408 449.467C953.518 436.637 953.648 420.678 959.928 403.008C964.648 389.728 971.338 379.707 976.288 373.438C976.648 374.178 977.068 374.937 977.538 375.737C980.498 380.697 983.898 383.388 988.998 387.348C992.938 390.408 998.618 394.747 1007.23 397.967C1010.33 399.117 1013.01 399.827 1014.96 400.277C1014.01 401.137 1012.76 402.457 1011.7 404.327C1011.04 405.507 1010.61 406.607 1010.33 407.527C1008.55 407.547 1006.76 407.567 1004.97 407.577C999.118 407.117 994.568 406.027 991.468 405.107C987.738 404.007 985.468 402.948 979.588 401.168C976.228 400.148 973.438 399.417 971.598 398.967C973.188 399.807 975.578 401.137 978.378 402.957C983.168 406.077 983.198 406.768 986.948 409.158C990.568 411.468 993.678 412.827 999.348 415.307C1000.51 415.807 1001.58 416.268 1002.54 416.658C1000.67 419.938 998.688 423.917 996.918 428.547C995.758 428.787 994.458 429.038 993.048 429.288C986.948 430.368 982.868 430.728 976.808 431.388C972.978 431.808 967.548 432.437 960.938 433.327C962.098 433.527 963.898 433.827 966.088 434.117C968.598 434.447 974.668 435.177 987.998 435.277C989.838 435.297 992.078 435.297 994.648 435.277C993.918 437.767 993.268 440.398 992.728 443.168C992.418 444.778 992.048 446.748 991.708 449.038C988.808 449.508 985.668 450.207 982.368 451.207C977.798 452.597 973.878 454.287 970.648 455.938C972.458 455.747 975.358 455.487 978.948 455.307C980.558 455.227 982.898 455.137 991.028 455.107C990.698 459.567 990.688 464.748 991.428 470.388C987.868 472.188 983.278 474.998 979.048 479.698C977.288 481.648 974.948 484.638 972.898 488.788C975.868 485.988 982.118 480.487 989.658 476.747C990.598 476.277 991.478 475.888 992.298 475.538C993.018 478.988 994.038 482.578 995.438 486.258C996.278 488.438 998.598 494.188 1003.1 500.888C998.988 504.988 997.278 507.548 996.018 510.168C994.928 512.438 993.708 515.727 994.338 516.107C995.118 516.577 997.708 511.957 1003.96 506.327C1004.51 505.837 1005.13 505.288 1005.84 504.698C1009.51 509.478 1014.26 514.478 1020.32 518.838H1020.33C1023.67 521.248 1027.42 523.468 1031.6 525.338C1034.17 526.488 1036.66 527.408 1039.04 528.148C1039.06 530.878 1039.37 533.257 1039.75 535.167C1040.15 533.217 1040.71 531.087 1041.45 528.847C1050.25 531.207 1057.01 531.068 1058.72 531.018C1059.49 530.998 1062.34 530.868 1066.39 530.148C1066.53 530.738 1066.67 531.327 1066.81 531.907C1066.89 531.607 1067.03 531.048 1067.18 530.328C1067.2 530.218 1067.23 530.097 1067.25 529.987C1073.38 528.817 1081.91 526.317 1090.09 520.967C1090.25 521.747 1090.33 522.247 1090.46 522.237C1090.61 522.237 1090.74 521.527 1090.79 520.497C1095.41 517.378 1099.88 513.338 1103.71 508.098C1105.34 505.868 1106.67 503.658 1107.77 501.557C1109.29 500.407 1110.67 499.177 1112.01 497.737C1113.43 496.197 1115.42 493.777 1117.27 490.277V490.307H1117.28Z" fill="#EF7D00"/>
<path d="M1047.91 377.469C1047.15 377.909 1046.4 378.349 1045.65 378.779C1044.08 379.659 1041.46 380.809 1038.34 380.519C1035.29 380.229 1033.34 378.719 1029.98 376.049C1015.99 364.919 1013.71 362.439 1012.11 360.599C1009.93 358.069 1008.27 355.839 1007.17 354.299C1008.35 358.809 1009.83 362.329 1010.96 364.699C1013.05 369.079 1016.71 376.559 1024.52 382.359C1026.53 383.849 1028.31 384.859 1029.46 385.459C1026.29 388.039 1023.11 390.609 1019.95 393.179C1011.06 390.529 1003.87 387.499 998.548 384.979C987.988 379.959 982.578 375.839 981.148 374.729C979.828 373.699 978.648 372.709 977.598 371.789C979.248 369.789 980.628 368.269 981.578 367.269C984.118 364.559 996.158 352.019 1016.48 343.089C1020.42 341.359 1025.5 339.399 1031.51 337.719C1031.31 343.669 1032.03 348.539 1032.77 351.969C1033.97 357.539 1035.97 366.249 1043.12 373.459C1044.94 375.299 1046.67 376.599 1047.91 377.459V377.469Z" fill="#EF7D00"/>
<path d="M1065.04 373.204C1063.77 373.864 1062.51 374.534 1061.25 375.204C1059.72 375.114 1057.51 374.804 1055.1 373.784C1053.76 373.214 1050.16 371.494 1042.38 359.594C1036.48 350.554 1034.35 345.114 1033.82 343.724C1032.93 341.404 1032.28 339.324 1031.82 337.644C1038.93 335.674 1047.35 334.104 1056.75 333.734C1056.45 336.484 1056.52 339.514 1056.63 344.094C1056.86 353.794 1057.02 358.764 1059.41 364.324C1061.19 368.464 1063.48 371.424 1065.04 373.204Z" fill="#EF7D00"/>
<path d="M1090.9 337.963C1089.04 342.563 1087.75 346.623 1086.84 349.863C1085.64 354.183 1084.51 358.293 1084.01 363.893C1083.62 368.243 1083.74 371.923 1083.96 374.563C1082.71 374.563 1080.97 374.443 1078.96 373.983C1078.96 373.983 1076.24 373.363 1073.92 372.193C1072.49 371.473 1068.76 368.893 1064.72 352.853C1062.99 345.973 1061.69 340.693 1061.49 333.633C1063.4 333.633 1065.36 333.703 1067.35 333.823C1069.91 333.983 1079.11 334.633 1090.9 337.943V337.963Z" fill="#EF7D00"/>
<path d="M1116.15 348.294C1114.69 350.094 1113.2 352.064 1111.6 354.544C1105.89 363.364 1103.71 370.844 1103.24 372.524C1102.3 375.864 1101.82 378.704 1101.56 380.664C1100.42 380.344 1099.28 380.034 1098.14 379.724C1096.35 379.204 1093.78 378.124 1092.31 375.724C1090.78 373.224 1091.23 370.584 1091.52 368.054C1092.37 360.654 1090.73 363.774 1091.31 347.554C1091.4 345.094 1091.55 341.934 1091.81 338.234C1092.75 338.504 1093.71 338.794 1094.67 339.094C1103.47 341.884 1110.73 345.304 1116.15 348.294Z" fill="#EF7D00"/>
<path d="M1138.77 364.784C1131.51 369.404 1128.05 372.994 1126.26 375.624C1123.47 379.734 1119.2 383.144 1117.85 387.924C1117.78 388.184 1117.46 389.464 1116.49 389.874C1116.11 390.024 1115.75 390.004 1115.54 389.974C1113.82 388.534 1112.11 387.104 1110.39 385.664C1110.43 384.284 1110.53 382.214 1110.81 379.724C1112.05 368.764 1115.59 360.854 1119.06 353.234C1119.43 352.414 1119.83 351.564 1120.26 350.664C1122.33 351.914 1123.97 353.004 1125.15 353.804C1127.34 355.294 1132.54 358.954 1138.77 364.784Z" fill="#EF7D00"/>
<path d="M1155.98 384.745C1154.17 385.565 1151.74 386.595 1145.44 389.915C1137.05 394.355 1132.86 396.565 1131.83 397.745C1131.56 398.065 1130.3 399.545 1128.26 400.065C1127.72 400.205 1126.21 400.575 1125.16 399.745C1124.94 399.565 1124.27 398.975 1124.11 397.165C1123.85 394.365 1125.11 392.075 1125.32 391.695C1131.83 379.835 1130.67 379.205 1136.35 371.775C1137.53 370.235 1138.95 368.475 1140.63 366.555C1142.9 368.755 1145.26 371.235 1147.65 373.985C1150.84 377.655 1153.59 381.265 1155.98 384.735V384.745Z" fill="#EF7D00"/>
<path d="M1172.36 416.495C1168.19 417.675 1163.32 418.275 1156.27 419.115C1148.94 419.995 1142.84 420.225 1138.68 420.275C1135.58 416.985 1134.19 413.825 1133.51 411.835C1132.18 407.865 1133.01 406.465 1133.25 406.105C1134.18 404.735 1135.98 404.465 1136.51 404.375C1143.13 403.205 1154.65 393.025 1158.86 389.125C1163.32 396.225 1166.24 402.445 1168.25 406.785C1169.95 410.455 1171.3 413.755 1172.36 416.495Z" fill="#EF7D00"/>
<path d="M1239.56 329.879C1236.44 328.939 1232.28 328.319 1227.64 329.319C1224.28 330.039 1221.66 331.409 1219.86 332.579C1219.22 331.659 1218.17 330.339 1216.6 329.109C1212.51 325.909 1207.88 325.649 1202.83 325.429C1200.02 325.309 1195.98 325.389 1191.17 326.369C1194.91 323.709 1201.49 319.749 1210.51 317.859H1210.52C1213.68 318.009 1217.31 318.509 1221.23 319.639C1223.93 320.419 1231.84 322.979 1239.56 329.869V329.879Z" fill="#EF7D00"/>
<path d="M1252.26 348.174C1251.88 347.974 1251.49 347.794 1251.08 347.614C1248.39 346.454 1245.73 346.074 1237.1 346.244C1234.39 346.304 1230.89 346.414 1226.8 346.664C1226.63 345.494 1226.34 344.134 1225.85 342.664C1225.09 340.384 1224.1 338.554 1223.22 337.204C1225.09 335.804 1228.12 333.884 1232.26 332.684C1235.77 331.664 1238.94 331.494 1241.41 331.624C1241.73 331.934 1242.04 332.254 1242.35 332.584C1247.52 338.004 1250.48 343.664 1252.26 348.174Z" fill="#EF7D00"/>
<path d="M1256.27 372.786C1254.87 371.566 1253.58 370.656 1252.55 369.996C1247.26 366.626 1242.15 365.636 1238.04 364.846C1234.75 364.206 1231.98 363.986 1230.05 363.896C1230.01 362.146 1229.92 360.286 1229.74 358.326C1229.53 356.046 1229.24 353.896 1228.9 351.916C1232.54 351.176 1236.81 350.566 1241.62 350.336C1245.86 350.146 1249.73 350.286 1253.16 350.616C1253.67 352.116 1254.04 353.416 1254.33 354.436C1256.19 360.996 1256.56 366.886 1256.27 372.776V372.786Z" fill="#EF7D00"/>
<path d="M1256.07 375.797C1255.79 379.147 1255.34 382.537 1254.87 386.087C1254.05 392.167 1252.89 397.447 1251.76 401.697C1251.74 401.677 1251.73 401.657 1251.71 401.647C1246.69 396.597 1245.07 393.787 1240.47 390.087C1236.29 386.727 1232.31 384.767 1229.74 383.677C1229.85 379.367 1229.95 375.057 1230.06 370.747C1231.91 370.707 1234.48 370.747 1237.52 371.067C1243.35 371.677 1247.67 372.977 1250.35 373.797C1252.01 374.307 1253.94 374.967 1256.07 375.807V375.797Z" fill="#EF7D00"/>
<path d="M1327.88 516.937C1327.26 521.197 1325.66 524.347 1324.58 526.117C1324.37 526.397 1323.93 526.857 1323.25 527.097C1321.69 527.647 1320.24 526.507 1320.1 526.397C1318.61 525.187 1318.67 522.977 1318.7 521.697C1318.8 517.747 1320.85 514.797 1322.27 512.797C1323.29 511.377 1324.92 509.407 1327.39 507.477C1327.89 509.457 1328.47 512.827 1327.88 516.937Z" fill="#88B767"/>
<path d="M1105.4 622.049C1102.79 619.929 1098.84 617.069 1093.63 614.479C1089.27 612.319 1079.04 607.229 1067.03 607.959C1055.71 608.649 1048.06 614.189 1039.39 620.469C1024.64 631.149 1016.72 644.219 1012.8 650.849C1009.59 656.269 1007.04 661.679 1005.65 664.619C1000.51 675.519 997.079 685.339 996.709 686.379C994.179 693.669 993.389 697.259 992.759 698.379C992.629 693.709 992.779 687.799 993.699 681.049C994.059 678.399 995.699 667.069 1001.9 651.969C1006.83 639.949 1011.11 629.549 1021.17 618.679C1031.73 607.289 1042.39 602.149 1052.14 597.449C1055.88 595.649 1059.15 594.329 1063.43 593.949C1072.97 593.089 1080.69 597.489 1084.45 600.049C1083.02 596.719 1081.22 591.679 1080.31 585.329C1079.73 581.239 1078.77 571.329 1082.49 559.749C1084.2 554.399 1085.85 549.459 1090.4 545.239C1090.92 544.759 1091.4 544.359 1091.86 544.019C1093.85 543.549 1095 543.439 1095.52 543.839C1097.43 545.349 1094.73 551.669 1093.84 553.929C1089.39 565.229 1090.57 575.719 1091.95 587.979C1092.73 594.949 1095.3 607.529 1105.4 622.039V622.049Z" fill="#88B767"/>
<path d="M985.99 655.547C985.47 660.527 985.33 664.717 985.29 667.787C983.87 669.427 982.24 671.267 980.38 673.207C974.39 679.467 969.06 683.827 959.43 691.147C946.12 701.247 939.47 706.297 932.1 711.047C918.33 719.927 917.07 719.027 901.13 729.057C886.01 738.567 877.8 745.257 875.27 747.347C865.07 755.787 859.19 760.737 854.6 769.137C853.77 770.667 852.27 773.597 851.8 773.417C850.94 773.087 854.04 762.737 856.7 755.267C858.66 749.797 860.56 745.357 861.96 742.307C852.79 744.707 840.84 748.627 827.69 755.267C808.23 765.097 795.73 776.027 793.07 778.387C776.87 792.777 767.95 806.967 762.8 815.317C755.61 826.947 752.33 835.427 751.24 838.367C748.3 846.297 746.65 853.607 746.54 854.067C746.4 854.707 745.82 857.647 744.65 863.527C743.46 869.527 742.91 872.387 741.99 876.207C741.35 878.867 740.84 880.977 740.41 882.547C740.26 878.847 740.04 875.817 740.3 869.767C740.43 866.817 740.8 859.977 742.12 851.617C744.18 838.547 747.49 828.457 749.34 823.307C755.43 806.337 763.26 794.007 767.91 787.357C771.84 781.737 779.24 771.307 791.81 760.587C805.43 748.977 818.03 743.067 826.57 739.147C836.7 734.487 851.97 728.687 867.28 724.997C870.02 724.337 874.16 723.397 879.9 721.497C886.89 719.167 892.85 716.507 901.69 711.967C912.68 706.317 921.51 701.147 927.83 697.327C937.05 691.747 947.46 685.447 960.55 675.887C967.55 670.777 976.28 664.027 985.99 655.567V655.547Z" fill="#88B767"/>
<path d="M1237.56 679.235C1235.81 690.605 1232.57 698.775 1229.43 706.705C1225.81 715.825 1221.92 723.205 1218.57 729.545C1217.08 732.365 1215.66 734.955 1214.35 737.265C1213.41 737.645 1212.74 737.735 1212.47 737.465C1211.68 736.665 1214.41 732.875 1215.91 730.595C1221.13 722.615 1222.92 713.295 1226.49 694.645C1229.89 676.885 1230.47 662.985 1230.62 657.435C1230.87 648.145 1230.49 640.585 1230.13 633.535C1229.68 624.625 1228.99 616.945 1228.35 610.875C1228.48 610.935 1228.61 610.995 1228.73 611.045C1229.68 614.765 1231.08 620.295 1232.72 627.025C1235.65 639.005 1237.11 645.005 1237.63 648.185C1238.14 651.365 1239.95 663.665 1237.56 679.225V679.235Z" fill="#88B767"/>
<path d="M1245.33 742.647C1244.66 745.967 1242.3 756.787 1235.94 769.767C1234.28 773.167 1232.71 775.957 1231.53 777.967C1231.3 776.267 1231.07 774.557 1230.84 772.847C1234.6 765.237 1236.47 758.607 1237.48 753.867C1239.16 745.997 1239.32 739.307 1239.52 731.237C1239.63 726.407 1239.49 721.517 1239.36 718.467C1241.69 714.767 1243.44 711.217 1244.77 708.047C1245.84 711.737 1247.01 717.007 1247.3 723.397C1247.64 731.127 1246.52 736.837 1245.33 742.667V742.647Z" fill="#88B767"/>
<path d="M1150.88 758.556C1149.57 764.266 1146.12 778.636 1135.53 792.056L1135.09 792.796L1126.46 807.236L1109.46 835.706C1109.18 841.376 1108.63 846.546 1107.95 851.186C1106.79 859.176 1105.26 865.586 1104.14 870.256C1100.71 884.406 1099 891.486 1095.59 899.406C1094.4 902.166 1092.73 905.706 1092.15 910.896C1091.65 915.436 1092.44 917.096 1092.96 923.706C1091.82 920.956 1090.72 917.796 1089.84 914.256C1089.25 911.886 1087.9 905.906 1087.88 898.416C1087.84 888.036 1090.39 884.706 1093.62 870.526C1094.34 867.386 1096.22 858.776 1097.32 847.546C1097.6 844.766 1097.83 841.816 1097.98 838.756C1098.61 837.436 1099.6 835.526 1101.19 832.636C1102.84 829.636 1103.66 828.136 1104.38 826.946C1106.21 823.926 1107.98 821.356 1109.45 819.366C1110.71 817.666 1111.74 816.386 1112.39 815.606L1133.71 778.166C1136.52 768.506 1140.76 753.546 1140.01 733.596C1139.67 724.486 1138.82 706.616 1128.8 686.786C1124.13 677.546 1118.85 670.596 1114.79 665.906C1117.36 667.126 1120.4 668.726 1123.68 670.796C1126.4 673.506 1129.38 676.766 1132.38 680.616C1137.12 686.716 1147 699.716 1151.22 719.646C1154.8 736.496 1152.69 750.606 1150.88 758.536V758.556Z" fill="#88B767"/>
<path d="M1268.95 385.977C1267.75 396.777 1265.04 405.427 1262.85 411.207C1257.8 407.507 1254.13 404.077 1251.76 401.697C1252.89 397.447 1254.05 392.167 1254.86 386.087C1255.34 382.537 1255.79 379.147 1256.07 375.797C1257.64 376.417 1259.31 377.147 1261.06 377.987C1259.45 375.827 1257.79 374.117 1256.27 372.787C1256.56 366.887 1256.19 360.997 1254.34 354.447C1254.04 353.417 1253.67 352.117 1253.16 350.627C1254.27 350.727 1255.33 350.847 1256.34 350.987C1255.43 350.177 1254.07 349.107 1252.26 348.187C1250.48 343.677 1247.52 338.017 1242.36 332.597C1242.04 332.267 1241.73 331.947 1241.42 331.637C1242.66 331.697 1243.72 331.827 1244.56 331.967C1243.62 331.467 1241.88 330.587 1239.56 329.897C1231.84 323.017 1223.93 320.457 1221.23 319.667C1217.31 318.527 1213.68 318.037 1210.52 317.877C1214.84 316.967 1229.93 314.047 1244.77 322.607C1245.44 322.987 1246.09 323.387 1246.72 323.797C1246.92 323.927 1247.11 324.057 1247.31 324.187C1259.62 332.467 1264.16 344.787 1266.32 350.667C1271.35 364.337 1270.03 376.257 1268.95 385.987V385.977Z" fill="#F9B567"/>
<path d="M1193.27 397.813C1191.14 407.013 1181.6 412.343 1179.25 413.653C1177 414.913 1174.8 415.803 1172.36 416.493C1171.31 413.753 1169.95 410.453 1168.25 406.783C1166.25 402.443 1163.33 396.223 1158.86 389.123C1159.73 388.323 1160.28 387.793 1160.42 387.663C1164.28 383.933 1169.52 378.053 1174.3 369.483C1168.9 376.433 1163.51 380.463 1159.53 382.883C1158.04 383.783 1157.14 384.223 1155.98 384.753C1153.59 381.283 1150.84 377.673 1147.65 374.003C1145.27 371.253 1142.9 368.783 1140.63 366.573C1142.4 364.563 1144.45 362.383 1146.81 360.123C1143.71 361.783 1141.06 363.343 1138.77 364.793C1132.55 358.973 1127.35 355.313 1125.16 353.813C1123.98 353.013 1122.34 351.923 1120.27 350.673C1122.53 345.943 1125.63 340.153 1129.79 333.793C1126.79 336.493 1122.88 340.313 1118.69 345.253C1117.85 346.253 1117 347.253 1116.15 348.303C1110.73 345.323 1103.47 341.893 1094.68 339.103C1093.71 338.793 1092.75 338.503 1091.82 338.243C1091.89 337.273 1091.96 336.263 1092.05 335.213C1091.64 336.153 1091.26 337.073 1090.9 337.973C1079.11 334.663 1069.91 334.003 1067.35 333.853C1065.36 333.733 1063.41 333.673 1061.49 333.663C1061.47 333.123 1061.47 332.573 1061.46 332.013C1061.44 326.323 1062.11 321.513 1062.83 317.933C1061.06 320.533 1058.69 324.673 1057.37 330.173C1057.07 331.383 1056.88 332.533 1056.75 333.743C1047.35 334.103 1038.93 335.683 1031.82 337.653C1031.73 337.313 1031.64 336.993 1031.56 336.693C1031.54 337.043 1031.53 337.393 1031.51 337.733C1025.5 339.413 1020.42 341.373 1016.48 343.103C996.171 352.023 984.121 364.563 981.581 367.283C980.641 368.283 979.261 369.803 977.601 371.803C976.341 370.693 975.281 369.693 974.431 368.853C974.821 370.073 975.401 371.653 976.281 373.443C971.331 379.723 964.641 389.743 959.921 403.013C953.641 420.683 953.511 436.643 953.401 449.473C953.371 453.523 953.471 457.113 953.611 460.223C950.211 445.933 950.541 434.603 950.831 426.723C951.131 418.633 951.581 408.233 955.671 395.343C959.511 383.253 964.651 374.953 967.911 369.743C978.471 352.933 990.381 342.753 994.241 339.583C1010.96 325.843 1027.75 319.583 1037.86 316.663C1043.22 315.123 1063.02 309.803 1088.73 313.043C1108.73 315.563 1123.48 322.133 1130.51 325.653C1135.7 328.253 1145.59 333.653 1156.26 342.733C1160.73 346.533 1166.16 352.593 1177.02 364.703C1178.72 366.603 1182.21 371.493 1189.2 381.293C1190.79 383.533 1193.25 387.063 1193.68 392.083C1193.68 392.103 1193.68 392.133 1193.69 392.163C1193.69 392.193 1193.69 392.223 1193.7 392.263V392.363C1193.7 392.363 1193.71 392.433 1193.71 392.463C1193.76 393.353 1193.81 395.483 1193.26 397.833V397.813H1193.27Z" fill="#F9B567"/>
<path d="M999.709 441.734C999.699 444.164 999.899 446.324 1000.18 448.144C997.689 448.254 994.829 448.514 991.699 449.024C992.029 446.734 992.399 444.764 992.719 443.154C993.259 440.384 993.899 437.754 994.639 435.264C996.379 435.244 998.269 435.214 1000.29 435.164C999.969 437.024 999.719 439.234 999.709 441.734Z" fill="#F9B567"/>
<path d="M1005.43 417.818C1004.46 419.118 1003.35 420.838 1002.39 422.968C1001.6 424.708 1001.09 426.328 1000.76 427.698C999.73 427.938 998.43 428.228 996.91 428.538C998.69 423.908 1000.66 419.928 1002.53 416.648C1003.66 417.118 1004.65 417.508 1005.43 417.818Z" fill="#F9B567"/>
<path d="M1002.6 465.953C1000.56 466.523 997.729 467.433 994.509 468.893C993.619 469.303 992.579 469.773 991.439 470.363C990.699 464.723 990.709 459.543 991.039 455.083H992.299C994.449 455.083 997.499 455.073 1001.18 455.083C1001.17 456.653 1001.25 458.443 1001.5 460.393C1001.76 462.493 1002.17 464.353 1002.6 465.963V465.953Z" fill="#F9B567"/>
<path fill-rule="evenodd" clip-rule="evenodd" d="M1204.51 394.805C1206.14 395.085 1208.2 395.085 1211.45 395.955C1217.54 397.595 1221.71 400.675 1224.28 402.575C1226.83 404.465 1226.18 404.425 1233.63 411.615C1239.12 416.915 1241.87 419.565 1244.14 421.075C1248.16 423.745 1249.8 423.885 1253.08 426.965C1254.57 428.365 1258.48 432.125 1257.6 435.125C1257.07 436.905 1255.88 437.725 1255.88 437.725C1255.02 438.305 1254.48 438.115 1253.85 438.775C1253.14 439.515 1252.93 440.655 1253.11 441.545C1253.4 442.965 1254.67 443.785 1255.11 444.065C1258.57 446.325 1261.56 449.325 1265.23 451.215C1269.75 453.535 1272.58 455.955 1277.78 460.425C1284.55 466.245 1290.16 472.905 1290.18 472.935C1291.99 475.085 1293.36 476.895 1296 479.245H1295.99C1298.98 481.895 1301.8 483.655 1303.77 484.745C1301.43 484.345 1298.06 483.935 1294 484.045C1289.92 484.155 1287.79 484.215 1285.24 485.275C1279.13 487.795 1276.43 493.575 1275.98 494.555C1274.7 497.425 1274.48 500.145 1274.06 505.595C1273.86 508.185 1273.83 510.335 1273.85 511.835C1273.24 511.725 1269.58 511.165 1266.35 513.655C1263.18 516.105 1262.79 519.705 1262.67 520.795C1262.58 521.705 1262.48 522.625 1262.88 523.705C1263.58 525.605 1265.27 526.565 1266.88 527.455C1266.64 527.835 1266.8 528.445 1267.19 529.125C1267.74 530.095 1268.78 531.215 1269.86 532.005C1271.64 533.315 1273.48 533.665 1275.95 534.105C1278.18 534.505 1280.04 534.575 1281.28 534.575C1280.29 534.675 1279.31 534.775 1278.33 534.885C1278.32 534.885 1276.76 535.055 1274.09 534.915C1272.91 535.515 1271.85 536.355 1271.12 537.545C1270.65 538.305 1270.31 539.215 1270.15 540.165C1267.14 539.155 1262.7 537.735 1257.94 536.495C1249.38 534.255 1242.01 532.325 1232.08 532.225C1223.72 532.135 1214.94 533.355 1210.26 534.375C1210.71 533.475 1210.98 532.525 1210.57 531.945C1209.9 530.995 1207.67 531.525 1207 531.665C1204.26 532.255 1199.12 531.515 1188.85 530.055C1178.49 528.575 1170.84 518.925 1166.22 513.095C1157.84 502.535 1155.19 491.515 1154.23 485.485C1153.74 487.075 1153.12 489.415 1152.69 492.315C1152.49 490.565 1152.34 488.735 1152.27 486.815C1151.33 489.945 1150.09 494.315 1148.84 499.565C1147.16 506.605 1144.29 518.695 1143.58 532.505C1142.62 551.315 1146.05 565.865 1148.14 574.415C1152.47 592.175 1158.8 605.135 1161.38 610.155C1169.16 625.265 1173.97 628.495 1182.4 644.845C1188.05 655.785 1191.5 665.225 1193.48 671.195C1193.7 667.995 1193.77 663.415 1192.98 658.015C1192.02 651.385 1190.2 646.555 1189.27 644.145C1181.97 625.125 1179.17 620.665 1176.03 611.485C1171.42 598.045 1170.28 586.705 1169.3 577.075C1168.34 567.615 1168.22 559.395 1168.39 552.905C1170.18 556.735 1172.94 562.065 1176.94 568.045C1179.58 572.005 1188.64 585.015 1204.34 596.845C1213.41 603.685 1221.56 607.745 1225.01 609.385C1226.33 610.015 1227.48 610.525 1228.34 610.895C1228.99 616.965 1229.67 624.645 1230.12 633.555C1230.48 640.595 1230.86 648.165 1230.61 657.455C1230.46 662.995 1229.88 676.905 1226.48 694.665C1222.91 713.315 1221.12 722.635 1215.9 730.615C1214.4 732.895 1211.67 736.685 1212.46 737.485C1212.74 737.755 1213.41 737.665 1214.34 737.285C1212.94 739.775 1211.66 741.955 1210.57 743.785C1213.54 742.525 1217.44 740.585 1221.64 737.615C1228.7 732.635 1232.87 727.385 1235.17 724.435C1236.74 722.425 1238.13 720.425 1239.36 718.465C1239.48 721.525 1239.63 726.405 1239.51 731.235C1239.32 739.315 1239.16 745.995 1237.48 753.865C1236.47 758.605 1234.6 765.235 1230.84 772.845C1230.32 768.995 1229.8 765.145 1229.28 761.285C1228.18 764.335 1226.55 768.555 1224.31 773.475C1221.07 780.575 1215.72 792.115 1205.74 804.445C1201.5 809.675 1195.27 816.475 1186.61 823.365C1191.8 816.385 1194.84 810.035 1196.63 805.565C1201.19 794.195 1202.17 783.865 1203 775.155C1203.41 770.875 1203.57 767.325 1203.64 764.925C1200.34 776.555 1195.8 785.165 1192.28 790.855C1187.31 798.875 1187.87 795.405 1167.27 819.235C1162.88 824.315 1157.54 830.615 1148.21 835.695C1145.38 837.235 1142.91 838.275 1141.2 838.915C1142.98 836.955 1145.38 834.135 1148 830.575C1149.9 827.975 1158.62 815.875 1164.88 796.305C1167.64 787.725 1172.6 771.735 1171.61 750.475C1171.17 741.015 1169.81 717.705 1154.94 695.325C1150.55 688.725 1142.52 676.965 1127.47 669.545C1123.89 667.785 1120.74 666.665 1118.5 665.965C1120.05 667.315 1121.8 668.915 1123.68 670.785C1120.39 668.705 1117.36 667.115 1114.78 665.895C1118.84 670.585 1124.13 677.535 1128.8 686.775C1138.82 706.605 1139.67 724.475 1140.01 733.585C1140.75 753.535 1136.52 768.495 1133.7 778.155L1112.38 815.595C1111.74 816.375 1110.7 817.655 1109.45 819.355C1107.98 821.345 1106.2 823.905 1104.38 826.935C1103.66 828.125 1102.83 829.625 1101.19 832.625C1099.6 835.515 1098.61 837.425 1097.98 838.745C1097.82 841.805 1097.6 844.755 1097.32 847.535C1096.21 858.765 1094.34 867.375 1093.62 870.515C1090.39 884.695 1087.84 888.015 1087.88 898.405C1087.9 905.885 1089.25 911.865 1089.84 914.245C1090.72 917.785 1091.81 920.945 1092.95 923.695C1093.02 924.525 1093.08 925.435 1093.13 926.435C1093.48 933.035 1093.65 936.335 1092.78 940.585C1091.3 947.825 1088.04 952.425 1086.61 954.245C1084.07 957.505 1080.85 961.635 1077.15 961.185C1074.34 960.845 1072.68 958.015 1070.08 953.615C1068.37 950.715 1065.66 946.035 1064.82 939.105L1055.01 910.935C1053.88 905.865 1052.27 898.705 1050.32 890.125C1043.53 860.285 1042.64 857.465 1041.77 854.875C1040.95 852.455 1040.08 850.065 1039.09 847.535C1039.4 845.555 1039.66 843.395 1039.8 841.075C1040.2 835.015 1039.82 829.225 1038.54 821.735C1036.18 807.855 1034 807.275 1031.61 795.455C1031.23 793.595 1027.66 775.485 1029.5 759.505C1029.73 757.565 1030.47 751.825 1030.45 743.985C1030.44 741.295 1030.34 738.945 1030.24 737.095C1031.34 734.555 1032.4 732.325 1033.36 730.425C1030.6 733.115 1026.88 737.095 1023.13 742.405C1016.41 751.915 1013.41 760.315 1010.52 768.605C1007.77 776.475 1004.62 787.455 1002.81 801.045C1002.69 801.565 1002.48 802.425 1002.1 803.425C1000.96 806.515 999.181 808.585 997.971 809.875C988.591 819.905 981.661 824.435 981.641 824.455C975.971 828.155 966.501 833.475 953.191 837.275C955.681 837.615 959.191 837.995 963.421 838.185C970.931 838.515 980.241 838.935 990.891 835.805C994.921 834.625 1000.58 832.505 1006.87 828.525C1007.15 828.855 1007.52 829.365 1007.78 830.065C1008.49 831.985 1007.78 833.805 1007.43 834.685C1006.23 837.685 1003.61 839.505 1001.2 841.205C991.251 848.175 991.681 847.945 991.321 848.145C981.181 853.795 970.061 855.665 961.471 857.045C956.351 857.865 949.411 858.955 940.101 859.075C930.821 859.195 916.391 859.255 899.461 853.115C892.081 850.435 882.481 846.855 872.761 838.195C862.851 829.365 857.781 819.665 854.541 813.315C850.731 805.855 848.501 799.195 847.181 794.395C846.261 804.635 845.201 813.805 844.161 821.725C842.151 837.085 840.751 847.545 837.431 861.105C835.261 869.995 833.451 877.395 829.441 887.105C824.121 899.995 818.181 909.045 814.801 914.155C812.081 918.255 806.311 926.585 797.561 936.085C791.021 943.195 784.741 948.875 779.411 953.255C782.571 949.495 784.591 946.035 785.861 943.515C788.641 938.005 789.771 933.175 791.121 927.465C792.031 923.595 792.591 920.325 792.941 918.005C791.241 921.565 788.701 926.415 785.161 931.885C783.411 934.585 777.371 943.695 764.561 956.345C750.601 970.125 737.861 978.965 733.021 982.205C717.851 992.385 710.271 997.465 703.661 1000.21C703.621 1000.22 692.181 1004.98 685.161 1012.75C683.801 1014.26 682.581 1015.89 682.571 1015.9C679.261 1020.34 677.641 1024.27 676.751 1026.41C669.601 1043.73 670.511 1041 668.621 1046.11C667.051 1050.34 665.031 1056 662.801 1062.78C667.661 1038.74 670.811 1022.05 671.351 1016.25C671.451 1015.24 671.641 1012.63 673.171 1009.81C673.681 1008.87 674.871 1006.94 679.191 1003.29C681.411 1001.42 682.521 1000.49 685.151 998.815C691.751 994.595 701.271 985.755 706.871 979.825C715.851 970.325 720.951 961.725 725.091 954.745C730.911 944.935 734.521 938.845 736.651 929.515C737.491 925.855 737.951 921.445 738.891 912.625C739.581 906.095 740.191 900.435 740.431 893.145C740.591 888.285 740.511 885.225 740.401 882.525C740.831 880.955 741.341 878.845 741.981 876.185C742.901 872.355 743.451 869.505 744.641 863.505C745.811 857.625 746.391 854.685 746.531 854.045C746.631 853.585 748.291 846.285 751.231 838.345C752.321 835.405 755.611 826.925 762.791 815.295C767.941 806.955 776.861 792.755 793.061 778.365C795.721 776.005 808.211 765.065 827.681 755.245C840.831 748.605 852.781 744.675 861.951 742.285C860.551 745.345 858.651 749.775 856.691 755.245C854.021 762.715 850.931 773.065 851.791 773.395C852.261 773.575 853.761 770.645 854.591 769.115C859.191 760.715 865.071 755.755 875.261 747.325C877.791 745.235 886.001 738.545 901.121 729.035C917.061 719.005 918.321 719.905 932.091 711.025C939.461 706.275 946.111 701.225 959.421 691.125C969.061 683.815 974.381 679.445 980.371 673.185C982.231 671.245 983.861 669.415 985.281 667.765V668.135C985.211 677.035 985.221 683.565 987.871 691.055C989.431 695.465 991.421 698.815 992.851 700.935C992.811 700.125 992.781 699.265 992.751 698.365C993.371 697.245 994.171 693.655 996.701 686.365C997.061 685.325 1000.5 675.505 1005.64 664.605C1007.03 661.665 1009.57 656.255 1012.79 650.835C1016.71 644.215 1024.63 631.135 1039.38 620.455C1048.05 614.175 1055.7 608.635 1067.02 607.945C1079.03 607.215 1089.26 612.295 1093.61 614.465C1098.83 617.055 1102.77 619.915 1105.39 622.035C1095.29 607.525 1092.72 594.955 1091.93 587.975C1090.55 575.715 1089.37 565.225 1093.83 553.925C1094.71 551.665 1097.42 545.335 1095.51 543.835C1094.99 543.425 1093.84 543.545 1091.85 544.015C1093.99 542.415 1095.71 541.995 1099.57 539.565C1106.79 535.025 1111.26 529.865 1113.93 526.735C1117.13 522.995 1122.33 516.925 1125.57 507.465C1128.63 498.525 1128.6 490.475 1128.58 484.555C1128.57 481.435 1128.39 478.825 1128.23 476.985C1130.59 473.125 1134.14 468.305 1139.37 463.745C1141.82 461.605 1144.23 459.885 1146.45 458.485C1145.04 458.405 1142.86 458.155 1140.35 457.365C1134.92 455.645 1132.3 452.695 1125.36 446.575C1118.56 440.575 1115.1 437.555 1112.04 436.275C1107.74 434.475 1103.81 434.105 1098.59 433.615C1093.29 433.115 1088.83 433.245 1085.63 433.475C1088.25 435.405 1092.02 438.135 1096.63 441.325C1102.82 445.605 1105.92 447.755 1109.45 449.735C1113.32 451.905 1119.01 454.665 1126.55 456.885C1123.32 457.625 1118.32 458.455 1112.25 458.075C1107.46 457.775 1093.11 456.885 1082.61 445.595C1076.11 438.615 1073.87 430.635 1073.01 425.905C1073.72 425.695 1074.42 425.495 1075.11 425.305C1074.96 425.535 1074.89 425.775 1074.91 426.005C1074.98 426.875 1076.34 427.445 1076.9 427.685C1079.35 428.725 1081.83 428.035 1082.37 427.895C1086.87 426.715 1091.69 427.955 1096.35 427.895C1105.07 427.785 1112.91 430.795 1118.53 432.945C1128.29 436.685 1135.61 441.695 1140.49 445.665C1138.83 443.105 1136.41 439.675 1133.13 435.895C1131.77 434.315 1130.5 432.855 1129.24 431.495C1130.99 432.395 1132.75 433.305 1134.4 434.385C1134.69 434.575 1135.34 435.005 1136.29 435.235C1138.93 435.855 1141.35 434.285 1142.59 433.555C1143.95 432.755 1147 431.815 1153.11 429.905C1158.04 428.375 1159.95 428.785 1165.58 427.945C1169.65 427.335 1174.5 426.605 1179.45 424.665C1180.59 424.215 1181.74 423.705 1182.89 423.105C1191.66 418.575 1196.11 411.595 1200.48 404.745C1203.23 400.435 1204.28 397.645 1204.5 394.805H1204.51ZM1220.32 442.425C1220.4 446.225 1220.28 450.685 1219.26 450.865C1218.69 450.955 1218.2 449.675 1217.46 448.605C1213.57 442.995 1203.32 443.535 1201.95 443.635C1196.94 443.965 1197.48 445.485 1189.29 447.095C1183.03 448.325 1179.38 448.085 1179.2 449.205C1179.04 450.205 1181.86 451.095 1186.58 453.415C1186.71 453.475 1186.84 453.545 1186.97 453.615C1186.81 453.755 1186.69 453.895 1186.58 454.055C1184.76 456.855 1186.48 461.025 1187.15 462.635C1187.55 463.615 1188.05 464.485 1188.59 465.265C1188.69 465.415 1188.8 465.555 1188.91 465.705C1189.01 465.845 1189.12 465.975 1189.23 466.105C1191.7 469.115 1194.89 470.445 1195.96 470.885C1200.86 472.925 1205.25 471.875 1214.04 469.755C1220.97 468.085 1222.59 466.505 1223.18 464.895C1223.32 464.515 1223.4 464.125 1223.43 463.755C1224.84 464.255 1226.71 464.785 1229.36 466.205C1233.53 468.445 1236.43 471.145 1238.24 472.835C1239.86 474.345 1241.12 475.725 1242.01 476.755C1241.5 475.065 1240.51 472.355 1238.69 469.365C1233.67 461.165 1227.7 459.915 1223.48 452.495C1222.32 450.455 1220.85 447.185 1220.32 442.415V442.425ZM1203.34 429.105C1202.67 429.105 1201.93 429.125 1201.13 429.185C1200.7 429.215 1200.25 429.255 1199.79 429.305C1199.63 429.325 1199.48 429.345 1199.32 429.365C1199.16 429.385 1199.01 429.405 1198.85 429.425C1197.01 429.695 1194.95 430.145 1192.77 430.905C1192.7 430.935 1192.62 430.955 1192.54 430.985C1191.42 431.385 1190.26 431.865 1189.08 432.435C1186.44 433.715 1183.87 435.395 1181.95 436.935C1181.83 437.035 1181.71 437.125 1181.6 437.225C1179.59 438.875 1178.38 440.335 1178.69 440.915C1178.82 441.155 1179.2 441.215 1179.8 441.125C1179.86 441.125 1179.93 441.105 1179.99 441.095C1180.06 441.085 1180.12 441.075 1180.19 441.055C1180.74 440.945 1181.43 440.765 1182.23 440.525C1182.64 440.405 1183.07 440.275 1183.53 440.135C1184.22 439.925 1184.97 439.695 1185.78 439.455C1187.13 439.055 1188.64 438.635 1190.26 438.245C1191.92 437.845 1193.7 437.475 1195.58 437.205C1195.89 437.155 1196.2 437.115 1196.52 437.075L1197.27 436.985C1197.59 436.945 1197.92 436.915 1198.25 436.885H1198.35C1199.1 436.815 1199.85 436.765 1200.62 436.745C1200.83 436.745 1201.04 436.735 1201.25 436.725C1202.04 436.705 1202.84 436.715 1203.65 436.745C1207.66 436.895 1211.15 437.665 1214.38 439.005C1216.95 440.065 1218.92 441.325 1220.26 442.285C1220.22 441.385 1220.18 440.475 1220.14 439.575C1220.14 439.575 1219.74 436.915 1218.22 434.605C1215.62 430.635 1208.92 429.785 1206.93 429.405C1206.37 429.305 1205.1 429.135 1203.34 429.125V429.105Z" fill="#275F25"/>
<path d="M1015.95 489.617C1012.22 492.557 1009.22 495.177 1007.07 497.137C1005.54 498.517 1004.24 499.757 1003.11 500.887C998.609 494.187 996.289 488.447 995.449 486.257C994.039 482.577 993.019 478.987 992.309 475.537C995.249 474.307 997.369 473.827 998.609 473.597C1001.47 473.057 1003.9 473.007 1005.6 473.067C1006.58 476.117 1008.28 480.137 1011.27 484.267C1012.84 486.427 1014.46 488.197 1015.95 489.627V489.617Z" fill="#F9B567"/>
<path d="M1043.17 510.588C1041.66 513.588 1039.7 518.458 1039.18 524.728C1039.08 525.928 1039.04 527.078 1039.05 528.168C1036.67 527.428 1034.18 526.508 1031.61 525.358C1027.43 523.478 1023.68 521.268 1020.34 518.858C1018.85 517.784 1018.85 517.784 1020.33 518.858C1014.27 514.498 1009.52 509.498 1005.85 504.718C1008.33 502.658 1011.79 500.098 1016.16 497.728C1018.18 496.628 1019.95 495.818 1021.26 495.258C1022.65 496.958 1024.43 498.858 1026.67 500.718C1027.86 501.708 1029.03 502.558 1030.14 503.298C1028.16 505.348 1025.86 508.138 1023.78 511.758C1022.41 514.138 1021.41 516.398 1020.68 518.378C1023.18 516.648 1025.11 515.108 1026.41 514.018C1027.95 512.718 1030.6 510.378 1034.03 508.608C1034.92 508.148 1036.16 507.568 1037.55 507.868C1038.34 508.038 1038.72 508.398 1039.91 509.078C1040.72 509.538 1041.81 510.088 1043.17 510.598V510.588Z" fill="#F9B567"/>
<path d="M1066.4 530.157C1062.35 530.877 1059.5 530.997 1058.73 531.027C1057.02 531.077 1050.26 531.217 1041.46 528.857C1042.51 525.727 1043.94 522.367 1045.9 518.937C1046.86 517.277 1047.85 515.757 1048.85 514.367C1050.46 514.637 1052.17 514.867 1053.94 515.047C1057.54 515.417 1060.88 515.527 1063.93 515.467C1064.32 519.097 1064.89 522.967 1065.72 527.027C1065.94 528.087 1066.16 529.127 1066.4 530.147V530.157Z" fill="#F9B567"/>
<path d="M1090.1 520.985C1081.93 526.325 1073.39 528.825 1067.26 530.005C1067.61 528.195 1067.81 526.125 1068.19 520.685C1068.22 520.245 1068.28 519.385 1068.61 518.325C1068.92 517.325 1069.33 516.575 1069.61 516.115C1074.77 516.435 1077.33 515.885 1078.7 515.275C1079.98 514.705 1081.33 514.335 1082.64 513.855C1082.92 513.755 1083.58 513.505 1084.48 513.435C1085.12 513.385 1085.65 513.435 1086.01 513.485C1087.2 514.645 1088.61 516.365 1089.47 518.745C1089.79 519.595 1089.97 520.385 1090.1 520.995V520.985Z" fill="#F9B567"/>
<path d="M1107.78 501.578C1106.68 503.678 1105.35 505.888 1103.72 508.118C1099.89 513.358 1095.42 517.398 1090.8 520.518C1090.86 519.458 1090.86 518.038 1090.74 516.628C1090.56 514.538 1090.16 512.838 1089.84 511.688C1091.16 511.058 1093.17 510.068 1095.57 508.798C1100.84 505.998 1104.62 503.968 1107.78 501.578Z" fill="#F9B567"/>
<path d="M1238.69 469.38C1233.67 461.18 1227.7 459.93 1223.49 452.51C1222.33 450.47 1220.85 447.2 1220.32 442.43C1220.4 446.23 1220.29 450.69 1219.26 450.87C1218.69 450.96 1218.21 449.68 1217.46 448.61C1213.57 443 1203.32 443.55 1201.95 443.64C1196.94 443.97 1197.48 445.49 1189.29 447.1C1183.03 448.33 1179.38 448.09 1179.2 449.21C1179.05 450.21 1181.86 451.1 1186.59 453.42C1186.71 453.48 1186.84 453.55 1186.97 453.62C1197.31 458.75 1196.87 460.95 1201.79 461.55C1203.13 461.72 1211.43 462.75 1215.2 458.69C1215.68 458.17 1216.61 457.02 1217.61 457.19C1218.89 457.4 1218.99 459.53 1220.17 461.41C1221.03 462.78 1222 463.26 1223.43 463.77C1224.84 464.27 1226.71 464.8 1229.36 466.22C1233.53 468.46 1236.43 471.16 1238.25 472.85C1239.86 474.36 1241.12 475.74 1242.01 476.77C1241.5 475.08 1240.51 472.37 1238.69 469.38ZM1215.29 454.2C1215.03 454.94 1214.5 455.52 1213.82 455.98C1213.4 456.27 1212.92 456.51 1212.4 456.72C1212.29 456.77 1212.17 456.81 1212.04 456.86C1211.91 456.91 1211.77 456.96 1211.64 457C1211.57 457.02 1211.5 457.04 1211.43 457.06C1211 457.19 1210.56 457.3 1210.13 457.38C1209.97 457.41 1209.82 457.44 1209.67 457.46C1209.17 457.55 1208.68 457.62 1208.24 457.66H1208.23C1207.37 457.75 1206.68 457.78 1206.36 457.79C1204.44 457.85 1200.82 457.93 1197.25 455.5C1196.28 454.83 1195.48 454.1 1194.83 453.37C1193.62 452.02 1192.41 450.91 1192.05 450.12C1192.42 449.99 1192.82 449.85 1193.21 449.72C1194.72 449.2 1196.23 448.7 1197.19 448.41C1197.78 448.23 1198.33 448.07 1198.86 447.93C1198.99 447.89 1199.12 447.86 1199.24 447.83C1199.67 447.72 1200.08 447.62 1200.47 447.53C1200.57 447.51 1200.67 447.48 1200.78 447.46C1200.88 447.44 1200.98 447.42 1201.07 447.4C1201.22 447.37 1201.37 447.34 1201.51 447.32C1201.58 447.31 1201.65 447.29 1201.72 447.28C1201.8 447.26 1201.87 447.25 1201.95 447.24C1202.07 447.22 1202.19 447.2 1202.31 447.18C1202.43 447.16 1202.55 447.14 1202.67 447.13C1202.99 447.09 1203.3 447.07 1203.58 447.05H1203.79C1204.74 447.03 1205.48 447.15 1206.12 447.38C1206.48 447.52 1207.47 447.76 1207.59 447.96C1207.66 448.09 1207.42 448.2 1206.52 448.27C1205.98 448.31 1205.53 448.44 1205.17 448.65C1203 449.87 1203.69 453.55 1205.48 454.07C1205.72 454.14 1206.01 454.2 1206.32 454.26H1206.33C1206.43 454.28 1206.53 454.29 1206.63 454.31H1206.67C1206.78 454.33 1206.88 454.34 1207 454.35C1208.07 454.45 1209.37 454.35 1210.54 453.75C1210.56 453.74 1210.58 453.73 1210.6 453.72C1210.65 453.7 1210.7 453.67 1210.74 453.64H1210.75C1210.85 453.58 1210.95 453.52 1211.04 453.46C1211.59 453.08 1212.04 452.69 1212.43 452.32C1212.5 452.24 1212.58 452.17 1212.65 452.1C1212.9 451.85 1213.12 451.62 1213.33 451.44C1213.39 451.38 1213.44 451.33 1213.5 451.28C1213.62 451.18 1213.73 451.08 1213.84 451.02C1213.84 451.02 1213.92 450.97 1213.96 450.95C1213.99 450.94 1214.02 450.93 1214.04 450.92C1214.06 450.91 1214.09 450.9 1214.11 450.89C1214.23 450.85 1214.35 450.84 1214.47 450.87C1214.51 450.87 1214.55 450.87 1214.58 450.9C1215.38 451.23 1215.74 452.91 1215.28 454.19H1215.29V454.2Z" fill="#002A12"/>
<path d="M1215.29 454.199C1215.03 454.939 1214.5 455.519 1213.82 455.979C1213.4 456.269 1212.91 456.509 1212.4 456.719C1212.28 456.769 1212.16 456.809 1212.04 456.859C1211.91 456.909 1211.77 456.959 1211.63 456.999C1211.57 457.019 1211.49 457.039 1211.43 457.059C1210.99 457.189 1210.55 457.299 1210.12 457.379C1209.97 457.409 1209.82 457.439 1209.67 457.459C1209.16 457.549 1208.68 457.619 1208.24 457.659H1208.23C1207.37 457.749 1206.67 457.779 1206.35 457.789C1204.44 457.849 1200.82 457.929 1197.25 455.499C1196.28 454.829 1195.48 454.099 1194.83 453.369C1193.61 452.019 1192.41 450.909 1192.04 450.119C1192.42 449.989 1192.81 449.849 1193.2 449.719C1194.71 449.199 1196.23 448.699 1197.18 448.409C1197.77 448.229 1198.33 448.069 1198.85 447.929C1198.98 447.889 1199.11 447.859 1199.24 447.829C1199.67 447.719 1200.08 447.619 1200.47 447.529C1200.57 447.509 1200.67 447.479 1200.77 447.459C1200.87 447.439 1200.97 447.419 1201.07 447.399C1201.22 447.369 1201.36 447.339 1201.5 447.319C1201.57 447.309 1201.64 447.289 1201.71 447.279C1201.79 447.259 1201.87 447.249 1201.95 447.239C1202.07 447.219 1202.19 447.199 1202.31 447.179C1202.44 447.159 1202.56 447.139 1202.67 447.129C1203 447.089 1203.3 447.069 1203.59 447.049H1203.79C1204.74 447.029 1205.49 447.149 1206.12 447.379C1206.48 447.519 1207.47 447.759 1207.59 447.959C1207.67 448.089 1207.42 448.199 1206.53 448.269C1205.99 448.309 1205.54 448.439 1205.18 448.649C1203.01 449.869 1203.7 453.549 1205.49 454.069C1205.73 454.139 1206.01 454.199 1206.33 454.259C1206.43 454.279 1206.53 454.289 1206.64 454.309H1206.68C1206.78 454.329 1206.89 454.339 1207 454.349C1208.08 454.449 1209.38 454.349 1210.54 453.749C1210.57 453.739 1210.59 453.729 1210.61 453.719C1210.66 453.699 1210.7 453.669 1210.75 453.639C1210.85 453.579 1210.95 453.519 1211.05 453.459C1211.6 453.079 1212.05 452.689 1212.43 452.319C1212.51 452.239 1212.59 452.169 1212.66 452.099C1212.91 451.849 1213.13 451.619 1213.33 451.439C1213.39 451.379 1213.45 451.329 1213.51 451.279C1213.62 451.179 1213.73 451.079 1213.85 451.019C1213.85 451.019 1213.93 450.969 1213.97 450.949C1214 450.939 1214.02 450.929 1214.05 450.919C1214.07 450.909 1214.09 450.899 1214.12 450.889C1214.24 450.849 1214.36 450.839 1214.48 450.869C1214.51 450.869 1214.56 450.869 1214.59 450.899C1215.38 451.229 1215.74 452.909 1215.29 454.189V454.199Z" fill="white"/>
<path d="M1220.26 442.263C1218.92 441.303 1216.95 440.053 1214.38 438.983C1211.15 437.643 1207.66 436.873 1203.65 436.723C1190.66 436.233 1179.53 442.463 1178.69 440.903C1178.08 439.763 1183.39 435.193 1189.08 432.433C1197.72 428.233 1205.3 429.073 1206.93 429.383C1208.92 429.763 1215.62 430.603 1218.22 434.583C1219.74 436.893 1220.14 439.553 1220.14 439.553C1220.18 440.453 1220.22 441.363 1220.26 442.263Z" fill="#88B767"/>
<path d="M1223.43 463.765C1223.4 464.135 1223.32 464.525 1223.18 464.905C1222.59 466.515 1220.97 468.095 1214.03 469.765C1205.25 471.885 1200.85 472.935 1195.95 470.895C1194.54 470.305 1189.42 468.165 1187.15 462.645C1186.48 461.035 1184.76 456.865 1186.58 454.065C1186.69 453.905 1186.81 453.755 1186.97 453.625C1197.31 458.755 1196.87 460.955 1201.79 461.555C1203.13 461.725 1211.43 462.755 1215.19 458.695C1215.67 458.175 1216.6 457.025 1217.61 457.195C1218.88 457.405 1218.99 459.535 1220.16 461.415C1221.02 462.785 1221.99 463.265 1223.43 463.775V463.765Z" fill="#88B767"/>
<path d="M1039.81 841.095C1039.66 843.415 1039.4 845.575 1039.1 847.555C1036.74 841.475 1033.77 834.595 1029.44 824.555C1026.69 818.195 1025.47 815.605 1023.97 810.895C1020.16 798.905 1019.6 789.065 1019.49 786.515C1018.78 770.775 1022.57 758.725 1025.65 749.235C1027.14 744.665 1028.73 740.605 1030.24 737.125C1030.35 738.985 1030.45 741.325 1030.45 744.015C1030.48 751.855 1029.73 757.595 1029.51 759.535C1027.67 775.515 1031.23 793.625 1031.61 795.485C1034 807.305 1036.18 807.885 1038.55 821.765C1039.82 829.255 1040.2 835.045 1039.81 841.105V841.095Z" fill="#88B767"/>
<path d="M1040 1452.49V1349.2H1080.75C1088.56 1349.2 1095.21 1350.59 1100.73 1353.38C1106.28 1356.14 1110.5 1360.06 1113.39 1365.13C1116.31 1370.18 1117.78 1376.11 1117.78 1382.94C1117.78 1389.77 1116.3 1395.7 1113.34 1400.64C1110.38 1405.55 1106.09 1409.32 1100.48 1411.94C1094.89 1414.56 1088.13 1415.88 1080.2 1415.88H1052.91V1398.32H1076.67C1080.84 1398.32 1084.3 1397.75 1087.06 1396.61C1089.82 1395.46 1091.87 1393.75 1093.21 1391.46C1094.59 1389.18 1095.28 1386.34 1095.28 1382.94C1095.28 1379.54 1094.59 1376.62 1093.21 1374.26C1091.87 1371.91 1089.8 1370.13 1087.01 1368.92C1084.25 1367.67 1080.77 1367.05 1076.57 1367.05H1061.84V1452.49H1040ZM1095.78 1405.48L1121.46 1452.49H1097.35L1072.23 1405.48H1095.78Z" fill="#EF7D00"/>
<path d="M1228.13 1400.83C1228.13 1412.1 1226 1421.68 1221.73 1429.58C1217.49 1437.49 1211.71 1443.52 1204.38 1447.69C1197.08 1451.83 1188.88 1453.9 1179.76 1453.9C1170.64 1453.9 1162.35 1451.81 1155.05 1447.64C1147.75 1443.47 1141.99 1437.44 1137.75 1429.53C1133.51 1421.63 1131.39 1412.07 1131.39 1400.83C1131.39 1389.59 1133.51 1379.99 1137.75 1372.08C1141.99 1364.18 1147.75 1358.16 1155.05 1354.03C1162.35 1349.86 1170.58 1347.77 1179.76 1347.77C1188.94 1347.77 1197.08 1349.86 1204.38 1354.03C1211.71 1358.16 1217.49 1364.18 1221.73 1372.08C1226 1379.99 1228.13 1389.57 1228.13 1400.83ZM1205.99 1400.83C1205.99 1393.54 1204.9 1387.38 1202.71 1382.37C1200.56 1377.36 1197.52 1373.56 1193.58 1370.98C1189.65 1368.39 1185.04 1367.09 1179.76 1367.09C1174.48 1367.09 1169.88 1368.39 1165.94 1370.98C1162.01 1373.56 1158.95 1377.36 1156.76 1382.37C1154.61 1387.38 1153.54 1393.54 1153.54 1400.83C1153.54 1408.12 1154.61 1414.28 1156.76 1419.29C1158.95 1424.31 1162.01 1428.1 1165.94 1430.69C1169.88 1433.28 1174.49 1434.58 1179.76 1434.58C1185.03 1434.58 1189.65 1433.28 1193.58 1430.69C1197.52 1428.1 1200.56 1424.31 1202.71 1419.29C1204.9 1414.28 1205.99 1408.13 1205.99 1400.83Z" fill="#EF7D00"/>
<path d="M1339.24 1400.83C1339.24 1412.1 1337.1 1421.68 1332.83 1429.58C1328.6 1437.49 1322.81 1443.52 1315.48 1447.69C1308.18 1451.83 1299.98 1453.9 1290.87 1453.9C1281.76 1453.9 1273.45 1451.81 1266.15 1447.64C1258.86 1443.47 1253.09 1437.44 1248.85 1429.53C1244.62 1421.63 1242.5 1412.07 1242.5 1400.83C1242.5 1389.59 1244.62 1379.99 1248.85 1372.08C1253.09 1364.18 1258.86 1358.16 1266.15 1354.03C1273.45 1349.86 1281.69 1347.77 1290.87 1347.77C1300.05 1347.77 1308.18 1349.86 1315.48 1354.03C1322.81 1358.16 1328.6 1364.18 1332.83 1372.08C1337.1 1379.99 1339.24 1389.57 1339.24 1400.83ZM1317.1 1400.83C1317.1 1393.54 1316 1387.38 1313.82 1382.37C1311.66 1377.36 1308.62 1373.56 1304.69 1370.98C1300.75 1368.39 1296.15 1367.09 1290.87 1367.09C1285.59 1367.09 1280.98 1368.39 1277.05 1370.98C1273.11 1373.56 1270.05 1377.36 1267.87 1382.37C1265.72 1387.38 1264.64 1393.54 1264.64 1400.83C1264.64 1408.12 1265.72 1414.28 1267.87 1419.29C1270.05 1424.31 1273.11 1428.1 1277.05 1430.69C1280.98 1433.28 1285.59 1434.58 1290.87 1434.58C1296.15 1434.58 1300.75 1433.28 1304.69 1430.69C1308.62 1428.1 1311.66 1424.31 1313.82 1419.29C1316 1414.28 1317.1 1408.13 1317.1 1400.83Z" fill="#EF7D00"/>
<path d="M1355.42 1452.49V1349.2H1423.81V1367.2H1377.26V1391.82H1419.27V1409.82H1377.26V1452.49H1355.42Z" fill="#EF7D00"/>
<path d="M1460.34 1349.2V1452.49H1438.5V1349.2H1460.34Z" fill="#EF7D00"/>
<path d="M1564.71 1349.2V1452.49H1545.85L1500.91 1387.48H1500.15V1452.49H1478.31V1349.2H1497.48L1542.06 1414.16H1542.97V1349.2H1564.71Z" fill="#EF7D00"/>
<path d="M1651.25 1382.58C1650.54 1380.12 1649.55 1377.95 1648.27 1376.07C1647 1374.15 1645.43 1372.54 1643.58 1371.23C1641.77 1369.88 1639.68 1368.86 1637.33 1368.15C1635.01 1367.44 1632.44 1367.09 1629.61 1367.09C1624.33 1367.09 1619.69 1368.4 1615.69 1371.03C1611.72 1373.65 1608.63 1377.46 1606.41 1382.48C1604.19 1387.45 1603.08 1393.54 1603.08 1400.73C1603.08 1407.92 1604.17 1414.05 1606.36 1419.09C1608.54 1424.14 1611.64 1427.99 1615.64 1430.64C1619.64 1433.27 1624.37 1434.58 1629.81 1434.58C1634.76 1434.58 1638.98 1433.7 1642.47 1431.95C1646 1430.17 1648.69 1427.67 1650.54 1424.44C1652.43 1421.21 1653.37 1417.4 1653.37 1412.99L1657.81 1413.65H1631.17V1397.2H1674.4V1410.22C1674.4 1419.29 1672.48 1427.1 1668.65 1433.62C1664.82 1440.11 1659.54 1445.12 1652.81 1448.65C1646.09 1452.15 1638.39 1453.9 1629.71 1453.9C1620.03 1453.9 1611.52 1451.76 1604.19 1447.49C1596.86 1443.19 1591.14 1437.08 1587.04 1429.18C1582.97 1421.25 1580.94 1411.83 1580.94 1400.94C1580.94 1392.56 1582.15 1385.1 1584.57 1378.54C1587.02 1371.95 1590.45 1366.37 1594.86 1361.8C1599.26 1357.22 1604.39 1353.74 1610.24 1351.35C1616.09 1348.97 1622.43 1347.77 1629.26 1347.77C1635.11 1347.77 1640.56 1348.63 1645.6 1350.35C1650.64 1352.03 1655.12 1354.41 1659.02 1357.51C1662.95 1360.6 1666.16 1364.28 1668.65 1368.55C1671.14 1372.79 1672.74 1377.46 1673.44 1382.58H1651.25Z" fill="#EF7D00"/>
<path d="M325.602 1697.55V1500.15H356.622V1697.55H325.602Z" fill="#002A12"/>
<path d="M445.573 1697.55L406.943 1554.57V1697.55H379.023V1500.15H417.943L449.813 1618.31V1500.15H477.453V1697.55H445.573Z" fill="#002A12"/>
<path d="M490.633 1528.35V1500.15H586.513V1528.35H554.083V1697.55H523.063V1528.35H490.633Z" fill="#002A12"/>
<path d="M631.192 1528.35V1583.34H673.772V1611.54H631.192V1669.35H684.772V1697.55H600.172V1500.15H684.772V1528.35H631.192Z" fill="#002A12"/>
<path d="M800.442 1697.55H768.852C766.972 1691.91 766.032 1683.83 766.032 1673.3V1642.28C766.032 1633.25 764.432 1626.86 761.242 1623.1C758.042 1619.15 752.872 1617.18 745.732 1617.18H735.012V1697.55H703.992V1500.15H750.802C766.782 1500.15 778.442 1503.91 785.772 1511.43C793.102 1518.76 796.772 1530.13 796.772 1545.55V1561.06C796.772 1581.36 790.002 1594.71 776.472 1601.1C790.192 1606.93 797.062 1620.94 797.062 1643.12V1673.58C797.062 1684.3 798.192 1692.29 800.442 1697.55ZM749.962 1528.35H735.012V1588.98H747.142C753.342 1588.98 757.952 1587.38 760.962 1584.18C764.162 1580.99 765.752 1575.63 765.752 1568.11V1548.65C765.752 1535.12 760.492 1528.35 749.962 1528.35Z" fill="#002A12"/>
<path d="M860.32 1500.15L883.16 1640.3L904.31 1500.15H947.46V1697.55H918.13V1555.98L896.7 1697.55H867.37L844.25 1557.96V1697.55H817.18V1500.15H860.33H860.32Z" fill="#002A12"/>
<path d="M998.512 1545.55V1652.15C998.512 1665.12 1003.86 1671.6 1014.58 1671.6C1025.3 1671.6 1030.66 1665.12 1030.66 1652.15V1545.55C1030.66 1532.58 1025.3 1526.09 1014.58 1526.09C1003.86 1526.09 998.512 1532.58 998.512 1545.55ZM967.492 1650.17V1547.52C967.492 1531.73 971.532 1519.51 979.622 1510.86C987.702 1502.21 999.362 1497.89 1014.59 1497.89C1029.82 1497.89 1041.48 1502.21 1049.56 1510.86C1057.64 1519.51 1061.69 1531.73 1061.69 1547.52V1650.17C1061.69 1665.96 1057.64 1678.19 1049.56 1686.83C1041.48 1695.48 1029.82 1699.81 1014.59 1699.81C999.362 1699.81 987.712 1695.48 979.622 1686.83C971.542 1678.19 967.492 1665.96 967.492 1650.17Z" fill="#002A12"/>
<path d="M1080.42 1500.15H1111.44V1652.43C1111.44 1665.21 1116.8 1671.6 1127.52 1671.6C1138.24 1671.6 1143.59 1665.21 1143.59 1652.43V1500.15H1172.92V1650.45C1172.92 1666.43 1168.97 1678.75 1161.08 1687.4C1153.18 1695.86 1141.71 1700.09 1126.67 1700.09C1111.63 1700.09 1100.16 1695.86 1092.27 1687.4C1084.37 1678.75 1080.42 1666.43 1080.42 1650.45V1500.15Z" fill="#002A12"/>
<path d="M1260.47 1697.55L1221.83 1554.57V1697.55H1193.91V1500.15H1232.83L1264.7 1618.31V1500.15H1292.33V1697.55H1260.47Z" fill="#002A12"/>
<path d="M1305.52 1528.35V1500.15H1401.4V1528.35H1368.97V1697.55H1337.95V1528.35H1305.52Z" fill="#002A12"/>
<path d="M1473.13 1500.15L1504.71 1697.55H1473.41L1468.05 1661.73H1429.98L1424.63 1697.55H1396.14L1427.73 1500.15H1473.13ZM1448.88 1535.12L1433.93 1634.94H1463.82L1448.88 1535.12Z" fill="#002A12"/>
<path d="M1519.16 1697.55V1500.15H1550.18V1697.55H1519.16Z" fill="#002A12"/>
<path d="M1639.13 1697.55L1600.5 1554.57V1697.55H1572.58V1500.15H1611.5L1643.36 1618.31V1500.15H1671V1697.55H1639.13Z" fill="#002A12"/>
</svg>
